<?xml version="1.0" encoding="utf-8"?>
<!-- Generator: Adobe Illustrator 24.2.3, SVG Export Plug-In . SVG Version: 6.00 Build 0)  -->
<svg version="1.1" id="Lager_1" xmlns="http://www.w3.org/2000/svg" xmlns:xlink="http://www.w3.org/1999/xlink" x="0px" y="0px"
	 viewBox="0 0 841.9 595.3" style="enable-background:new 0 0 841.9 595.3;" xml:space="preserve">
<style type="text/css">
	.st0{fill:none;}
	.st1{fill:#D3BAA3;}
	.st2{fill:url(#MJ_pattern);stroke:url(#MJ_pattern);stroke-miterlimit:10;}
</style>
<pattern  width="396.6" height="245.9" patternUnits="userSpaceOnUse" id="MJ_pattern" viewBox="0 -245.9 396.6 245.9" style="overflow:visible;">
	<g>
		<rect y="-245.9" class="st0" width="396.6" height="245.9"/>
		<g>
			<path class="st1" d="M334-193.4c-1.5,3.2-5.5,2.9-7.9,0.8c-2.2,1.9-5.4,1.9-7.5-0.1c-1.7,0.5-3.7,0.5-5.1-0.6
				c-1.3-1-1.7-2.5-1.3-4c-1.8,0-3.3-1.6-3.2-3.5c0.1-1.9,1.6-3.1,3.2-3.6c-0.4-1,0.1-2.3,1-3c1.1-0.9,2.7-1.6,4.2-1.3
				c0-1.5,0.9-2.9,2.3-3.5c1.5-0.8,3.1-0.6,4.6,0c1.8-1.8,4.7-1.4,6,0.7c2.1-1.2,5.3,0.5,6.4,2.6c2.5-0.6,5.2,2,4.8,4.5
				c1.5,0.6,2,2.3,1.7,3.9c-0.2,1.6-1,3-2.5,3.5c0.1,1.3-0.6,2.6-1.8,3.3C337.5-192.7,335.6-193,334-193.4z M332.7-194.1
				c-0.1-0.5,0.3-1.1,0.9-0.9c1.2,0.3,2.6,0.7,3.8,0.4c1.1-0.3,2-1.3,1.8-2.4c-0.3-0.4-0.1-1.2,0.6-1.3c1.9-0.2,3-4.4,0.8-4.9
				c-0.1,0-0.3-0.1-0.3-0.2c-0.3-0.1-0.6-0.4-0.4-0.9c0.7-1.8-1.3-3.8-3.1-3.2c-0.4,0.2-1,0.1-1.1-0.4c-0.3-0.9-0.9-1.5-1.8-2
				c-0.8-0.4-2.3-1-3-0.3c-0.1,0.7-1.1,1-1.4,0.3c-0.1-0.1-0.2-0.3-0.2-0.6c-0.7-1.8-3.1-2.2-4.2-0.4c-0.4,0.6-1.2,0.3-1.4-0.2
				c-2.1-0.7-5-0.1-4.7,2.6c0,0.1,0,0.2,0,0.3c0.3,0.6-0.3,1.4-1,1c-1-0.5-2-0.1-2.9,0.3c-0.6,0.3-2.2,1.5-1,2
				c0.4,0.2,0.5,0.5,0.3,0.8c0,0.4-0.2,0.8-0.7,0.8c-1.2,0-2.5,0.6-3,1.8c-0.4,1.2,0.4,2.7,1.8,2.5c0.4-0.1,0.6,0.1,0.8,0.4
				c0.4,0.1,0.7,0.6,0.5,1.1c-0.6,1.2,0,2.6,1.2,3.2c1,0.4,2.1,0.3,3.1,0c0.2-0.4,0.8-0.6,1.1-0.2c1.6,2,4.3,2.2,6.1,0.3
				c0.1-0.1,0.2-0.1,0.3-0.2c0.3-0.2,0.7-0.3,1,0C328.2-192.4,331.5-191.4,332.7-194.1z"/>
			<path class="st1" d="M343.9-189.8c0,1.6-0.9,2.8-2.6,2.9c-1.5,0.1-3.2-0.7-3.5-2.2c-0.4-1.7,0.9-3.2,2.4-3.9c0.4-0.2,0.9,0,1,0.4
				C342.9-192.9,343.9-191.4,343.9-189.8z M341.4-191.2c-0.4,0.1-0.7-0.1-0.8-0.4c-0.7,0.3-1.3,0.8-1.4,1.6
				c-0.1,0.9,0.6,1.4,1.4,1.5c0.7,0.1,1.5,0,1.7-0.7C342.5-189.8,342.3-191.4,341.4-191.2z"/>
			<path class="st1" d="M340.5-184.2c0,1.1-1,1.9-2.1,1.9c-1.1,0-2-0.9-2-2c0-1,0.8-1.9,1.8-2c0.1,0,0.2,0,0.2,0c0.1,0,0.2,0,0.2,0
				C339.7-186.1,340.5-185.3,340.5-184.2z M339-184.2c0-0.3-0.2-0.6-0.5-0.6c-0.6,0-0.8,1-0.1,1.1C338.7-183.8,339-183.9,339-184.2z
				"/>
		</g>
		<g id="Magnifying_Glass_4_">
			<path class="st1" d="M309.2-123.1c-1.1-0.9-2.4-1.4-3.9-1.3c-1,0.1-1,1.5,0,1.5c1-0.1,2,0.2,2.8,0.8
				C308.9-121.5,309.9-122.5,309.2-123.1z"/>
			<path class="st1" d="M322-103.7c0,0.2,0,0.4-0.2,0.6c-0.9,1-1.4,2.2-2.7,2.7c-0.4,0.1-0.7,0-0.8-0.3c-2.4-2.8-4.9-5.4-7.7-7.8
				c-0.4-0.4-0.3-0.8,0.1-1.1c0,0,0.1-0.1,0.1-0.1c0.1-0.2,0.3-0.3,0.4-0.5c-0.4-0.5-0.8-0.9-1.3-1.2c-2.9,1.9-6.8,2.3-10.1,0.1
				c-3.1-2.1-4.5-6-3.5-9.6c1.1-3.6,4.4-6,8.1-6.1c0,0,0,0,0,0c4.1-0.5,8.1,1.9,9.3,6c1,3.5-0.3,6.6-2.6,8.7
				c0.4,0.3,0.8,0.7,1.2,1.1c0.3-0.2,0.6-0.5,0.9-0.7c0.2-0.2,0.6-0.3,0.8-0.2c0.2,0,0.4,0.1,0.5,0.2c2.3,2.6,4.8,5.1,7.4,7.5
				C322-104.2,322.1-103.9,322-103.7z M305.2-111.3c3.9-0.1,7.3-3.4,7.3-7.4c0-4.2-3.7-7.5-7.9-6.9c0,0,0,0,0,0c-0.1,0-0.1,0-0.2,0
				c-4,0.1-7.2,3.6-6.9,7.7C297.8-114,301.3-111.2,305.2-111.3z M320.4-103.7c-2.3-2.2-4.6-4.5-6.7-6.8c-0.5,0.4-1,0.9-1.5,1.4
				c2.5,2.2,4.8,4.5,6.9,7C319.6-102.4,320-103.1,320.4-103.7z"/>
		</g>
		<g id="Computer_5_">
			<path class="st1" d="M255.3-25.3c0.1,0.4-0.2,0.9-0.7,0.9c-5.2,0.3-10.4,0.5-15.7,0.6c0,0.1,0,0.1,0,0.2c0,0.5-0.1,1,0.3,1.4
				c0.3,0.3,0.7,0.4,1,0.6c0.8,0.5,1.5,0.9,2.3,1.4c0.1,0,0.1,0.1,0.2,0.2c0.7,0.2,0.6,1.4-0.2,1.5c-5,0.1-10-0.1-15,0
				c-0.1,0-0.2,0-0.2,0c-0.3-0.1-0.5-0.3-0.6-0.6c-0.1-0.3,0-0.5,0.3-0.7c0,0,0,0,0,0c0,0,0,0,0,0c0.8-0.5,1.6-1,2.4-1.6
				c0.3-0.2,1-0.5,1.2-0.7c0.2-0.3,0.1-1,0.1-1.4c0,0,0,0,0,0c-5.4,0-10.8-0.1-16.2-0.3c-0.4,0-0.7-0.4-0.7-0.7
				c-0.1-0.1-0.1-0.2-0.1-0.4c-0.1-8.7-0.1-17.3,0-26c0-0.2,0.1-0.3,0.2-0.5c0.1-0.3,0.3-0.5,0.7-0.5c12.8-0.1,25.6-0.1,38.4-0.2
				c0.2,0,0.4,0.1,0.5,0.2c0.4-0.2,1.1,0,1.1,0.6c0.2,8.6,0.5,17.2,0.7,25.8C255.4-25.5,255.4-25.4,255.3-25.3z M253-50.9
				c-12.6,0.1-25.2,0.1-37.8,0.2c-0.1,6.8-0.1,13.6-0.1,20.3c12.9,0.2,25.8,0.1,38.6-0.2c-0.2-6.8-0.4-13.6-0.6-20.4
				C253.1-50.9,253.1-50.9,253-50.9z M253.9-25.8c0-1-0.1-2.1-0.1-3.1c-12.9,0.3-25.8,0.3-38.7,0.2c0,1.1,0,2.2,0,3.3
				C228.1-25.1,241-25.2,253.9-25.8z M237.4-23.6c0-0.1,0-0.1,0-0.2c-1.7,0-3.5,0-5.2,0c0,0,0,0,0,0c0,0.6,0.2,1.4-0.1,1.9
				c-0.2,0.5-0.6,0.7-1.1,1c-0.4,0.2-0.7,0.5-1.1,0.7c3.3,0,6.6,0,9.8,0c-0.5-0.3-0.9-0.5-1.3-0.9C237.6-21.6,237.4-22.5,237.4-23.6
				z"/>
			<path class="st1" d="M234.8-27.8c-0.9,0-0.9,1.5,0,1.5S235.7-27.8,234.8-27.8z"/>
		</g>
		<g id="Mouse_and_Mousepad_5_">
			<path class="st1" d="M211.5-185.8c1.4,3.6,4,10.9-1.7,12c-1.9,0.4-4.1-0.1-5.1-1.9c-0.5-1.1-0.6-2.4-0.8-3.6
				c-0.3-1.6-0.5-3.1-0.8-4.7c0-0.2,0-0.3,0.1-0.5c0.1-0.2,0.2-0.4,0.5-0.4c2.3-0.8,4.8-1.2,7.2-1.4
				C211.2-186.4,211.4-186.2,211.5-185.8C211.5-185.9,211.5-185.8,211.5-185.8z M210.3-184.8c-0.7,0.1-1.4,0.1-2.2,0.3
				c0.2,1.1,0.5,2.1,0.8,3.2c0.2,0.9-1.2,1.3-1.4,0.4c-0.3-1.1-0.6-2.2-0.8-3.3c-0.7,0.2-1.4,0.3-2.1,0.6c0.3,1.8,0.6,3.6,1,5.4
				c0.1,0.7,0.2,1.6,0.6,2.1c0.7,0.9,2.1,1,3.2,0.9C213.7-176.1,211.5-181.9,210.3-184.8z"/>
			<path class="st1" d="M216.8-169.8c-1,0.7-2.7,0.4-3.9,0.5c-1.6,0.1-3.1,0.1-4.7,0.1c-3.4,0-6.9,0.2-10.3-0.1
				c-2.4-0.2-3.6-1-3.8-3.4c-0.2-3.4-0.1-6.9,0-10.3c0.1-2.1-0.5-5.7,1.8-6.8c2.4-1.2,5.5-0.7,8.1-0.7c2.9,0,5.9-0.1,8.8,0
				c1.1,0.1,2.4,0,3.4,0.8c0.8,0.7,1,1.8,1.1,2.8c0.2,1.4,0.1,2.7,0.2,4.1c0.1,2,0.2,4,0.3,5.9C217.9-175.2,218.7-171.2,216.8-169.8
				z M216.4-174.8c0-1.2-0.1-2.3-0.2-3.5c-0.1-2.3-0.2-4.6-0.3-6.9c0-0.9,0-2.1-0.4-3c-0.5-1.1-1.8-0.9-2.8-1c-2.5,0-5,0-7.4,0
				c-1.1,0-2.2,0-3.3,0c-1.3,0-2.8-0.2-4.1,0c-0.8,0.1-1.8,0.5-2.2,1.3c-0.2,0.4-0.1,1.3-0.1,1.8c-0.1,1.3-0.1,2.6-0.2,3.8
				c-0.1,2.6-0.2,5.1-0.1,7.7c0,1.2-0.2,3.1,1.1,3.5c1.1,0.4,2.6,0.2,3.7,0.2c2.4,0,4.9,0.1,7.3,0c1.4,0,2.7,0,4.1-0.1
				c1.1,0,2.4,0.1,3.5-0.1c1.2-0.3,1.1-1.1,1.2-2.1C216.5-173.6,216.4-174.2,216.4-174.8z"/>
		</g>
		<g id="Keyboard_5_">
			<path class="st1" d="M104.8-178.3c0,0.5-0.4,0.8-0.9,0.7c-0.1,0-0.2,0.1-0.3,0.1c-12.9,0.6-25.9,1.2-38.8,1.6
				c-0.3,0-0.5-0.1-0.6-0.3c-0.3-0.1-0.6-0.3-0.6-0.7c-0.3-6.1-0.5-12.2-0.5-18.4c0-0.3,0.1-0.5,0.3-0.6c0-0.3,0.3-0.6,0.7-0.6
				c12.7-0.4,25.4-0.8,38.1-1.1c0.3,0,0.5,0.1,0.6,0.3c0.3,0.1,0.5,0.3,0.5,0.7C104.1-190.6,104.6-184.4,104.8-178.3z M65.1-177.4
				c12.7-0.4,25.5-0.9,38.2-1.6c-0.3-5.8-0.7-11.5-1.2-17.2c-12.5,0.4-24.9,0.7-37.4,1.1C64.7-189.2,64.8-183.3,65.1-177.4z"/>
			<path class="st1" d="M66.8-192.5c0.4,0,0.7,0,1.1,0c0.4,0,0.8-0.3,0.7-0.7c0-0.4-0.3-0.8-0.7-0.7c-0.4,0-0.7,0-1.1,0
				c-0.4,0-0.8,0.3-0.7,0.7C66-192.9,66.3-192.5,66.8-192.5z"/>
			<path class="st1" d="M70.9-192.7c0.3,0,0.6,0,0.8,0c0.4,0,0.8-0.3,0.7-0.7c0-0.4-0.3-0.8-0.7-0.7c-0.3,0-0.6,0-0.8,0
				c-0.4,0-0.8,0.3-0.7,0.7C70.2-193,70.5-192.6,70.9-192.7z"/>
			<path class="st1" d="M74.5-192.8c0.2,0,0.5,0,0.7,0c0.4,0,0.8-0.3,0.7-0.7c0-0.4-0.3-0.7-0.7-0.7c-0.2,0-0.5,0-0.7,0
				c-0.4,0-0.8,0.3-0.7,0.7C73.8-193.1,74.1-192.8,74.5-192.8z"/>
			<path class="st1" d="M77.9-192.8c0.3,0,0.6,0,0.9,0c0.4,0,0.8-0.3,0.7-0.7c0-0.4-0.3-0.8-0.7-0.7c-0.3,0-0.6,0-0.9,0
				c-0.4,0-0.8,0.3-0.7,0.7C77.2-193.2,77.5-192.8,77.9-192.8z"/>
			<path class="st1" d="M81.9-192.9c0.3,0,0.5,0,0.8-0.1c0.4,0,0.8-0.3,0.7-0.7c0-0.4-0.3-0.8-0.7-0.7c-0.3,0-0.5,0-0.8,0.1
				c-0.4,0-0.8,0.3-0.7,0.7C81.2-193.3,81.5-192.9,81.9-192.9z"/>
			<path class="st1" d="M85.2-193c0.3,0,0.6-0.1,0.9-0.1c0.4,0,0.8-0.3,0.7-0.7c0-0.4-0.3-0.8-0.7-0.7c-0.3,0-0.6,0.1-0.9,0.1
				c-0.4,0-0.8,0.3-0.7,0.7C84.5-193.3,84.8-192.9,85.2-193z"/>
			<path class="st1" d="M88.9-193.1c0.3,0,0.5-0.1,0.8-0.1c0.2,0,0.4-0.1,0.5-0.2c0.1-0.1,0.2-0.3,0.2-0.5c0-0.4-0.3-0.8-0.7-0.7
				c-0.3,0-0.5,0.1-0.8,0.1c-0.2,0-0.4,0.1-0.5,0.2c-0.1,0.1-0.2,0.3-0.2,0.5C88.2-193.5,88.5-193.1,88.9-193.1z"/>
			<path class="st1" d="M92.2-194.7c-0.4,0-0.8,0.3-0.7,0.7c0,0.4,0.3,0.8,0.7,0.7c0.4,0,0.8-0.1,1.2-0.1c0.4-0.1,0.6-0.6,0.5-0.9
				c-0.1-0.4-0.5-0.6-0.9-0.5"/>
			<path class="st1" d="M95.9-193.4c0.3,0,0.5,0,0.8,0c0.4,0,0.8-0.4,0.7-0.7c0-0.4-0.3-0.7-0.7-0.7c-0.3,0-0.5,0-0.8,0
				c-0.4,0-0.8,0.3-0.7,0.7C95.2-193.8,95.5-193.4,95.9-193.4z"/>
			<path class="st1" d="M99.3-193.6c0.4-0.1,0.9-0.1,1.3-0.1c0.4,0,0.7-0.3,0.7-0.7c0-0.4-0.3-0.8-0.7-0.7c-0.5,0-0.9,0.1-1.3,0.1
				c-0.4,0-0.7,0.3-0.7,0.7C98.6-193.9,98.9-193.5,99.3-193.6z"/>
			<path class="st1" d="M66.7-189.6c0.9,0,0.9-1.5,0-1.5S65.8-189.6,66.7-189.6z"/>
			<path class="st1" d="M69.4-189.9c0.9,0,0.9-1.5,0-1.5S68.5-189.9,69.4-189.9z"/>
			<path class="st1" d="M72.4-190c1.2,0,1.2-1.5,0-1.5C71.5-191.5,71.5-190,72.4-190z"/>
			<path class="st1" d="M75.7-190c0.9,0,0.9-1.5,0-1.5C74.8-191.5,74.8-190,75.7-190z"/>
			<path class="st1" d="M78.6-191.7c-0.9,0-0.9,1.5,0,1.5S79.5-191.7,78.6-191.7z"/>
			<path class="st1" d="M81.6-190.2c0.9,0,0.9-1.5,0-1.5S80.7-190.2,81.6-190.2z"/>
			<path class="st1" d="M84.6-190.5c0.9,0,0.9-1.5,0-1.5C83.7-192,83.7-190.5,84.6-190.5z"/>
			<path class="st1" d="M87.6-192c-0.9,0-0.9,1.5,0,1.5C88.8-190.5,88.8-192,87.6-192z"/>
			<path class="st1" d="M90.9-190.6c0.9,0,0.9-1.5,0-1.5S90-190.6,90.9-190.6z"/>
			<path class="st1" d="M93.9-190.8c0.9,0,0.9-1.5,0-1.5C93-192.3,93-190.8,93.9-190.8z"/>
			<path class="st1" d="M96.6-192.4c-0.9,0-0.9,1.5,0,1.5C97.7-190.9,97.7-192.4,96.6-192.4z"/>
			<path class="st1" d="M101.5-191.8c0-0.4-0.3-0.8-0.7-0.7c-0.4,0-0.9,0-1.3,0.1c-0.4,0-0.7,0.3-0.7,0.7c0,0.4,0.3,0.8,0.7,0.7
				c0.4,0,0.9,0,1.3-0.1C101.1-191.1,101.5-191.4,101.5-191.8z"/>
			<path class="st1" d="M66.4-186.9c0.6,0,1.3-0.1,1.9-0.1c1,0,1-1.5,0-1.5c-0.6,0-1.3,0.1-1.9,0.1
				C65.5-188.4,65.5-186.9,66.4-186.9z"/>
			<path class="st1" d="M66.3-184.2c1,0,2-0.1,3-0.2c1-0.1,1-1.6,0-1.5c-1,0.1-2,0.1-3,0.2C65.4-185.6,65.4-184.1,66.3-184.2z"/>
			<path class="st1" d="M70.3-183.1c-1.3,0.1-2.7,0.2-4,0.2c-1,0-1,1.5,0,1.5c1.3,0,2.7-0.1,4-0.2C71.3-181.7,71.3-183.2,70.3-183.1
				z"/>
			<path class="st1" d="M66.7-180.2c-0.9,0-0.9,1.5,0,1.5S67.6-180.2,66.7-180.2z"/>
			<path class="st1" d="M69.4-180.4c-0.9,0-0.9,1.5,0,1.5S70.3-180.4,69.4-180.4z"/>
			<path class="st1" d="M71.8-180.6c-0.9,0-0.9,1.5,0,1.5S72.7-180.6,71.8-180.6z"/>
			<path class="st1" d="M75-180.6c-0.3,0-0.5,0-0.8,0c-0.4,0-0.8,0.3-0.7,0.7c0,0.4,0.3,0.7,0.7,0.7c0.3,0,0.5,0,0.8,0
				c0.4,0,0.8-0.3,0.7-0.7C75.7-180.2,75.4-180.6,75-180.6z"/>
			<path class="st1" d="M87.2-179.8c1-0.1,1-1.5,0-1.5c-3.2,0.2-6.4,0.4-9.5,0.5c-1,0.1-1,1.5,0,1.5"/>
			<path class="st1" d="M91.3-181.5c-0.5,0.1-1,0.1-1.5,0.1c-1,0-1,1.5,0,1.5c0.5,0,1,0,1.5-0.1c0.4,0,0.7-0.3,0.7-0.7
				C92-181.1,91.7-181.5,91.3-181.5z"/>
			<path class="st1" d="M93.9-181.5c-0.9,0-0.9,1.5,0,1.5C94.8-180,94.8-181.5,93.9-181.5z"/>
			<path class="st1" d="M96.6-181.6c-0.9,0-0.9,1.5,0,1.5S97.4-181.6,96.6-181.6z"/>
			<path class="st1" d="M98.9-181.8c-0.9,0-0.9,1.5,0,1.5C100.1-180.3,100.1-181.8,98.9-181.8z"/>
			<path class="st1" d="M101.6-181.8c-1.2,0-1.2,1.5,0,1.5C102.5-180.3,102.5-181.8,101.6-181.8z"/>
			<path class="st1" d="M71.2-188.9c-0.9,0-0.9,1.5,0,1.5C72.1-187.4,72.1-188.9,71.2-188.9z"/>
			<path class="st1" d="M73.6-187.5c0.9,0,0.9-1.5,0-1.5C72.7-188.9,72.7-187.5,73.6-187.5z"/>
			<path class="st1" d="M76.3-187.6c0.9,0,0.9-1.5,0-1.5C75.1-189.1,75.1-187.6,76.3-187.6z"/>
			<path class="st1" d="M78.6-189.2c-1.2,0-1.2,1.5,0,1.5C79.5-187.7,79.5-189.2,78.6-189.2z"/>
			<path class="st1" d="M81.3-187.8c0.9,0,0.9-1.5,0-1.5C80.1-189.3,80.1-187.8,81.3-187.8z"/>
			<path class="st1" d="M84-187.9c0.9,0,0.9-1.5,0-1.5C83.1-189.4,83.1-187.9,84-187.9z"/>
			<path class="st1" d="M87-189.4c-1.2,0-1.2,1.5,0,1.5C87.9-187.9,87.9-189.4,87-189.4z"/>
			<path class="st1" d="M89.7-189.5c-0.9,0-0.9,1.5,0,1.5C90.6-188,90.6-189.5,89.7-189.5z"/>
			<path class="st1" d="M92.4-188.2c0.9,0,0.9-1.5,0-1.5C91.5-189.7,91.5-188.2,92.4-188.2z"/>
			<path class="st1" d="M95.1-188.4c0.9,0,0.9-1.5,0-1.5S94.2-188.4,95.1-188.4z"/>
			<path class="st1" d="M97.7-188.5c0.9,0,0.9-1.5,0-1.5S96.9-188.5,97.7-188.5z"/>
			<path class="st1" d="M100.4-190.1c-0.9,0-0.9,1.5,0,1.5C101.3-188.6,101.3-190.1,100.4-190.1z"/>
			<path class="st1" d="M72.1-184.6c0.9,0,0.9-1.5,0-1.5C71.2-186.1,71.2-184.6,72.1-184.6z"/>
			<path class="st1" d="M74.8-186.2c-0.9,0-0.9,1.5,0,1.5C75.7-184.7,75.7-186.2,74.8-186.2z"/>
			<path class="st1" d="M77.5-186.2c-1.2,0-1.2,1.5,0,1.5C78.3-184.8,78.3-186.2,77.5-186.2z"/>
			<path class="st1" d="M79.8-185.1c1.2,0,1.2-1.5,0-1.5C78.9-186.6,78.9-185.1,79.8-185.1z"/>
			<path class="st1" d="M82.8-186.7c-1.2,0-1.2,1.5,0,1.5C83.7-185.2,83.7-186.7,82.8-186.7z"/>
			<path class="st1" d="M85.2-186.8c-0.9,0-0.9,1.5,0,1.5S86.1-186.8,85.2-186.8z"/>
			<path class="st1" d="M87.6-186.9c-0.9,0-0.9,1.5,0,1.5C88.5-185.4,88.5-186.9,87.6-186.9z"/>
			<path class="st1" d="M90.3-185.5c0.9,0,0.9-1.5,0-1.5C89.4-187,89.4-185.5,90.3-185.5z"/>
			<path class="st1" d="M93-187.2c-0.9,0-0.9,1.5,0,1.5S93.9-187.2,93-187.2z"/>
			<path class="st1" d="M95.7-187.4c-0.9,0-0.9,1.5,0,1.5S96.6-187.4,95.7-187.4z"/>
			<path class="st1" d="M100.4-187.8c-0.7,0-1.4,0-2.1,0c-1,0-1,1.5,0,1.5c0.7,0,1.4,0,2.1,0C101.4-186.3,101.4-187.8,100.4-187.8z"
				/>
			<path class="st1" d="M73-183.5c-0.9,0-0.9,1.5,0,1.5S73.9-183.5,73-183.5z"/>
			<path class="st1" d="M75.7-183.5c-0.9,0-0.9,1.5,0,1.5C76.6-182.1,76.6-183.5,75.7-183.5z"/>
			<path class="st1" d="M78.3-183.6c-0.9,0-0.9,1.5,0,1.5C79.5-182.1,79.5-183.6,78.3-183.6z"/>
			<path class="st1" d="M81-183.9c-0.9,0-0.9,1.5,0,1.5C81.9-182.4,81.9-183.9,81-183.9z"/>
			<path class="st1" d="M84-182.6c1.2,0,1.2-1.5,0-1.5C83.1-184,83.1-182.6,84-182.6z"/>
			<path class="st1" d="M86.4-182.7c1.2,0,1.2-1.5,0-1.5C85.5-184.2,85.5-182.7,86.4-182.7z"/>
			<path class="st1" d="M89.1-184.3c-0.9,0-0.9,1.5,0,1.5C90-182.8,90-184.3,89.1-184.3z"/>
			<path class="st1" d="M92.1-184.6c-1.2,0-1.2,1.5,0,1.5C93-183.1,93-184.6,92.1-184.6z"/>
			<path class="st1" d="M94.8-184.7c-0.9,0-0.9,1.5,0,1.5C95.7-183.2,95.7-184.7,94.8-184.7z"/>
			<path class="st1" d="M100.7-185c-1.1,0-2.2,0-3.3,0.1c-1,0.1-1,1.6,0,1.5c1.1-0.1,2.2-0.1,3.3-0.1
				C101.7-183.5,101.7-185,100.7-185z"/>
		</g>
		<g id="Coffee_6_">
			<path class="st1" d="M50.8-110.2c0,0.2,0,0.5,0,0.7c0,0.2-0.1,0.4-0.2,0.5c-0.5,2.4-2.9,2.8-5,3.1c-2.6,0.4-5.6,0.8-8.1-0.1
				c-2.5-0.8-3.2-2.5-3.2-4.9c-0.1-3.3-0.1-6.6-0.2-9.9c0-0.1,0-0.2,0.1-0.3c0,0,0,0,0-0.1c0-1.2,1.3-1.7,2.2-2
				c0.7-0.2,1.4-0.4,2-0.6c0-0.1,0-0.3,0-0.4c0-1,1.2-2.3,0.7-3.3c-0.5-0.8,0.8-1.6,1.3-0.8c0.4,0.7,0.4,1.4,0.2,2.2
				c-0.2,0.7-0.6,1.3-0.6,2c0.7-0.1,1.4-0.1,2.2-0.2c1.8,0,3.5-0.1,5.3,0.3c0.9,0.2,2.3,0.6,2.7,1.6c0.2,0.1,0.3,0.3,0.4,0.6
				c0,0.3,0,0.5,0,0.8c3.1-0.1,5.6,1.8,6.2,5C57.3-112,54-110.4,50.8-110.2z M50.8-114c0.9,0,1.9-0.2,1.8-1.2c-0.1-1-1-1.5-1.9-1.5
				C50.7-115.9,50.7-114.9,50.8-114z M35.9-121c0,0.1,0.3,0.2,0.7,0.2c0.1-0.1,0.2-0.3,0.5-0.3c3.5-0.6,6.9-0.7,10.4-0.1
				c0.1,0,0.2,0,0.3,0.1c0.4-0.2,0.5-0.5,0.1-0.9c-0.5-0.5-2.2-0.5-2.9-0.6c-1,0-1.9,0-2.9,0c-0.2,0-0.7,0-1.5,0.1
				c0.1,0.6-0.7,1.2-1.3,0.7c-0.1-0.1-0.3-0.3-0.4-0.5C37.4-122,35.8-121.6,35.9-121z M49.4-109.6c0-3.4-0.2-6.8-0.4-10.3
				c-1.9,1-5.5,0.7-6.7,0.7c-1.9,0-3.9,0.1-5.7-0.2c-0.3,0-0.6-0.1-1-0.2c0,1.9,0.1,3.7,0.1,5.6c0,1.8-0.5,4.9,1,6.1
				c1.7,1.3,4.2,1,6.2,0.9c1.5-0.1,5.9-0.1,6.2-2.2C49.2-109.4,49.3-109.5,49.4-109.6z M54.9-116.3c-0.8-2.1-2.4-3.1-4.4-3
				c0,0.3,0,0.7,0.1,1c1.7-0.1,3.4,1.2,3.5,3c0.1,1.9-1.6,2.6-3.2,2.7c0,0.3,0,0.6,0,0.9C53.4-111.8,56.1-113.2,54.9-116.3z"/>
			<path class="st1" d="M43.8-126c0.2,0.9,1.6,0.5,1.4-0.4c-0.3-1.5,0.9-2.5,1-4c0.1-1.2-0.4-2.4-1.1-3.4c-0.5-0.8-1.8,0-1.3,0.8
				c1,1.5,1,2.6,0.3,4.2C43.6-127.9,43.5-127,43.8-126z"/>
		</g>
		<path id="Pencil_5_" class="st1" d="M87.7-23c0,1.8,0,3.6,0,5.4c0,0.7-0.7,0.9-1.2,0.6c-2-0.9-3.9-1.9-5.8-2.9
			c-0.2-0.1-0.3-0.2-0.3-0.3c0,0-0.1-0.1-0.1-0.1c-3.6-4.9-7.1-9.9-10.4-14.9c-0.1-0.2-0.1-0.4-0.1-0.5c-0.1-0.2-0.2-0.5,0-0.8
			c1-1.9,3.3-3,5.2-3.8c0.2-0.1,0.4-0.1,0.6,0.1c0.1,0,0.3,0.1,0.4,0.2c4.4,5,7.9,10.7,11.4,16.3c0,0.1,0,0.1,0,0.2
			C87.6-23.5,87.7-23.3,87.7-23z M84.4-19.8c0.4-0.7,1-1.2,1.8-1.4c0,0,0,0,0,0c0-0.4,0-0.9,0-1.3c0,0,0,0,0,0
			c-0.5-0.1-0.9-0.2-1.3-0.3c-0.1,0.3-0.2,0.5-0.3,0.8c-0.1,0.3-0.5,0.4-0.8,0.3c-0.3,0-0.7,0-1,0c-0.2,0.3-0.3,0.5-0.5,0.8
			C82.9-20.5,83.6-20.2,84.4-19.8z M71.2-36.1c0.5,0.7,1,1.5,1.5,2.2c1.2-1.2,2.6-2.2,4.2-2.9c-0.6-0.7-1.2-1.4-1.8-2.1
			C73.7-38.3,72-37.4,71.2-36.1C71.1-36.1,71.1-36.1,71.2-36.1z M81-22c0.2-0.3,0.3-0.6,0.5-0.9c0.1-0.1,0.2-0.2,0.3-0.3
			c0.1-0.1,0.3-0.1,0.4-0.1c0.4,0,0.7,0,1.1,0c0.1-0.2,0.1-0.3,0.2-0.5c0.1-0.3,0.3-0.4,0.5-0.5c0.2-0.1,0.4-0.2,0.6-0.1
			c0.2,0,0.4,0.1,0.7,0.1c-2.4-3.9-4.8-7.7-7.6-11.3c0,0,0,0-0.1,0c-1.6,0.6-3,1.6-4.2,2.9C76-29,78.5-25.5,81-22z"/>
		<g id="Phone_5_">
			<path class="st1" d="M360.1-39c-0.7-0.1-1.2,0.2-1.6,0.6c-0.4,0.4-0.6,1-0.5,1.6c0.2,0.6,0.7,1,1.3,1.2c0.7,0.1,1.4-0.1,1.8-0.6
				c0.4-0.5,0.5-1.2,0.1-1.9C361.1-38.6,360.9-38.9,360.1-39z"/>
			<path class="st1" d="M368.5-33.5c-0.1,0.2-0.3,0.4-0.6,0.4c-5.5,0-11,0-16.6,0c-0.6,0-0.8-0.5-0.7-1c-0.1-0.1-0.1-0.3-0.1-0.5
				c-0.2-8.7-0.2-17.3-0.2-26c0-0.5,0.4-0.7,0.7-0.7c0.1-0.3,0.3-0.5,0.7-0.5c5.1-0.2,10.3-0.3,15.4-0.1c0.2,0,0.4,0.1,0.5,0.2
				c0.2,0,0.4,0.2,0.5,0.5c0.9,4.1,0.5,8.7,0.6,12.9c0.1,4.7,0.1,9.3,0.2,14C368.9-33.9,368.7-33.6,368.5-33.5z M351.8-60.2
				c0,8.5,0,17,0.2,25.6c5.1,0,10.3,0,15.4,0c0-4.5-0.1-8.7-0.2-13c0-2.3-0.1-4.6-0.1-6.9c0-2,0-3.9-0.4-5.9
				C361.8-60.4,356.8-60.4,351.8-60.2z"/>
			<path class="st1" d="M354-58.7c3.5,0,7.1-0.1,10.6-0.1c0.5,0,0.7,0.4,0.7,0.8c0,0.1,0.1,0.2,0.1,0.3c0.1,5.6,0.2,11.2,0.2,16.8
				c0,0.2-0.1,0.4-0.2,0.5c-0.1,0.2-0.3,0.3-0.6,0.3c-3.5,0-7-0.1-10.5-0.1c-0.5,0-0.7-0.4-0.7-0.8c0,0,0,0,0-0.1
				c-0.1-5.5-0.1-10.9-0.2-16.4C353.2-58.1,353.4-58.7,354-58.7z M363.9-57.3c-3,0-6,0-9,0.1c0.1,5.1,0.1,10.3,0.2,15.4
				c3,0,6,0.1,9,0.1C364.1-46.9,364-52.1,363.9-57.3z"/>
		</g>
		<g>
			<g>
				<path class="st1" d="M149.1-97.3c1.2,0,2.5,0,3.7,0c0.8,0,0.8-1.2,0-1.2c-1.2,0-2.5,0-3.7,0C148.4-98.4,148.4-97.3,149.1-97.3
					L149.1-97.3z"/>
				<path class="st1" d="M152.3-97.8c0,1.1,0,2.2,0,3.3c0,0.8,1.2,0.8,1.2,0c0-1.1,0-2.2,0-3.3C153.5-98.6,152.3-98.6,152.3-97.8
					L152.3-97.8z"/>
				<path class="st1" d="M152.9-95.1c-1.3,0-2.5,0-3.8,0c-0.8,0-0.8,1.2,0,1.2c1.3,0,2.5,0,3.8,0C153.7-94,153.7-95.1,152.9-95.1
					L152.9-95.1z"/>
				<path class="st1" d="M148.5-97.8c0,1.1,0,2.2,0,3.3c0,0.8,1.2,0.8,1.2,0c0-1.1,0-2.2,0-3.3C149.7-98.6,148.5-98.6,148.5-97.8
					L148.5-97.8z"/>
			</g>
			<g>
				<path class="st1" d="M167.9-97.3c1.2,0,2.5,0,3.7,0c0.8,0,0.8-1.2,0-1.2c-1.2,0-2.5,0-3.7,0C167.1-98.5,167.1-97.3,167.9-97.3
					L167.9-97.3z"/>
				<path class="st1" d="M171.1-97.9c0,1.1,0,2.2,0,3.2c0,0.8,1.2,0.8,1.2,0c0-1.1,0-2.2,0-3.2C172.3-98.6,171.1-98.6,171.1-97.9
					L171.1-97.9z"/>
				<path class="st1" d="M171.7-95.2c-1.3,0-2.5,0-3.8,0c-0.8,0-0.8,1.2,0,1.2c1.3,0,2.5,0,3.8,0C172.4-94,172.4-95.2,171.7-95.2
					L171.7-95.2z"/>
				<path class="st1" d="M167.3-97.9c0,1.1,0,2.2,0,3.3c0,0.8,1.2,0.8,1.2,0c0-1.1,0-2.2,0-3.3C168.5-98.7,167.3-98.7,167.3-97.9
					L167.3-97.9z"/>
			</g>
			<path class="st1" d="M170.8-98.1c-0.6-4.7-3.6-8.5-8.3-9.3c-0.7-0.1-1.1,1-0.3,1.1c4.2,0.7,7,4,7.5,8.2
				C169.7-97.3,170.9-97.3,170.8-98.1L170.8-98.1z"/>
			<path class="st1" d="M151.8-98.3c0.1-4.2,3-7.1,7-7.9c0.7-0.2,0.4-1.3-0.3-1.1c-4.5,1-7.7,4.3-7.9,9.1
				C150.6-97.5,151.8-97.5,151.8-98.3L151.8-98.3z"/>
			<path class="st1" d="M158.9-108c1.1,0,2.2,0,3.2,0c0.8,0,0.8-1.2,0-1.2c-1.1,0-2.2,0-3.2,0C158.1-109.2,158.1-108,158.9-108
				L158.9-108z"/>
			<path class="st1" d="M161.5-108.6c0,1.1,0,2.2,0,3.3c0,0.8,1.2,0.8,1.2,0c0-1.1,0-2.2,0-3.3C162.7-109.4,161.5-109.4,161.5-108.6
				L161.5-108.6z"/>
			<path class="st1" d="M158.3-108.6c0,1.1,0,2.2,0,3.3c0,0.8,1.2,0.8,1.2,0c0-1.1,0-2.2,0-3.3C159.5-109.4,158.3-109.4,158.3-108.6
				L158.3-108.6z"/>
			<path class="st1" d="M158.9-104.7c1.1,0,2.2,0,3.2,0c0.8,0,0.8-1.2,0-1.2c-1.1,0-2.2,0-3.2,0
				C158.1-105.9,158.1-104.7,158.9-104.7L158.9-104.7z"/>
			<path class="st1" d="M147.8-106.6c0,0.5,0.1,1,0.2,1.5c0.1,0.5,0.3,0.8,0.8,0.8c0.6,0,1.2-0.1,1.8-0.1c0.4-0.1,0.8-0.3,0.8-0.8
				c0-0.5-0.1-1.1-0.2-1.5c-0.1-0.5-0.4-0.7-0.9-0.6c-0.6,0-1.2,0.1-1.7,0.2c-0.7,0.1-0.8,1.3,0,1.2c0.6-0.1,1.4-0.2,2-0.2
				c-0.1-0.1-0.3-0.1-0.4-0.2c-0.2-0.2-0.1-0.1,0,0.1c0,0.1,0,0.3,0.1,0.4c0,0.1,0,0.2,0,0.3c0,0.1,0,0.2,0,0.2c0,0.1,0,0.1,0-0.1
				c0.1-0.1,0.2-0.2,0.4-0.3c-0.3,0.1-0.6,0.1-0.9,0.1c-0.1,0-0.3,0-0.4,0c-0.1,0-0.4,0-0.2,0.1c0.1,0.1,0.2,0.2,0.3,0.4
				c-0.2-0.5-0.2-1.1-0.2-1.6C149.1-107.4,147.9-107.4,147.8-106.6L147.8-106.6z"/>
			<path class="st1" d="M170.2-109.7c0,0.4,0,0.9,0.1,1.3c0.1,0.4,0.1,0.8,0.6,0.9c0.4,0.1,0.9,0,1.4-0.1c0.4,0,1,0,1.2-0.3
				c0.3-0.3,0.1-0.7,0.1-1.1c0-0.4,0-0.9-0.2-1.3c-0.2-0.4-0.6-0.4-1-0.3c-0.5,0.1-1,0.1-1.6,0.2c-0.7,0.1-0.8,1.3,0,1.2
				c0.6-0.1,1.4-0.2,2-0.2c-0.1-0.1-0.3-0.1-0.4-0.2c-0.2-0.2-0.1-0.1,0,0.1c0,0.1,0,0.3,0.1,0.4c0,0.1,0,0.2,0,0.3
				c0,0.1,0,0.2,0,0.2c0,0.1,0,0.1,0-0.1c0.1-0.1,0.2-0.2,0.4-0.3c-0.3,0.1-0.6,0.1-0.9,0.1c-0.1,0-0.3,0-0.4,0
				c-0.1,0-0.5,0-0.3,0.1c0.1,0.1,0.2,0.2,0.3,0.4c-0.2-0.5-0.2-1-0.2-1.5C171.5-110.4,170.3-110.4,170.2-109.7L170.2-109.7z"/>
			<path class="st1" d="M162.5-107c2.6-0.7,5.5-0.8,8.1-1.1c0.7-0.1,0.8-1.3,0-1.2c-2.8,0.3-5.7,0.4-8.4,1.2
				C161.5-108,161.8-106.8,162.5-107L162.5-107z"/>
			<path class="st1" d="M150.8-105.7c2.8-0.2,5.5-0.5,8.2-1c0.7-0.1,0.4-1.3-0.3-1.1c-2.6,0.5-5.2,0.8-7.9,1
				C150.1-106.8,150.1-105.6,150.8-105.7L150.8-105.7z"/>
		</g>
	</g>
</pattern>
<rect x="-530" y="-86.3" class="st2" width="2117.3" height="738.7"/>
</svg>
