<?xml version="1.0" encoding="utf-8"?>
<!-- Generator: Adobe Illustrator 24.2.3, SVG Export Plug-In . SVG Version: 6.00 Build 0)  -->
<svg version="1.1" xmlns="http://www.w3.org/2000/svg" xmlns:xlink="http://www.w3.org/1999/xlink" x="0px" y="0px"
	 viewBox="0 0 1135.8 662.9" style="enable-background:new 0 0 1135.8 662.9;" xml:space="preserve">
<style type="text/css">
	.st0{fill:#F6BD60;}
	.st1{fill:#F08482;}
	.st2{fill:#A4A4A3;}
	.st3{fill:#979797;}
	.st4{fill:#FDFDFD;}
	.st5{fill:#262B2B;}
	.st6{fill:#F08583;}
	.st7{fill:#D36C6D;}
	.st8{fill:#CDCCCC;}
	.st9{fill:#FFFFFF;}
	.st10{fill:#F6BE61;}
</style>
<g id="Lager_1">
	<g>
		<path class="st0" d="M750.5,528.4c-19.9-15-53.3-22.1-83.6-22.1c-38.1,0.1-79.1,4.5-114.1,21.2c-25,12-45.8,25.4-69.8,36.8
			c-45.9,21.9-95.1,30-145.3,30.8c-19.7,0.3-43.7-3.1-61.9-7c-30.1-6.4-53.8-22.4-84.2-28.3c-33.5-6.5-73.7,0.5-105.1,18.3l-11.3,8
			l6.9-1.5l-6,6.3l6.5-0.4l-4.3,4.9l8.4-4.6C118.2,573,158.5,566,192,572.5c30.4,5.9,54.1,21.8,84.2,28.3c18.2,3.9,42.1,7.3,61.9,7
			c50.1-0.8,99.4-9,145.3-30.8c23.9-11.4,44.8-24.8,69.8-36.8C588,523.4,629,519,667.1,518.9c30.3,0,65.9,7.2,85.8,22.2L750.5,528.4
			z"/>
	</g>
	<path class="st1" d="M1079.5,409.8"/>
	<path class="st0" d="M742.1,523c0,0,44.7,20.6,84,59.4c32.3,31.9-3.2,86.8-81.3,79.9c-78.1-6.9-206-41.6-209.8-87.3
		c-3.8-46.2,27.3-107,127.7-99.8C763,482.5,830,491,877.1,514.5c47.1,23.5,71.8,74.8,125.4,90.3c53.5,15.5,133.3,19.4,133.3,19.4
		l-4.5,7.8c0,0-24.6,4.2-96.4-10.9c-71.9-15.1-84-35.1-104-52s-38-39.9-60-49.8c-25.6-11.4-35.4-15.1-93.9-23.4
		s-111.2-12.2-132.6-10.7c-21.8,1.5-48.6,5.8-66.9,16.8c-15.7,9.5-37.4,23.5-32.6,69.5c1.8,16.9,26.9,38,101.9,57.8
		c75,19.8,105.2,24.2,129.9,20.4c31.9-4.9,56.5-26.1,48.4-46.9c-9.8-25.2-82.8-68.1-82.8-68.1L742.1,523z"/>
	<path class="st2" d="M304.9,262.6c0,0,121.2-24.2,216.4-9.1s-8.5,204.4-8.5,204.4s-16.2,19-62,16.8s-179.7-9.3-199.4-10
		c-19.7-0.8-63.5-3-63.5-3l8.6-69.8c0,0,78.5-115.5,89-117.8C296,271.6,304.9,262.6,304.9,262.6z"/>
	<path class="st2" d="M155.1,603.7c-5.5,4-5.6,9.1-1.9,11.9C153.3,613.1,153.9,608.8,155.1,603.7z"/>
	<path class="st2" d="M200.7,617.7h-41.6C174,618.8,200.7,617.7,200.7,617.7z"/>
	<path class="st3" d="M250.2,617.7h-40C225.1,618.7,250.2,617.7,250.2,617.7z"/>
	<path class="st4" d="M505.4,617.7H475C486.6,618.1,502.4,617.7,505.4,617.7z"/>
	<path class="st2" d="M508.7,605.3c-3.2,3.4-4.3,7.6-2.3,10.1C506.9,613.3,507.7,609.8,508.7,605.3z"/>
	<path class="st4" d="M551.6,617.7h-38.8c11.5,1,38.7,0.2,38.7,0.2S551.5,617.7,551.6,617.7z"/>
	<path class="st3" d="M710.7,61.4c0,0-0.6,5.4-4.2,15.9c-0.6,1.9-3.5,8.2-3.5,8.2s-9-29-9.4-32.2C689.1,63.1,685,70.1,683,74
		l-3.5-23.9l-14,16.1l2.2-18.1c0,0,0.6-34.4,2.5-40.4c4-12.7,24.5-10.9,35.4,15.1C715.1,45.2,710.7,61.4,710.7,61.4z"/>
	<g>
		<path class="st3" d="M467.1,598.8c-11.6,2.5-16.4,16.3-7.3,18c2.2,0.5,6,0.7,10.3,0.8h0.2h30.4h0.5c0,0,0.2-0.8,0.5-2.3
			c1-4.2,0.8-3.4,2.3-10.1c4.5-20,12.8-61.3,15.1-99.1c1.4-22.7,2-33.9,2.2-39.2c-6.6,0.8-18.3,2.2-34.2,3.5
			c0.4,9.6,0.8,28.5-0.2,55.1C485.4,565.5,478.7,596.3,467.1,598.8z"/>
		<path class="st2" d="M99.6,321.5c-0.3-9.8,0.5-18.1,2.4-23.6c6.8-20.4,2.8-117.7,2.8-117.7s12.5,10.8,27.4,26.1
			c14.9,15.2,44.9,22.1,79.1,19.9c34.2-2.2,72.6-45.1,72.6-45.1l7.1,85.1c78.5-22.3,149.7-21.4,194.2-17.3
			c-16.9,84.2-30.3,150.7-33.1,163.2c-8.4,37.7-40.3,34.6-40.3,34.6H299.6H170.4c-0.2-8.9-0.4-15.1-0.3-17.1
			c0.5-11.8-2.8-9.2-35.8-29.2c-13.1-7.9-22-22.4-27.4-38.4c-2.1-6.3-3.8-12.8-4.9-19.2C100.5,335.5,99.7,328.2,99.6,321.5z"/>
		<path class="st2" d="M155.1,603.7c-1.2,5.1-1.8,9.4-1.9,11.9c1.4,1.1,3.4,1.8,5.9,2.1h41.6c0,0-0.3-20.8-0.4-45.8
			c-9.4,0.3-17.4,0.9-22.7,2.3c-2.8,0.7-5.3,1.9-7.4,3.5c-0.9,12.7-2.5,21-5,21.6C160.8,600.2,157.5,601.8,155.1,603.7
			C155.1,603.7,155.1,603.7,155.1,603.7z"/>
		<path class="st2" d="M218.6,463.4c7.8,0.2,18.8,0.5,32.8,1.2c13.5,0.5,29.9,1.2,48.8,2.2l-0.6-4.7v-15.3H170.4
			c0.7,31.5,2.5,96.7-0.2,130.8c2.1-1.5,4.7-2.8,7.4-3.5c5.3-1.4,13.3-2,22.7-2.3c-0.2-30.9,1-68.2,1.6-80.8
			c1-22.2,2.4-27.9,2.4-27.9S209.1,463.2,218.6,463.4z"/>
		<path class="st3" d="M214.8,599.7c-18.5,5-16.4,17-4.6,18h40c0,0-0.1-20.7-0.1-45.6c-9.4-0.1-19.8-0.3-29.9-0.3
			C219.6,587.6,218,598.8,214.8,599.7z"/>
		<path class="st3" d="M218.6,463.4c0.5,17.7,3.2,73.9,1.7,108.3c10.1,0,20.4,0.2,29.9,0.3c-0.1-31.1-0.1-68.9,0-82.2
			c0.1-14.1,0.7-21.5,1.2-25.3C237.4,463.9,226.4,463.6,218.6,463.4z"/>
		<path class="st2" d="M491.8,470.4c15.9-1.2,27.6-2.6,34.2-3.5c4.2-0.5,6.4-0.9,6.4-0.9s2.9,26.6,2.5,64.4
			c-0.5,37.9-6.2,67.3-17.7,70.1c-3.5,0.8-6.4,2.6-8.4,4.8c-1,4.5-1.8,8-2.3,10.1c0.8,1,2,1.7,3.8,2c0.7,0.1,1.5,0.2,2.5,0.3h0.1
			h38.8c0.8-3.4,13.3-58.4,14.9-106.5c1.7-49.8-4.2-44.9,1.7-58.2c7.3-16.5,24.5-22.1,20.8-69.1c-3.2-40.9-22.7-52.6-23.7-88.3
			c-1.3-46.6,6.1-101.3,59.1-129.2c53-27.8,90.7-83.7,87-120.6S684.5-7.2,672.4,3.5c-10.1,9,9.1,82.5-36.5,108.3
			s-73.3,52.4-87.2,84.1c-13.9,31.6-3,60.9-43.8,55.4c-5.8-0.8-12.4-1.5-19.8-2.2c-16.9,84.2-30.3,150.7-33.1,163.2
			c-8.4,37.7-40.3,34.6-40.3,34.6H299.6v15.3l34.9,1.5l0.8,5.1c8.8,0.5,18,1.2,27.6,1.8C417.2,474.2,462,472.6,491.8,470.4z"/>
		<path class="st2" d="M299.6,462.1l0.6,4.7c10.8,0.6,22.6,1.2,35.1,2l-0.8-5.1L299.6,462.1z"/>
		<g>
			<path class="st5" d="M234.5,292.1c0.1,2.2,0,4.5-0.6,6.7c-0.6,2.2-1.6,4.5-3.3,6.3c-0.4,0.5-0.9,0.9-1.4,1.3
				c-0.5,0.4-1,0.7-1.6,1c-1.1,0.6-2.3,1.1-3.4,1.4c-2.4,0.6-4.7,0.8-7.1,0.7c-2.4-0.1-4.7-0.6-6.9-1.4c-2.2-0.8-4.4-2-6.2-3.7
				c-1.8-1.6-3.2-3.8-3.8-6.1c-0.6-2.3-0.5-4.8,0.6-6.8c-0.2,2.2,0.2,4.3,1.2,6.1c1,1.8,2.4,3.2,4,4.3c3.2,2.2,7.3,3.3,11.3,3.5
				c2,0.1,4.1,0,6-0.4c1-0.2,1.8-0.5,2.7-0.9c0.9-0.4,1.7-0.9,2.4-1.5c0.8-0.6,1.4-1.3,2-2.1c0.6-0.8,1.1-1.7,1.6-2.6
				C233.1,296.3,233.7,294.2,234.5,292.1z"/>
		</g>
		<g>
			<path class="st5" d="M175.8,292.1c0.1,2.2-0.1,4.5-0.6,6.7c-0.6,2.2-1.6,4.5-3.3,6.3c-0.4,0.5-0.9,0.9-1.4,1.3
				c-0.5,0.4-1,0.7-1.6,1c-1.1,0.6-2.2,1.1-3.4,1.4c-2.4,0.6-4.7,0.8-7.1,0.7c-2.4-0.1-4.7-0.6-6.9-1.4c-2.2-0.8-4.4-2-6.1-3.7
				c-1.8-1.6-3.2-3.7-3.9-6c-0.6-2.3-0.5-4.8,0.5-6.8c-0.2,2.2,0.3,4.3,1.3,6.1c1,1.8,2.4,3.2,4,4.3c3.3,2.3,7.3,3.3,11.3,3.5
				c2,0.1,4.1,0,6-0.4c1-0.2,1.8-0.5,2.7-0.9c0.9-0.4,1.7-0.9,2.4-1.5c0.8-0.6,1.4-1.3,2-2.1c0.6-0.8,1.1-1.7,1.6-2.6
				C174.4,296.3,175,294.2,175.8,292.1z"/>
		</g>
		<g>
			<path class="st5" d="M121.1,326.1c-3.9-0.6-7.8-1.2-11.7-1.8l-11.7-1.9c-3.9-0.7-7.8-1.1-11.6-2.1c-3.8-1-7.6-2.1-11.3-3.7
				l0.1-0.3c4,0,7.9,0.5,11.8,1.1c3.9,0.6,7.7,1.7,11.5,2.7l11.5,2.8c3.8,1,7.6,1.9,11.5,3L121.1,326.1z"/>
		</g>
		<g>
			<path class="st5" d="M117.9,343.2c-3.9,0.2-7.9,0.4-11.8,0.5l-11.8,0.4c-3.9,0.1-7.9,0.5-11.8,0.2c-3.9-0.2-7.9-0.6-11.8-1.4
				l0-0.3c3.9-0.8,7.9-1.1,11.8-1.3c3.9-0.2,7.9,0.2,11.8,0.4l11.8,0.5c3.9,0.2,7.9,0.4,11.8,0.7L117.9,343.2z"/>
		</g>
		<g>
			<path class="st5" d="M121.1,359.2c-3.8,1.1-7.6,2.1-11.4,3.1l-11.4,2.9c-3.8,1-7.6,2.2-11.5,2.8c-3.9,0.6-7.8,1.2-11.8,1.2
				l-0.1-0.3c3.7-1.6,7.4-2.8,11.3-3.8c3.8-1,7.7-1.5,11.6-2.2l11.6-2.1c3.9-0.6,7.8-1.3,11.7-1.9L121.1,359.2z"/>
		</g>
		<g>
			<path class="st5" d="M258.6,326c3.8-1,7.6-2,11.5-3l11.5-2.8c3.8-0.9,7.6-2.1,11.5-2.7c3.9-0.6,7.8-1.1,11.8-1.1l0.1,0.3
				c-3.7,1.6-7.5,2.7-11.3,3.7c-3.8,1-7.8,1.4-11.6,2.1l-11.7,1.9c-3.9,0.6-7.8,1.2-11.7,1.8L258.6,326z"/>
		</g>
		<g>
			<path class="st5" d="M261.9,343.1c3.9-0.3,7.9-0.4,11.8-0.7l11.8-0.5c3.9-0.2,7.9-0.6,11.8-0.4c3.9,0.2,7.9,0.5,11.8,1.3l0,0.3
				c-3.9,0.9-7.9,1.2-11.8,1.4c-3.9,0.2-7.9-0.1-11.8-0.2l-11.8-0.4c-3.9-0.2-7.9-0.3-11.8-0.5L261.9,343.1z"/>
		</g>
		<g>
			<path class="st5" d="M258.7,359.1c3.9,0.6,7.8,1.3,11.7,1.9l11.6,2c3.9,0.7,7.8,1.1,11.6,2.2c3.8,1,7.6,2.2,11.3,3.8l-0.1,0.3
				c-4,0-7.9-0.5-11.8-1.2c-3.9-0.6-7.7-1.8-11.5-2.8l-11.5-2.9c-3.8-1-7.6-2-11.4-3.1L258.7,359.1z"/>
		</g>
		<polyline class="st3" points="505,251.3 488.2,299.6 475,248.2 		"/>
		<polyline class="st3" points="450.8,246.9 442.5,291.7 421.3,246.9 		"/>
		<polyline class="st3" points="403.1,247.6 395.4,290.4 374.4,250 		"/>
		<polyline class="st3" points="349.2,253.4 344.6,290.4 322.8,258.4 		"/>
		<polygon class="st3" points="267.5,251.6 267.5,216.8 246,242.7 		"/>
		<polygon class="st3" points="141.1,230.6 116,206.4 119.7,239.8 		"/>
	</g>
	<path class="st2" d="M200.3,568.5v15.9h-30.1c0,0,0.2-7,0.6-15.9c0.4-8.9,23.6-5.4,23.6-5.4L200.3,568.5z"/>
	<path class="st3" d="M220.6,562.5l29.5,1.4v26.6l-31.1-2.6C219,587.8,220.5,569.7,220.6,562.5z"/>
	<polygon class="st2" points="170.6,440.8 221.6,437.6 221.6,456.4 170.6,458.3 	"/>
	<g>
		<path class="st6" d="M158.4,346.3c-17.6,1.8-13.2,18.7-6.4,23.6c9.9,7.2,39.2,2.2,54.2,0c11.3-1.6,26.6-6.5,23.2-14.8
			c-4.3-10.6-15.1-15.4-34.9-10C174.7,350.3,169.4,345.2,158.4,346.3z"/>
		<path class="st7" d="M229.8,357.6c0,0-21.4-6-29.4-3s-12.1,2.7-21,4.5s-21.9-2.4-25.2-2.7c-3.3-0.3-8.2,0.6-8.2,0.6
			s-0.3,6.6,4.5,11.5c1.4,1.4,3.5,1.9,6,3.1c10,4.3,24.8,1.8,31.6,0.7c5.3-0.8,14.3-1.4,24.3-4.2c2.9-0.8,7.3-1.5,10.1-2.8
			C229.8,362.1,229.8,357.6,229.8,357.6z"/>
	</g>
	<g>
		<path class="st6" d="M158.4,346.1c-17.6,1.8-13.2,18.7-6.4,23.6c9.9,7.2,39.2,2.2,54.2,0c11.3-1.6,26.6-6.5,23.2-14.8
			c-4.3-10.6-15.1-15.4-34.9-10C174.7,350,169.4,344.9,158.4,346.1z"/>
		<path class="st7" d="M229.8,357.4c0,0-21.4-6-29.4-3s-12.1,2.7-21,4.5c-8.9,1.8-21.9-2.4-25.2-2.7s-8.2,0.6-8.2,0.6
			s-0.3,6.6,4.5,11.5c1.4,1.4,3.5,1.9,6,3.1c10,4.3,24.8,1.8,31.6,0.7c5.3-0.8,14.3-1.4,24.3-4.2c2.9-0.8,7.3-1.5,10.1-2.8
			C229.8,361.9,229.8,357.4,229.8,357.4z"/>
	</g>
	<g>
		<g>
			<path class="st0" d="M277.9,439.3c-20.2-7.7-32-12.5-50-27.9s-22.7-47.5-44.2-44.9c-29.6,3.6-39.3,18.7-49.4,28.1
				c-8.1,7.6-20.1,13.8-17.6,21.6c4,12.7-12.5,21.8-19.2,21.1c-5.7-0.6,0.3-6.8,4.6-9.9c4.2-3.1,4.4-11.9-9.1-4.2
				c-10.5,6-8.2-1.6-4-4.8c3.9-3,5.3-6.1,2.8-8.1c-2.5-2.1-5.5,1.8-10.5,5.2c-5,3.3-5.3-4.1-0.6-7.6c4.1-3.1,14.9-10.8,20-11.2
				c5-0.4,7.2,1.7,9.3,4.3c1.4,1.7-0.3,4.1,22.8-19.4c23.1-23.5,39.5-26.5,54.4-25.9c32.1,1.4,29.8,35.8,54.6,55.5
				c8.5,6.7,27.2,15.2,40,19.6s19,14.2,23.1,21s10.9,20.5,10.9,20.5l-4.2-2l0.7,4.7l-3.2-4.1l-1,5.8l-2.7-5.6
				C305.3,470.8,296.2,446.3,277.9,439.3z"/>
		</g>
		<g>
			<path class="st8" d="M122.2,391.7c-11.7,10.3-10.9,10.6-12.2,9c-2.2-2.6-4.5-4.7-9.5-4.3c-5,0.4-16.2,8.6-20.3,11.7
				c-4.7,3.5-3.9,10.8,1.1,7.5c5-3.3,7.4-7.1,10-5.1c2.5,2.1,1.1,5.1-2.8,8.1c-4.2,3.3-6.5,10.9,4,4.8c13.5-7.7,13.3,1.1,9.1,4.2
				c-4.2,3.1-10.3,9.3-4.6,9.9c6.7,0.8,24.2-7.6,20.2-20.3c-2.4-7.8,2.8-9.8,10.9-17.4"/>
		</g>
		<path class="st1" d="M84,413.3l-2.9-6c0,0-3.2,2-3.8,5.2c-0.6,3.3,0.9,4.2,2.8,3.5C81.2,415.6,84,413.3,84,413.3z"/>
		<path class="st1" d="M93.1,423.1l-2.9-5.8c0,0-4,2.5-4.6,5.7c-0.6,3.3,1.9,3.3,2.8,2.9C89.3,425.5,93.1,423.1,93.1,423.1z"/>
		<path class="st1" d="M103.1,436.3l-3.2-7.4c0,0-4,3.1-4.6,5c-1,3.1,1,3.8,2.9,3.6C99.8,437.5,103.1,436.3,103.1,436.3z"/>
	</g>
	<polyline class="st9" points="180.2,373.6 182,365.2 187.5,372.5 	"/>
	<polyline class="st9" points="190.2,372.1 192.3,364 197.4,371.2 	"/>
	<polyline class="st9" points="196.5,344.5 195.2,353.1 189.2,346.3 	"/>
	<polyline class="st9" points="185.8,346.8 183.5,354.5 178.5,347.4 	"/>
	<polyline class="st9" points="176.6,347.4 172.8,355.3 169,346.7 	"/>
	<path class="st9" d="M175.8,374c0,0-2.1,0.1-3.8,0.2c-1.7,0-3.6,0-3.6,0l3-7.4L175.8,374"/>
	<path class="st3" d="M710.5,61.3c0,0-0.6,5.3-4.2,15.7c-0.6,1.9-3.4,8.1-3.4,8.1s-8.9-28.7-9.3-31.9c-4.5,9.7-8.5,16.6-10.5,20.5
		L679.6,50L665.8,66L668,48c0,0,0.6-34.1,2.5-40.1c4-12.6,24.3-10.8,35.1,15C714.9,45.1,710.5,61.3,710.5,61.3z"/>
</g>
<g id="Blixt_1">
	<g>
		<path class="st10" d="M53.8,397.7c-1.7,0-3.3-0.1-5-0.3c-1.6-0.1-3.3-0.3-4.9-0.5c-3.3-0.3-6.5-0.8-9.8-1.2l-1.6-0.2l0.2-1.8
			c0.2-2,0.5-3.9,0.7-5.9c0.3-2,0.6-3.9,0.9-5.9c0.6-3.9,1.3-7.8,2.1-11.7l1.1,1.9c-1.4-0.6-2.7-1.2-4.1-1.8
			c-1.4-0.6-2.7-1.3-4.1-1.9c-1.4-0.6-2.7-1.3-4-2c-1.3-0.7-2.7-1.4-4-2.2c1.5,0.3,3,0.6,4.4,1c1.4,0.4,2.9,0.7,4.4,1.1
			c1.4,0.4,2.9,0.8,4.3,1.2c1.4,0.4,2.9,0.9,4.3,1.3l1.2,0.4l-0.2,1.5c-0.4,3.9-0.9,7.9-1.5,11.8c-0.3,2-0.6,3.9-1,5.9
			c-0.3,2-0.7,3.9-1.1,5.8l-1.4-2c3.2,0.7,6.4,1.5,9.5,2.5c1.6,0.4,3.2,0.9,4.7,1.4C50.7,396.6,52.3,397.1,53.8,397.7z"/>
	</g>
</g>
<g id="Blixt_2">
	<g>
		<path class="st10" d="M0,446.9c1-3.9,2.3-7.8,3.7-11.5c0.7-1.9,1.4-3.8,2.2-5.6c0.8-1.9,1.5-3.7,2.3-5.5l0.7-1.6l2,0.1
			c2.2,0.1,4.4,0.3,6.6,0.5c2.2,0.2,4.4,0.4,6.5,0.7c2.2,0.3,4.4,0.5,6.5,0.8c2.2,0.3,4.3,0.6,6.5,1l-2.5,1.1c2.3-3,4.7-6,7.1-8.9
			c1.2-1.4,2.5-2.9,3.8-4.3c1.3-1.4,2.6-2.8,4-4.1c-0.7,1.8-1.5,3.5-2.4,5.3c-0.8,1.7-1.7,3.4-2.6,5.1c-1.8,3.4-3.7,6.7-5.6,9.9
			l-0.7,1.2l-1.7-0.1c-2.2-0.1-4.4-0.3-6.6-0.5c-2.2-0.2-4.4-0.4-6.5-0.6c-2.2-0.3-4.4-0.5-6.5-0.8c-2.2-0.3-4.3-0.6-6.5-1l2.7-1.5
			c-1,1.7-2,3.5-3,5.2c-1,1.7-2.1,3.4-3.1,5.1C4.8,440.3,2.5,443.7,0,446.9z"/>
	</g>
</g>
<g id="Blixt_3">
	<g>
		<path class="st10" d="M68.9,448.4c-0.3,1.6-0.7,3.2-1.1,4.8c-0.4,1.6-0.8,3.2-1.3,4.8c-0.9,3.2-1.9,6.3-2.9,9.4L63,469l-1.7-0.5
			c-1.9-0.6-3.8-1.1-5.7-1.8c-1.9-0.6-3.8-1.2-5.6-1.9c-3.7-1.3-7.5-2.6-11.2-4.1l2-0.8c-0.8,1.2-1.6,2.5-2.5,3.7
			c-0.8,1.2-1.7,2.5-2.6,3.7c-0.9,1.2-1.8,2.4-2.7,3.6c-0.9,1.2-1.8,2.4-2.8,3.5c0.5-1.4,1.1-2.8,1.7-4.2c0.6-1.4,1.2-2.7,1.9-4.1
			c0.7-1.3,1.3-2.7,2-4c0.7-1.3,1.4-2.7,2-4l0.6-1.2l1.4,0.4c3.8,1.1,7.6,2.3,11.3,3.6c1.9,0.6,3.7,1.3,5.6,2
			c1.9,0.7,3.7,1.4,5.6,2.1l-2.2,1.1c1.3-3,2.6-6,4.1-9c0.7-1.5,1.5-3,2.2-4.4C67.3,451.3,68,449.9,68.9,448.4z"/>
	</g>
</g>
<g id="Blixt_4">
	<g>
		<path class="st10" d="M101.4,446.3c2.5,3.2,4.8,6.5,7,9.9c1.1,1.7,2.2,3.4,3.2,5.1c1,1.7,2,3.4,3,5.2l0.9,1.5l-1.3,1.5
			c-1.4,1.7-2.9,3.3-4.3,5c-1.5,1.6-3,3.2-4.4,4.9c-1.5,1.6-3,3.2-4.6,4.7c-1.5,1.6-3.1,3.1-4.7,4.6l0.6-2.7c1,3.6,2,7.3,2.8,11
			c0.4,1.9,0.8,3.7,1.2,5.6c0.3,1.9,0.7,3.8,0.9,5.7c-1-1.7-1.9-3.3-2.8-5c-0.9-1.7-1.7-3.4-2.5-5.1c-1.6-3.4-3.1-6.9-4.6-10.4
			l-0.5-1.3l1.1-1.3c1.4-1.7,2.8-3.3,4.3-5c1.5-1.6,2.9-3.3,4.4-4.9c1.5-1.6,3-3.2,4.5-4.8c1.5-1.6,3.1-3.1,4.7-4.7l-0.4,3.1
			c-0.8-1.8-1.6-3.7-2.4-5.5c-0.8-1.9-1.5-3.7-2.2-5.6C103.8,454,102.4,450.2,101.4,446.3z"/>
	</g>
</g>
</svg>
