<svg xmlns="http://www.w3.org/2000/svg" viewBox="0 0 245.26 202.54"><defs><style>.a{fill:#281710;}</style></defs><path class="a" d="M89.84,178.89" transform="translate(-27.87 -48.73)"/><path class="a" d="M109.22,147.09a7.62,7.62,0,0,0-1.19.14c-.52.1-1,.18-1.57.24a9,9,0,0,1-1.41.07c-.41,0-.64-.14-.7-.36s0-.2.15-.32a3.37,3.37,0,0,1,.47-.35c.2-.11.4-.22.61-.32l.55-.27.73-.31,1.08-.39,1.1-.38q.54-.18.81-.3l2.24-5.55a6,6,0,0,1,.75-1.58,1.25,1.25,0,0,1,.82-.49,7.53,7.53,0,0,0,1.36-.28,5.19,5.19,0,0,1,1.31-.23,1.17,1.17,0,0,1,.9.23.89.89,0,0,1,.19.87q-.08.33-.33,1.11l-.58,1.67-.6,1.7c-.19.54-.32.93-.39,1.19l1.41-.28c.39-.07.76-.16,1.11-.25a3.24,3.24,0,0,1,1.45-.2,1.07,1.07,0,0,1,1,.91,1.13,1.13,0,0,1-.12.75,1.36,1.36,0,0,1-.5.48,2.17,2.17,0,0,1-.67.26l-.64.17-3.6.89c-.93,3.22-1.75,6.29-2.44,9.21s-1.26,5.88-1.67,8.87a4.94,4.94,0,0,0,0,.76,4.38,4.38,0,0,0,.15.8.85.85,0,0,0,.32.48c.14.08.34,0,.59-.22q2-1.47,4-3.17a46.71,46.71,0,0,0,3.84-3.6,42.11,42.11,0,0,0,3.33-3.94,24.28,24.28,0,0,0,2.5-4.16c.06-.15.12-.28.18-.4a2.8,2.8,0,0,1,.24-.36.32.32,0,0,1,.21-.08.86.86,0,0,1,.23,0,.55.55,0,0,1,.4.36,2.71,2.71,0,0,0,0,.47,1.48,1.48,0,0,1-.05.41,21,21,0,0,1-1.88,4,36.16,36.16,0,0,1-3,4.31,43.83,43.83,0,0,1-3.91,4.23,36.24,36.24,0,0,1-4.59,3.74c-2,1.32-3.74,1.79-5.18,1.41s-2.36-1.71-2.8-4a9.78,9.78,0,0,1,.19-2.72c.21-1.32.51-2.85.9-4.57s.82-3.53,1.3-5.42S108.77,148.69,109.22,147.09Z" transform="translate(-27.87 -48.73)"/><path class="a" d="M163.29,135.41a6.88,6.88,0,0,0-1.18.11c-.53.09-1.05.15-1.58.2a8.54,8.54,0,0,1-1.41,0c-.41,0-.64-.15-.69-.38s0-.2.16-.31a2.84,2.84,0,0,1,.48-.33c.2-.11.4-.22.61-.32l.56-.25.74-.29,1.08-.36,1.12-.35c.36-.11.63-.21.82-.28l2.38-5.49a6.35,6.35,0,0,1,.79-1.56,1.23,1.23,0,0,1,.84-.46,8,8,0,0,0,1.36-.25,5,5,0,0,1,1.32-.2,1.17,1.17,0,0,1,.9.26.94.94,0,0,1,.16.88c-.05.21-.17.57-.36,1.09l-.62,1.65c-.23.59-.44,1.15-.64,1.69s-.35.93-.43,1.18l1.42-.24c.39-.07.76-.14,1.11-.22a3.31,3.31,0,0,1,1.46-.17,1.07,1.07,0,0,1,1,1,1.12,1.12,0,0,1-.14.74,1.31,1.31,0,0,1-.5.46,2.31,2.31,0,0,1-.68.25l-.65.15-3.62.79c-1,3.2-1.91,6.25-2.69,9.15s-1.41,5.84-1.9,8.82a4.77,4.77,0,0,0,0,.76,3.13,3.13,0,0,0,.12.8.87.87,0,0,0,.31.49c.14.09.34,0,.59-.2,1.38-.95,2.75-2,4.13-3.07a46.63,46.63,0,0,0,3.93-3.49,40.94,40.94,0,0,0,3.43-3.85,23.86,23.86,0,0,0,2.61-4.09l.19-.4a3,3,0,0,1,.25-.36.38.38,0,0,1,.21-.07.88.88,0,0,1,.24,0,.52.52,0,0,1,.38.37,4.57,4.57,0,0,0,0,.46,1.52,1.52,0,0,1-.06.42,20.76,20.76,0,0,1-2,3.93,36.83,36.83,0,0,1-3.13,4.24,45.79,45.79,0,0,1-4,4.12,37.11,37.11,0,0,1-4.69,3.62q-3.08,1.89-5.2,1.27t-2.7-4.08a9.41,9.41,0,0,1,.26-2.71c.25-1.32.59-2.84,1-4.55s.91-3.51,1.44-5.38S162.8,137,163.29,135.41Z" transform="translate(-27.87 -48.73)"/><path class="a" d="M99.21,162.29a6.8,6.8,0,0,0,2.52-.77,11.55,11.55,0,0,0,2.32-1.62,15.81,15.81,0,0,0,2-2.12,11.5,11.5,0,0,0,1.43-2.31,1.78,1.78,0,0,1,1-.46c.34,0,.52.1.53.4-.28.63-.71,1.47-1.28,2.49a18.22,18.22,0,0,1-2.15,3,13.76,13.76,0,0,1-3,2.61,8,8,0,0,1-3.89,1.26,19.12,19.12,0,0,1-3,4.92A12.07,12.07,0,0,1,91,173.2a7,7,0,0,1-2.49.56,5,5,0,0,1-2.41-.49,5.77,5.77,0,0,1-2.08-1.7,9.1,9.1,0,0,1-1.5-3.14,10.33,10.33,0,0,1-.09-4.75,16.4,16.4,0,0,1,1.9-5.05,15.66,15.66,0,0,1,3.61-4.24A11.08,11.08,0,0,1,93,152a5.49,5.49,0,0,1,3.93.46A6,6,0,0,1,99.31,155a7.7,7.7,0,0,1,.82,3.58A7.88,7.88,0,0,1,99.21,162.29Zm-1.82-.2a11.39,11.39,0,0,0,.79-2.93,5.29,5.29,0,0,0-.43-2.75,2,2,0,0,0-1.4-1.18,2.48,2.48,0,0,0-1.82.22,10.51,10.51,0,0,0-2.94,2.38,18.07,18.07,0,0,0-2.49,3.61,16.24,16.24,0,0,0-1.51,4.1,8,8,0,0,0,0,3.83,2.65,2.65,0,0,0,.69,1.16,1.92,1.92,0,0,0,1,.49,3.13,3.13,0,0,0,1.1,0,3.49,3.49,0,0,0,1.07-.37,5.86,5.86,0,0,0,1.33-1A13.08,13.08,0,0,0,94.24,168a21.22,21.22,0,0,0,1.24-1.84,6.26,6.26,0,0,0,.71-1.55,6.92,6.92,0,0,1-1.75-.38,3.77,3.77,0,0,1-1.32-.77,1.36,1.36,0,0,1-.51-.95,1.25,1.25,0,0,1,.61-1C93.92,161,95.31,161.22,97.39,162.09Z" transform="translate(-27.87 -48.73)"/><path class="a" d="M204.82,129.47a22.44,22.44,0,0,1-1.6,5.88,36.73,36.73,0,0,1-3.13,6.08,30,30,0,0,1-4,5,9.8,9.8,0,0,1-4.15,2.69,2.5,2.5,0,0,1-1.68.18,3.61,3.61,0,0,1-1.5-.78,6.36,6.36,0,0,1-1.21-1.4,6.44,6.44,0,0,1-.78-1.61c-.61.73-1.18,1.46-1.72,2.19s-1.08,1.43-1.63,2.11a4.9,4.9,0,0,1-1.94,1.4,3.73,3.73,0,0,1-2.5,0,4.94,4.94,0,0,1-3.81-3.57,9.77,9.77,0,0,1-.23-3.07,20,20,0,0,1,.58-3.58c.32-1.24.71-2.52,1.17-3.82s.94-2.62,1.44-3.93a2.06,2.06,0,0,1,1.88-1.55,6.42,6.42,0,0,0,1.11-.28,5.31,5.31,0,0,1,1.23-.26,1.73,1.73,0,0,1,1,.19c.25.15.34.51.27,1.07-.37,1.13-.74,2.2-1.14,3.2s-.76,2-1.1,3a25.28,25.28,0,0,0-.83,3.25,25.6,25.6,0,0,0-.38,3.85,4.54,4.54,0,0,0,.16,1,3.06,3.06,0,0,0,.37.93.62.62,0,0,0,.55.37c.21,0,.44-.19.66-.57a26.51,26.51,0,0,0,4.06-5.76c.19-.81.41-1.57.66-2.3s.49-1.47.74-2.21.49-1.55.74-2.4.49-1.8.7-2.82a3.62,3.62,0,0,1,.82-1.75,4.1,4.1,0,0,1,2.42-.79c.7-.07,1.25-.11,1.64-.12a1,1,0,0,1,.79.23,1.11,1.11,0,0,1,.08.87,12.07,12.07,0,0,1-.51,1.8c-.25,1.15-.58,2.4-1,3.76s-.73,2.67-1,3.95a17.56,17.56,0,0,0-.42,3.45,2.93,2.93,0,0,0,.69,2.22c.42.22,1.12-.11,2.1-1A22.4,22.4,0,0,0,197.6,141a48.64,48.64,0,0,0,3.35-5.45,36.2,36.2,0,0,0,2.64-6.25l.85-.38C204.65,128.83,204.78,129,204.82,129.47Z" transform="translate(-27.87 -48.73)"/><path class="a" d="M215.49,143.56a6.6,6.6,0,0,1,3,.24,5.43,5.43,0,0,1,2.64,1.7c-.07.22-.16.32-.28.31a1.81,1.81,0,0,1-.35-.07,7.58,7.58,0,0,0-2.72-.54,15.77,15.77,0,0,0-2.62.29c-.38,2-.8,4-1.27,5.95a57.61,57.61,0,0,1-1.63,5.68,30,30,0,0,1-2.16,4.88,11.63,11.63,0,0,1-2.85,3.5,5,5,0,0,1-1.94,1,4.86,4.86,0,0,1-2.13.15,3.65,3.65,0,0,1-1.81-.81,3.11,3.11,0,0,1-1-1.9,9.49,9.49,0,0,1,.41-4.7,28.41,28.41,0,0,1,1.9-4.3,32.79,32.79,0,0,1,3.44-5.07,53.42,53.42,0,0,1,4.13-4.46,19.37,19.37,0,0,0,.65-2q.3-1.16.54-2.37c.16-.8.29-1.59.4-2.34s.21-1.41.32-1.95c.12-.14.08,0-.14.4s-.54.95-1,1.64-1,1.48-1.61,2.36-1.27,1.75-1.94,2.59a27.75,27.75,0,0,1-2.05,2.32,8.35,8.35,0,0,1-1.91,1.52,4.66,4.66,0,0,1-2.14.6,4.16,4.16,0,0,1-1.92-.4,3.85,3.85,0,0,1-1.42-1.16,3.51,3.51,0,0,1-.68-1.67,15.76,15.76,0,0,1,.35-5.39,26.93,26.93,0,0,1,2-5.69,31,31,0,0,1,3.08-5.14,19.23,19.23,0,0,1,3.65-3.79,10,10,0,0,1,3.08-1.69,5.78,5.78,0,0,1,1.89-.43,2.91,2.91,0,0,1,2.23.69,2.35,2.35,0,0,1,.76,1.08,1.88,1.88,0,0,1,0,1.26,4.08,4.08,0,0,1-.47.8c-.19.26-.38.51-.58.74a.21.21,0,0,1-.2.11.94.94,0,0,0-.31,0,1.2,1.2,0,0,1,0-.62l.12-.59c0-.2.08-.39.1-.59a1,1,0,0,0-.16-.63,1.69,1.69,0,0,0-1,.09,2.25,2.25,0,0,0-.77.54,19.45,19.45,0,0,0-3,3.32,32,32,0,0,0-2.48,4.05,36.77,36.77,0,0,0-1.89,4.34,42.64,42.64,0,0,0-1.29,4.24c0,.14-.06.38-.11.71a5.63,5.63,0,0,0-.05,1,1.62,1.62,0,0,0,.22.8q.19.3.69.09a5.47,5.47,0,0,0,1.6-1.19c.48-.52.92-1,1.31-1.52.54-.77,1.1-1.6,1.67-2.5s1.13-1.81,1.69-2.74l1.66-2.76c.55-.91,1.11-1.75,1.68-2.53.24-.34.47-.69.7-1.05s.47-.71.74-1.06a5.74,5.74,0,0,1,.73-.75,1,1,0,0,1,1-.18,1.1,1.1,0,0,1,.78.72,4.12,4.12,0,0,1,.17,1.06c0,.75,0,1.49,0,2.23s-.05,1.5-.12,2.27c-.16,1.26-.34,2.58-.54,4S215.75,141.42,215.49,143.56Zm-5.58,5.09a25.42,25.42,0,0,0-6.23,8.93c-.41,1.07-.78,2-1.09,3a6.41,6.41,0,0,0-.34,2.78,1.17,1.17,0,0,0,.66,1.17,1.44,1.44,0,0,0,1.38-.12,4.55,4.55,0,0,0,1.47-1.89,31.65,31.65,0,0,0,1.43-3.37c.45-1.27.87-2.59,1.26-4s.71-2.61,1-3.68.42-1.89.52-2.46S210,148.31,209.91,148.65Z" transform="translate(-27.87 -48.73)"/><path class="a" d="M231.66,122.17a3.75,3.75,0,0,1,.5-.71,5.7,5.7,0,0,0,.52-.67,3.6,3.6,0,0,0,.39-.72,1.68,1.68,0,0,0,.06-.91c-.14-.2-.35-.19-.62,0a7.38,7.38,0,0,0-.91.84,9.3,9.3,0,0,0-.94,1.16q-.45.63-.69,1A76.24,76.24,0,0,0,226.1,129,21.09,21.09,0,0,0,224,136.2a.82.82,0,0,0,.06.6.79.79,0,0,0,.32.31.53.53,0,0,0,.44,0,1.27,1.27,0,0,0,.43-.34l1.58-2.14a22.52,22.52,0,0,0,1.46-2.19c.94-1.46,1.83-2.94,2.67-4.42s1.71-3,2.61-4.45a6.51,6.51,0,0,1,1.34-1.94,3.32,3.32,0,0,1,2.2-.89,1.54,1.54,0,0,1,1.1.36,1.22,1.22,0,0,1,.33.83,3.2,3.2,0,0,1-.12,1c-.09.37-.16.68-.2.94a21,21,0,0,1-.52,2c-.21.67-.39,1.34-.53,2a15.55,15.55,0,0,0-.29,2A6.09,6.09,0,0,0,237,132c.08.32.22.5.41.54a.83.83,0,0,0,.56-.11,2.17,2.17,0,0,0,.55-.43,3.46,3.46,0,0,0,.4-.49,46.06,46.06,0,0,0,4.17-7,56.06,56.06,0,0,0,3-7.82,5.36,5.36,0,0,1,1.27-.26c.31,0,.41.15.28.48q-.61,2.32-1.55,5a47.69,47.69,0,0,1-2.19,5.3,39.45,39.45,0,0,1-2.79,4.86,15.34,15.34,0,0,1-3.43,3.7,4.38,4.38,0,0,1-2.6,1,2.84,2.84,0,0,1-2-.78,5,5,0,0,1-1.24-2,9.44,9.44,0,0,1-.51-2.74,29.69,29.69,0,0,1-1.52,2.8,35.68,35.68,0,0,1-2.11,3.08,21,21,0,0,1-2.35,2.63,5.71,5.71,0,0,1-2.27,1.41,3.3,3.3,0,0,1-2.95-.21,3.39,3.39,0,0,1-1.6-2.44,14.44,14.44,0,0,1,0-3.72,18.52,18.52,0,0,1,.88-3.56,30.48,30.48,0,0,1,6.14-10.09,14.68,14.68,0,0,1,3.71-2.94,12.18,12.18,0,0,1,1.58-.65,5.9,5.9,0,0,1,1.76-.31,2.19,2.19,0,0,1,1.75.7,1.8,1.8,0,0,1,.3,1.76A4.18,4.18,0,0,1,233,122a1.4,1.4,0,0,1-.7.26A3.92,3.92,0,0,1,231.66,122.17Z" transform="translate(-27.87 -48.73)"/><path class="a" d="M249.62,121.39c.48-.53,1.11-1.27,1.88-2.25s1.59-2,2.48-2.94a26.25,26.25,0,0,1,2.68-2.62,5.28,5.28,0,0,1,2.49-1.29,4.17,4.17,0,0,1,2.6.4,2.5,2.5,0,0,1,1.45,1.94,4.28,4.28,0,0,1-.2,1.73c-.2.72-.46,1.53-.78,2.41s-.65,1.81-1,2.78-.69,1.89-1,2.77a15,15,0,0,0-.6,2.4,3.14,3.14,0,0,0,.05,1.63c.2.26.58.16,1.15-.29a18.65,18.65,0,0,0,2-2c.79-.88,1.63-1.91,2.52-3.1s1.74-2.4,2.55-3.62,1.54-2.4,2.18-3.54a15.13,15.13,0,0,0,1.35-2.9.46.46,0,0,1,.37-.27,2,2,0,0,1,.59,0,1.25,1.25,0,0,1,.53.2c.14.11.19.21.15.32a22.27,22.27,0,0,1-1.53,3.53q-1.06,2.06-2.44,4.21T266.33,125a39,39,0,0,1-2.61,3.25,13,13,0,0,1-2.89,2.36,8.72,8.72,0,0,1-3.32,1.24,2.48,2.48,0,0,1-1.67-.29,3.34,3.34,0,0,1-1.09-1.12,4.07,4.07,0,0,1-.56-1.49,5.53,5.53,0,0,1-.08-1.43,8.86,8.86,0,0,1,.37-1.88c.2-.71.47-1.54.81-2.48s.72-2,1.14-3.24.89-2.62,1.39-4.23c-.16-.1-.42,0-.78.23a7.85,7.85,0,0,0-1.2,1.07c-.43.46-.89,1-1.36,1.54s-.92,1.11-1.34,1.63l-1.08,1.37c-.29.4-.48.65-.55.77-.43.61-.86,1.23-1.29,1.88s-.85,1.26-1.28,1.87a17.34,17.34,0,0,0-.9,2c-.28.71-.53,1.4-.78,2.09s-.48,1.31-.72,1.89a6.74,6.74,0,0,1-.82,1.49,4.28,4.28,0,0,1-1.32,1.07,4.24,4.24,0,0,1-1.74.59,1.65,1.65,0,0,1-1.36-.42c-.35-.32-.4-1-.16-1.94.76-2.55,1.42-5.1,2-7.68a50.16,50.16,0,0,1,2.1-7,4.55,4.55,0,0,1,1.64-2.09,5.91,5.91,0,0,1,2.76-1,1.15,1.15,0,0,1,1,.34,1.49,1.49,0,0,1,.37.93c0,.17-.09.48-.17.93s-.19.92-.32,1.44-.27,1-.42,1.52S249.75,121.08,249.62,121.39Z" transform="translate(-27.87 -48.73)"/><path class="a" d="M145.18,135.86c.31.47,1.58,2,1.58,2a2.12,2.12,0,0,0,1.31.73,1.46,1.46,0,0,0,1.29-.45,12.25,12.25,0,0,0,4.49-6.43,24,24,0,0,0,.92-7.76c-.09-.56-.17-1.11-.26-1.66s-.16-1.09-.23-1.58a5.77,5.77,0,0,0-3-3.72,6,6,0,0,0-4.88.06,19.27,19.27,0,0,0-2.46,1.36,9,9,0,0,0-2,1.88,20.38,20.38,0,0,0-3.81,6.4,25,25,0,0,0-1.46,7.15,14.15,14.15,0,0,0,.74,5.88,18.55,18.55,0,0,0,2.94,5.23c1.29,1.78,2.61,3.51,4,5.21s2.81,3.37,4.38,5a34,34,0,0,1,9.26,19.8,22.29,22.29,0,0,1-.46,7.69,29.07,29.07,0,0,1-8,14.31,21.71,21.71,0,0,1-6.91,4.62,26.51,26.51,0,0,1-6.64,1.83,19.7,19.7,0,0,1-6.77-.24,17.72,17.72,0,0,1-6.4-2.83,19.69,19.69,0,0,1-5.52-6.06,21.43,21.43,0,0,1-3.75-11.77,30,30,0,0,1,2.64-12,10.66,10.66,0,0,1,2.61-3.83,16,16,0,0,1,4-2.71,10.76,10.76,0,0,1,6.72-.73,9.36,9.36,0,0,1,5.74,3.49,13.06,13.06,0,0,1,3.11,8.18,19.2,19.2,0,0,1-1.54,8.06,26.89,26.89,0,0,1-4.43,6.94.93.93,0,0,1-.35.25c-.12.06-.66.06-.6-.17s.74-1.86,1-2.74a26.44,26.44,0,0,0,1.92-8.1,13.83,13.83,0,0,0-.84-7.13l-.47-1.19q-1.85-3.69-5.05-4.24a6.73,6.73,0,0,0-6,2.23c-.51.52-1,1-1.36,1.51a5.53,5.53,0,0,0-.93,1.64,21.92,21.92,0,0,0-1.37,16.23,16.52,16.52,0,0,0,3,5.78,12.83,12.83,0,0,0,4.48,3.54,12.45,12.45,0,0,0,5.45,1.14,15,15,0,0,0,6.09-1.46,17.23,17.23,0,0,0,8.74-8.09,20.18,20.18,0,0,0,1.66-11.88,26.54,26.54,0,0,0-5.38-12.7c-1.62-2.11-3.25-4.23-4.91-6.36s-3.32-4.26-5-6.41c-1-1.32-1.89-2.64-2.74-4a19,19,0,0,1-2.52-13.66A27.38,27.38,0,0,1,139.46,116a19.23,19.23,0,0,1,4.35-2,12.89,12.89,0,0,1,5-.56,9.52,9.52,0,0,1,5.15,1.76,8.86,8.86,0,0,1,3.11,4.31,20.07,20.07,0,0,1,.86,7.41,24.9,24.9,0,0,1-.53,4.28A18.05,18.05,0,0,1,156,135.3a14.18,14.18,0,0,1-2.43,3.56,9.41,9.41,0,0,1-3.4,2.32,4.21,4.21,0,0,1-3.57,0,4.09,4.09,0,0,1-2.26-2.64C143.86,137.14,144.66,135.09,145.18,135.86Z" transform="translate(-27.87 -48.73)"/><path class="a" d="M33.45,190.29c.11.87.41,4.69.41,4.69a13.08,13.08,0,0,0,.56,2.87,6.41,6.41,0,0,0,.92,2.07,3.92,3.92,0,0,0,1.7,1.14,8.44,8.44,0,0,0,5.48-1,16.1,16.1,0,0,0,4.5-4,32.16,32.16,0,0,0,3.69-5.92c1.11-2.25,5-12.48,5.87-14.9s1.66-4.8,2.34-7.14,1.29-4.43,1.82-6.29c0-.09,0-.16,0-.21a.15.15,0,0,0-.16,0c-.88.42-1.73.85-2.54,1.26l-2.55,1.26a10.09,10.09,0,0,0-2.4,1.45c-.71.59-2.65,1.65-2.79,1.22a1.3,1.3,0,0,1,.15-1.43,7.09,7.09,0,0,1,.64-1,22.58,22.58,0,0,1,3.2-3.92A31.35,31.35,0,0,1,58,157.25c.59-.42,1.22-.82,1.87-1.2s1.27-.75,1.88-1.12c.21-.14.4-.28.57-.41a.93.93,0,0,0,.32-.58c.47-2.14,1-4.49,1.63-7s1.12-4.95,1.52-7.22a48.26,48.26,0,0,0-9.3,0,47.41,47.41,0,0,0-9.81,2,31.87,31.87,0,0,0-8.59,4.17,15.75,15.75,0,0,0-5.59,6.76,23.84,23.84,0,0,0-1.16,2.87,10.86,10.86,0,0,0-.6,3.38,4.54,4.54,0,0,0,.76,2.76c.52.75,1.55,1.08,3.09,1a3.44,3.44,0,0,0,2.1-1.13A15.65,15.65,0,0,0,38.8,159a23,23,0,0,0,1.66-2.87,21,21,0,0,1,.91-2.12,1,1,0,0,1,.64.63,10.53,10.53,0,0,1,0,1.26,19,19,0,0,1-.78,2.93,14.47,14.47,0,0,1-1.36,2.95,10,10,0,0,1-2,2.34,7.42,7.42,0,0,1-2.79,1.5,5.18,5.18,0,0,1-1.9.18,4.43,4.43,0,0,1-2.05-.89,7.52,7.52,0,0,1-2.5-3.71,17,17,0,0,1-.79-4.84,22.89,22.89,0,0,1,.43-4.91,16.12,16.12,0,0,1,1.26-4,27.58,27.58,0,0,1,6.19-8.13,22.44,22.44,0,0,1,8.51-4.67,49,49,0,0,1,11.05-2c3.56-.2,7.16-.35,10.79-.43L71,132c1.78-.13,3.93-.18,6-.38s5-.52,7-.78a125.24,125.24,0,0,0,19.39-4,24.8,24.8,0,0,0,7.52-4.12.81.81,0,0,1,.24.36,2.28,2.28,0,0,1,.13.64,2,2,0,0,1-.15.78c-.15.42-.32.85-.5,1.27s-.36.86-.57,1.29a17.6,17.6,0,0,1-2.28,3.25,10.19,10.19,0,0,1-2.83,2.55A24.75,24.75,0,0,1,99.2,135L85,137.55c-.42.09-4.88.69-5.64.75s-2.75.29-3.93.39c-.87.06-1.1.13-1.87.19a16.27,16.27,0,0,0-1.78.23q-.24,3-.72,6.69t-.7,6.75c.73,0,1.4,0,2,0s1.23,0,1.86,0a11,11,0,0,1,3.52.43,25.06,25.06,0,0,1,3.56,1.3,2.77,2.77,0,0,1,1.1.72,1.69,1.69,0,0,1,.84,1.39,1.14,1.14,0,0,1-.83,1.09,6.39,6.39,0,0,1-1.19.43,4,4,0,0,1-1.4.11l-4.69.11a21.21,21.21,0,0,0-4.59.59,2,2,0,0,0-1.59,1.8,83.81,83.81,0,0,1-3.38,12.13c-1.39,3.83-5.82,15.48-7.53,19.2a44.16,44.16,0,0,1-3.1,5.58,23.8,23.8,0,0,1-4.14,4.81,16.87,16.87,0,0,1-5.26,3.14,13,13,0,0,1-6.45.59,4.61,4.61,0,0,1-1.46-.32c-.42-.18-.85-.34-1.27-.5a7.83,7.83,0,0,1-3.09-2.71,10.8,10.8,0,0,1-1.54-4.06,15.91,15.91,0,0,1,.12-5.54C32.16,191.52,33.36,189.58,33.45,190.29Z" transform="translate(-27.87 -48.73)"/><path class="a" d="M110.83,79.35l1.29-1,.28-.16c.66-.27,1-.4,1.66-.65l.28.53c-1.29.68-1.94,1-3.2,1.79Zm-.09-10.71,1-.49a99.58,99.58,0,0,1,7.75,7.46c-.54.23-.81.35-1.34.6-2.65-2.7-4-4-6.92-6.53l.36-.19c.32,3.83.55,5.73,1.15,9.47l-.65.37A101.65,101.65,0,0,1,110.74,68.64Zm1,6.34c1.59-.87,2.39-1.27,4-2l.53.51c-1.81.84-2.7,1.29-4.46,2.25C111.83,75.41,111.81,75.27,111.78,75Zm4.39,1.49c.69-.44,1-.65,1.73-1.07l.29-.13,1.9-.59.23.55c-1.57.66-2.35,1-3.88,1.77Z" transform="translate(-27.87 -48.73)"/><path class="a" d="M120.67,74.44c.58-.34.87-.5,1.46-.83l.3-.11c.71-.18,1.07-.27,1.79-.43l.2.56c-1.42.51-2.13.78-3.52,1.36Zm-2.37-8.65,1.15-.06c-.82.22-1.23.33-2,.57l-.22-.55c1-.4,1.48-.6,2.47-1a65.58,65.58,0,0,1,9.28,5.87l.43,1.51-.48.14A66,66,0,0,0,118.3,65.79Zm.2-.57,1,.24,3.34,8.74-.73.29C120.68,70.78,120,68.93,118.5,65.22Zm5.5-1.95c1.62-.51,2.43-.75,4.06-1.18l.16.57-1.63.68-.33.1c-.83.15-1.25.23-2.08.4Zm1.77-.54.85-.25c1.1,3.88,1.64,5.81,2.74,9.68l-1-.49C127.35,68.09,126.82,66.3,125.77,62.73Z" transform="translate(-27.87 -48.73)"/><path class="a" d="M131.67,70.83l1.55-.6.31-.06,1.81-.15.12.58c-1.47.29-2.2.45-3.65.81Zm-1.06-8.9,1.13.11c-.83.09-1.25.14-2.09.26l-.14-.58c1-.25,1.54-.37,2.57-.59a66.93,66.93,0,0,1,8.24,7.2l.2,1.56L140,70A67.78,67.78,0,0,0,130.61,61.93Zm.27-.53,1,.39,2,9.14-.76.17Zm5.68-1.11c1.66-.26,2.49-.37,4.16-.56l.07.59-1.7.43-.34,0c-.84,0-1.26,0-2.1.08Zm1.82-.27.87-.11c.51,4,.76,6,1.27,10l-.87-.64C139.14,65.56,138.89,63.72,138.38,60Z" transform="translate(-27.87 -48.73)"/><path class="a" d="M152.43,64.22a5.1,5.1,0,0,1-4.84,5.22,5,5,0,0,1-5.21-4.87A5,5,0,0,1,147.23,59,4.87,4.87,0,0,1,152.43,64.22Zm-4.87,4.47c2.2-.07,3.13-2.27,3.14-4.5s-1-4.49-3.44-4.41-3.32,2.42-3.16,4.64S145.37,68.77,147.56,68.69Z" transform="translate(-27.87 -48.73)"/><path class="a" d="M153.69,68.4a1.1,1.1,0,1,1,1,1.09A1.07,1.07,0,0,1,153.69,68.4Z" transform="translate(-27.87 -48.73)"/><path class="a" d="M161.54,69c.93-.64,1.88-1.3,2.69-1.84,1.86-1.25,2.87-2.29,3.1-3.42a1.88,1.88,0,0,0-1.65-2.35,4.74,4.74,0,0,0-1.8,0l1-.37-.62,1.22c-.34.67-.65.9-1.12.83a1,1,0,0,1-.77-.6c.41-1.51,2.06-2,3.78-1.69,2.2.41,2.93,1.67,2.6,3.12-.28,1.26-1.26,2-4.09,3.78l-2.35,1.49c0-.13-.08-.2-.14-.33,2.29.36,3.42.58,5.68,1.1l-.27,1.16c-2.47-.57-3.72-.81-6.22-1.18Z" transform="translate(-27.87 -48.73)"/><path class="a" d="M176.62,68.77c-1.19,3.48-3.13,4.19-4.68,3.73s-2.83-2.11-1.93-5.69,3-4.43,4.76-3.9S177.82,65.27,176.62,68.77Zm-4.5,3.09c.92.27,2-.29,3.1-3.56s.38-4.45-.64-4.75-2.24.26-3.15,3.63S171.18,71.58,172.12,71.86Z" transform="translate(-27.87 -48.73)"/><path class="a" d="M176.71,72.86c1.06-.44,2.13-.89,3-1.25,2.1-.84,3.3-1.65,3.76-2.72a1.89,1.89,0,0,0-1.18-2.65,5.11,5.11,0,0,0-1.78-.34l1.11-.15-.87,1.07c-.47.58-.82.75-1.27.58a1,1,0,0,1-.64-.74c.71-1.41,2.44-1.55,4.08-.88,2.11.86,2.58,2.24,2,3.59-.54,1.18-1.67,1.74-4.82,2.87-.66.24-1.63.59-2.62,1,0-.14,0-.21-.07-.35,2.19.82,3.27,1.27,5.42,2.25l-.5,1.08c-2.35-1.07-3.54-1.56-5.94-2.43Z" transform="translate(-27.87 -48.73)"/><path class="a" d="M191.76,75.74c-1.87,3.18-3.95,3.45-5.4,2.67s-2.4-2.66-.8-6,3.83-3.73,5.51-2.84S193.65,72.56,191.76,75.74Zm-5.09,2.08c.86.46,2.09.15,3.78-2.83s1.26-4.29.31-4.81-2.29-.21-3.86,2.91S185.78,77.35,186.67,77.82Z" transform="translate(-27.87 -48.73)"/><path class="a" d="M271.71,134.31a7.81,7.81,0,0,1-3.4,2.09c-.61.1-23.34,5.32-52.44,12.06l-.68,2.73c30.42-7,52.52-12.08,52.52-12.08s3-.77,3.5-1.78A4.53,4.53,0,0,0,271.71,134.31Z" transform="translate(-27.87 -48.73)"/><path class="a" d="M155.28,162.52l1.2,2.23c15.81-3.65,29.65-6.82,44.72-10.29l2-3C186.68,155.27,170.55,159,155.28,162.52Z" transform="translate(-27.87 -48.73)"/><path class="a" d="M109.51,173.16l-39.83,8.73a5,5,0,0,0-3,2.46,13.42,13.42,0,0,0-1,2.55,7.82,7.82,0,0,1,3.81-2.16c1.12-.26,18.18-4.1,43.45-9.93l.83-2.63Z" transform="translate(-27.87 -48.73)"/><path class="a" d="M267.69,141.2s-4.38,1.47-6.91,2c-1.68.36-16.87,3.76-46,10.5l-.52,2c30.42-7,45.89-10.48,45.89-10.48a46.22,46.22,0,0,0,5.21-1.56A4.33,4.33,0,0,0,267.69,141.2Z" transform="translate(-27.87 -48.73)"/><path class="a" d="M157,167.16l.61,1.67c15.81-3.64,27.19-6.24,42.25-9.72l.88-2.08C184.25,160.85,172.25,163.61,157,167.16Z" transform="translate(-27.87 -48.73)"/><path class="a" d="M258.73,97.25a7.8,7.8,0,0,1-3.41,2.09c-.6.1-23.61,5.38-52.71,12.12l-.56,2.69c30.42-7,52.68-12.1,52.68-12.1s3-.78,3.5-1.78A4.53,4.53,0,0,0,258.73,97.25Z" transform="translate(-27.87 -48.73)"/><path class="a" d="M167.07,119.68l-7.42,1.72-.34,2.58,6.73-1.55,6.92-1.59c11.07-2.55,20.81-4.78,31.8-7.32l1.91-3-32.56,7.53-7.41,1.71" transform="translate(-27.87 -48.73)"/><path class="a" d="M254.65,104.15s-4.37,1.47-6.91,2c-1.68.36-16.87,3.76-46,10.5l-.45,2c30.42-7,45.83-10.45,45.83-10.45a46.22,46.22,0,0,0,5.21-1.56A4.29,4.29,0,0,0,254.65,104.15Z" transform="translate(-27.87 -48.73)"/><path class="a" d="M175.27,122.8l-.34,1.91,28.39-6.52.82-2.06Z" transform="translate(-27.87 -48.73)"/><path class="a" d="M75.56,185.64s-3.91,1-5.5,2.24a3.53,3.53,0,0,0-1.29,1.59s3-.74,5.4-1.31l38.19-8.82.35-1.84Z" transform="translate(-27.87 -48.73)"/><path class="a" d="M150.66,248.59A98.64,98.64,0,0,1,66.2,200.45a.76.76,0,0,1,.26-1,.75.75,0,0,1,1,.26,97.12,97.12,0,0,0,83.17,47.41c50.41,0,92.73-39.34,96.36-89.56.06-.94.15-2.53.15-2.76a.75.75,0,0,1,1.5,0c0,.35-.14,2.6-.16,2.86a98.11,98.11,0,0,1-97.85,91Z" transform="translate(-27.87 -48.73)"/><path class="a" d="M55.74,129.43l-.17,0a.75.75,0,0,1-.56-.9A98.15,98.15,0,0,1,234.4,99.33l.74,1.35a.75.75,0,0,1-.29,1,.75.75,0,0,1-1-.3l-.73-1.31A96.64,96.64,0,0,0,56.47,128.85.75.75,0,0,1,55.74,129.43Z" transform="translate(-27.87 -48.73)"/><path class="a" d="M150.24,226.42a76.49,76.49,0,0,1-63.31-33.55.76.76,0,1,1,1.25-.85,75,75,0,0,0,62.06,32.9c37,0,68.94-27.6,74.2-64.19l.1-.78a.75.75,0,0,1,1.49.18l-.1.8a76.49,76.49,0,0,1-75.69,65.49Z" transform="translate(-27.87 -48.73)"/><path class="a" d="M77.54,129.43l-.21,0a.76.76,0,0,1-.51-.93,76.5,76.5,0,0,1,136-22.53.75.75,0,0,1-.18,1,.74.74,0,0,1-1-.18A75,75,0,0,0,78.26,128.89.74.74,0,0,1,77.54,129.43Z" transform="translate(-27.87 -48.73)"/><path class="a" d="M150.26,222.73a72.83,72.83,0,0,1-59.87-31.39.49.49,0,0,1,.12-.69.51.51,0,0,1,.7.12,71.79,71.79,0,0,0,129.33-26.18s.52-2.73.58-3.78a.46.46,0,0,1,.52-.47.5.5,0,0,1,.48.52c-.06,1.12-.57,3.81-.6,3.92A73,73,0,0,1,150.26,222.73Z" transform="translate(-27.87 -48.73)"/><path class="a" d="M81.16,129.18l-.15,0a.51.51,0,0,1-.33-.63,72.8,72.8,0,0,1,128.55-21.24.5.5,0,0,1-.11.69.49.49,0,0,1-.7-.11,71.81,71.81,0,0,0-126.79,21A.49.49,0,0,1,81.16,129.18Z" transform="translate(-27.87 -48.73)"/><path class="a" d="M104.86,218.72l.31-.46c1.41,1,2.12,1.41,3.57,2.28l-.29.48c-.72-.34-1.08-.51-1.79-.87l-.26-.17C105.78,219.49,105.47,219.23,104.86,218.72Zm-2.31,7.87c.68.54,1,.81,1.73,1.32l-.29.48c-1.61-1-2.4-1.48-4-2.55l.31-.46c.77.42,1.16.63,1.93,1Zm1.47-4c.78-1.18,1.56-2.38,2.29-3.58l1.27.81c-.78,1.15-1.54,2.35-2.3,3.57l-.36.57c-.75,1.2-1.51,2.4-2.22,3.63l-1.41-.91c.8-1.13,1.58-2.32,2.36-3.53Z" transform="translate(-27.87 -48.73)"/><path class="a" d="M119.47,230.93a4.77,4.77,0,1,1-8.67-4,4.78,4.78,0,0,1,6.29-2.26A4.67,4.67,0,0,1,119.47,230.93Zm-6.07,1.89c2,.94,3.71-.61,4.5-2.52s.77-4.1-1.1-5-3.55.56-4.48,2.4S111.34,231.88,113.4,232.82Z" transform="translate(-27.87 -48.73)"/><path class="a" d="M127.78,237l-.19.73-1-.08c.38-.74.56-1.11.93-1.86l.94.25c-.22.77-.34,1.15-.56,1.92a7.28,7.28,0,0,1-3.33-.25c-3.14-.94-4.55-3.59-3.57-6.24a4.94,4.94,0,0,1,6.31-2.95,6.26,6.26,0,0,1,2.53,1.4l-.45,1.94-.89-.24c.06-.82.1-1.24.17-2.06l.83.42-.21.81a3.67,3.67,0,0,0-2-1.55c-1.87-.56-3.83.26-4.71,2.8s.15,4.4,2.27,5A4.61,4.61,0,0,0,127.78,237Z" transform="translate(-27.87 -48.73)"/><path class="a" d="M131.16,230.4l.14-.55c1.58.39,2.38.56,4,.86l-.11.55c-.76-.06-1.14-.09-1.91-.17L133,231Zm.51,8.16c.8.26,1.2.38,2,.62l-.1.55c-1.79-.34-2.67-.53-4.44-1l.13-.55c.84.12,1.25.18,2.09.27Zm0-4.25c.31-1.38.62-2.77.89-4.16.55.13.82.19,1.37.3-.32,1.35-.61,2.74-.9,4.15l-.21,1c-.22,1.05-.51,2.44-.75,3.83-.61-.12-.92-.19-1.53-.33.35-1.34.66-2.73,1-4.13ZM132,236a65.46,65.46,0,0,0,6.22-4.82l.87.12a66,66,0,0,1-7.28,5.58Zm3.33-2.07c1,2.62,1.56,3.92,2.78,6.5l-1.58-.23c-1-2.2-1.38-3.31-2.18-5.53Zm-.43,5.43c.77.06,1.16.08,1.93.11l.25,0c.75.2,1.12.29,1.88.47l-.07.55c-1.64-.21-2.46-.33-4.09-.62Zm1.56-7.9.09-.55c1.31.22,2,.32,3.29.5l-.08.55-1.62,0-.3,0Z" transform="translate(-27.87 -48.73)"/><path class="a" d="M140.71,232.12l.07-.56c.81.1,1.21.14,2,.21l-.07.77-.15,0C141.83,232.37,141.46,232.29,140.71,232.12Zm1.31,8-.07.76c-.9-.09-1.35-.13-2.25-.24l.06-.56c.84,0,1.26,0,2.1,0Zm-.32-4.21c.14-1.41.28-2.83.38-4.24l1.44.14c-.16,1.37-.28,2.79-.4,4.23l0,.51c-.13,1.57-.25,3-.32,4.4-.65,0-1-.08-1.61-.15.19-1.37.33-2.79.48-4.22Zm5.06-3.9.64.72c-1.86-.07-2.8-.13-4.66-.3l.06-.69c2,.19,3.08.26,5.13.32,0,1,0,1.46,0,2.43l-.85,0C147,233.51,146.89,233,146.76,232Zm-1,4.77c-1.38-.07-2.07-.12-3.44-.25l.06-.64c1.36.13,2,.18,3.41.25Zm2.36,2c-.07,1-.1,1.46-.17,2.43-2.42-.06-3.63-.13-6-.35l.07-.69c2.17.2,3.25.27,5.43.34l-.77.66c.24-1,.35-1.45.58-2.41Zm-2.82-2.54.3-1.43.69,0-.16,3.23-.7,0-.15-1.52Z" transform="translate(-27.87 -48.73)"/><path class="a" d="M149.44,232.67v-.56c1.62,0,2.44,0,4.07-.06l0,.56c-.75.11-1.13.17-1.9.26h-.3Zm2.17,7.85v.76c-.9,0-1.36,0-2.26,0v-.56l2.09-.21Zm-.85-8.4,1.44,0c0,1.42,0,2.84.06,4.25l0,.95c0,1.17.07,2.59.15,4l-1.61,0c0-1.41,0-2.84,0-4.23v-.69C150.82,234.93,150.81,233.5,150.76,232.12Zm6.54,6.3,0,2.59c-2.29.18-3.44.24-5.73.27v-.69c2,0,3.08-.08,5.13-.23l-.85.75c.19-1,.28-1.57.46-2.62Z" transform="translate(-27.87 -48.73)"/><path class="a" d="M157.8,232.32l-.05-.55c.81-.08,1.21-.12,2-.22l.09.76-.15,0Zm3,7.58.09.76c-.9.11-1.35.15-2.25.24l-.06-.56c.83-.16,1.24-.24,2.06-.42Zm-1.21-4.05c-.15-1.4-.31-2.82-.51-4.22l1.44-.17c.13,1.38.31,2.8.5,4.22l.06.47c.2,1.6.38,3,.61,4.41l-1.6.19c-.1-1.38-.26-2.8-.42-4.23Zm.7-.21c.6-.08.9-.11,1.5-.2,1.81-.25,2.51-.92,2.3-2.16s-1-1.53-2.5-1.32c-.68.1-1,.14-1.71.22l-.08-.63c.85-.1,1.28-.16,2.13-.28,2-.3,3.28.39,3.52,1.68.19,1.05-.43,2.14-2.42,2.67l0-.12c2.39-.19,3.54.54,3.77,1.7s-.7,2.74-3.76,3.18c-.85.12-1.28.18-2.13.28l-.07-.64,1.74-.22c2-.29,2.89-1.13,2.68-2.32s-1.23-1.7-3.32-1.41l-1.55.2Z" transform="translate(-27.87 -48.73)"/><path class="a" d="M176.63,232.49a4.59,4.59,0,0,1-3.26,6,4.52,4.52,0,0,1-5.81-3.54,4.72,4.72,0,0,1,3.33-5.72A4.64,4.64,0,0,1,176.63,232.49Zm-3.44,5.31c2.15-.58,2.45-2.82,1.84-4.8s-2-3.66-4-3.13-2.34,2.67-1.88,4.69S171,238.37,173.19,237.8Z" transform="translate(-27.87 -48.73)"/><path class="a" d="M182.23,234.77c.58-.31.86-.47,1.43-.79l.3-.12,1.71-.5.23.51c-1.38.6-2.07.88-3.47,1.42Zm.89-9.78.84-.38c2.78,2.78,4.24,4.13,7.28,6.72l-1.43.72c-2.62-2.34-3.89-3.56-6.31-6.05l.31-.18c.25,3.49.32,5.25.34,8.79l-.72.29C183.46,230.91,183.4,228.92,183.12,225Zm.63,5.86c1.56-.66,2.34-1,3.87-1.76l.51.46c-1.73.85-2.6,1.25-4.36,2C183.76,231.26,183.76,231.12,183.75,230.85Zm4.1,1.52c.71-.42,1.06-.63,1.76-1.07l.33-.17c.76-.29,1.14-.44,1.9-.75l.26.5c-1.59.84-2.39,1.24-4,2Z" transform="translate(-27.87 -48.73)"/><path class="a" d="M188.65,223l-.26-.49c.73-.4,1.1-.61,1.83-1l.38.67-.14.08C189.74,222.5,189.38,222.65,188.65,223Zm5.76,5.77.38.67-2,1.14-.26-.49c.71-.49,1.07-.73,1.77-1.23Zm-2.71-3.23c-.7-1.23-1.4-2.48-2.13-3.68l1.29-.75c.67,1.22,1.39,2.45,2.12,3.69l.24.41c.81,1.39,1.53,2.62,2.29,3.81-.57.34-.86.5-1.44.83-.64-1.23-1.34-2.47-2-3.73Zm.57-.49,1.34-.79c1.63-1,2-1.89,1.35-2.94s-1.58-1-2.88-.19l-1.54.91-.32-.56c.76-.44,1.15-.66,1.9-1.13,1.77-1.08,3.27-1,4,.1.6.88.43,2.16-1.26,3.47l-.07-.11c2.2-1.16,3.58-1,4.25,0s.4,2.82-2.34,4.49c-.76.46-1.14.68-1.91,1.13l-.32-.56c.63-.36.95-.54,1.57-.92,1.81-1.09,2.31-2.24,1.65-3.25s-1.84-1-3.71.07c-.55.34-.83.5-1.39.82Z" transform="translate(-27.87 -48.73)"/><path class="a" d="M150.37,251.27A101.88,101.88,0,0,1,63.45,202a.5.5,0,0,1,.17-.68.49.49,0,0,1,.69.17,100.28,100.28,0,0,0,186.26-47.77.48.48,0,0,1,.51-.48.5.5,0,0,1,.49.52,101.3,101.3,0,0,1-101.2,97.51Z" transform="translate(-27.87 -48.73)"/><path class="a" d="M51.8,129.45h-.11a.49.49,0,0,1-.38-.59A101.29,101.29,0,0,1,237.67,98.66l.73,1.3a.5.5,0,0,1-.87.49l-.73-1.29a100.72,100.72,0,0,0-86.43-49.43c-47.07,0-88.31,33.36-98.08,79.32A.5.5,0,0,1,51.8,129.45Z" transform="translate(-27.87 -48.73)"/><path class="a" d="M203.59,219.53c-.09.06,0,.12,0,.14S203.57,219.51,203.59,219.53Z" transform="translate(-27.87 -48.73)"/><polygon class="a" points="176.97 169.49 176.97 169.54 177.11 169.29 176.97 169.49"/><path class="a" d="M206.13,217.18c-.24,0-.45.4-.72.53h-.07v.2A5.64,5.64,0,0,1,206.13,217.18Z" transform="translate(-27.87 -48.73)"/><path class="a" d="M207.07,216.91c-.09,0,.11-.17-.18.12h0Z" transform="translate(-27.87 -48.73)"/><path class="a" d="M206.93,217c-.13.11.13,0,0,0Z" transform="translate(-27.87 -48.73)"/><path class="a" d="M207.52,216.45l-.13.2c.06,0,.22-.13.19-.05C207.73,216.41,207.67,216.41,207.52,216.45Z" transform="translate(-27.87 -48.73)"/><path class="a" d="M207.6,216.21l-.07.1S207.58,216.29,207.6,216.21Z" transform="translate(-27.87 -48.73)"/><path class="a" d="M207.38,216.52l.15-.21s-.08,0-.07.09C207.44,216.35,207.43,216.42,207.38,216.52Z" transform="translate(-27.87 -48.73)"/><path class="a" d="M207.25,216.59c-.12.06-.26.15-.13-.05C206.8,216.85,206.94,216.91,207.25,216.59Z" transform="translate(-27.87 -48.73)"/><path class="a" d="M206.08,217l-.17.07-.08.14C205.87,217.12,206.12,217,206.08,217Z" transform="translate(-27.87 -48.73)"/><path class="a" d="M208.66,215.56s-.12,0-.17-.05l-.1.15C208.47,215.62,208.61,215.52,208.66,215.56Z" transform="translate(-27.87 -48.73)"/><path class="a" d="M208.49,215.51l.15-.22C208.46,215.44,208.45,215.49,208.49,215.51Z" transform="translate(-27.87 -48.73)"/><polygon class="a" points="179.64 167.3 179.41 167.68 179.69 167.24 179.64 167.3"/><polygon class="a" points="181.53 166.17 181.48 166.34 181.58 166.06 181.53 166.17"/><path class="a" d="M209.87,214.46c0,.13.19,0,.14.1a1.37,1.37,0,0,0,.25-.41A.91.91,0,0,1,209.87,214.46Z" transform="translate(-27.87 -48.73)"/><path class="a" d="M210.38,213.94a1.43,1.43,0,0,0-.12.21A.72.72,0,0,0,210.38,213.94Z" transform="translate(-27.87 -48.73)"/><path class="a" d="M209,215a.29.29,0,0,0,.23,0h-.15Z" transform="translate(-27.87 -48.73)"/><path class="a" d="M209.05,214.94h0l.17-.15Z" transform="translate(-27.87 -48.73)"/><path class="a" d="M209,215v0S209,215,209,215Z" transform="translate(-27.87 -48.73)"/><path class="a" d="M208.07,215.66c.07-.15.26-.41,0-.27C208,215.51,208.17,215.44,208.07,215.66Z" transform="translate(-27.87 -48.73)"/><path class="a" d="M208.77,215l-.22.17s.09,0,.06.08Z" transform="translate(-27.87 -48.73)"/><polygon class="a" points="180.98 166.17 180.91 166.28 180.99 166.22 180.98 166.17"/><path class="a" d="M210,214.18a1.37,1.37,0,0,1,.25-.3,3.65,3.65,0,0,0-.37.29S209.84,214.3,210,214.18Z" transform="translate(-27.87 -48.73)"/><path class="a" d="M209.51,214.55l0,0S209.5,214.53,209.51,214.55Z" transform="translate(-27.87 -48.73)"/><polygon class="a" points="183.37 164.15 183.34 164.15 183.35 164.17 183.37 164.15"/><path class="a" d="M209.81,214.17a.33.33,0,0,0-.16.2,1.19,1.19,0,0,1,.19-.2S209.83,214.14,209.81,214.17Z" transform="translate(-27.87 -48.73)"/><path class="a" d="M210.63,213.63l-.18.1C210.51,213.71,210.63,213.67,210.63,213.63Z" transform="translate(-27.87 -48.73)"/><path class="a" d="M209.57,214.52h0C209.61,214.53,209.6,214.52,209.57,214.52Z" transform="translate(-27.87 -48.73)"/><path class="a" d="M209.57,214.52a.55.55,0,0,0,.08-.15.79.79,0,0,0-.12.15Z" transform="translate(-27.87 -48.73)"/><path class="a" d="M211.06,212.08c.06.09-.1.37-.36.48s.22.35.51.32c0,0-.06-.06.09-.29-.1,0-.51.32-.41.1s.23-.18.39-.26c-.19,0,.19-.45,0-.52l-.17.26S211.14,212,211.06,212.08Z" transform="translate(-27.87 -48.73)"/><path class="a" d="M210.84,213.24l-.07.08a1.35,1.35,0,0,1,.36-.17c.1-.17.1-.22.08-.25l-.39.37Z" transform="translate(-27.87 -48.73)"/><path class="a" d="M210.41,213.67c0-.14.15-.36,0-.33-.22.24-.1.23-.21.39.37-.37-.07.15.25-.06a2,2,0,0,1-.19.21l.24-.15h0s0,0,0,0h0a.43.43,0,0,1,0-.05c.13-.09,0,0,0,.05v0h0l.34-.41A3.5,3.5,0,0,0,210.41,213.67Z" transform="translate(-27.87 -48.73)"/><path class="a" d="M208.1,215s0,0,0,0S208.14,215,208.1,215Z" transform="translate(-27.87 -48.73)"/><path class="a" d="M208.3,214.93a.29.29,0,0,1-.11.17c-.1,0,0,0-.07-.06s-.14.23.07.11l0,0c.18-.11.47-.19.45-.15A.79.79,0,0,0,208.3,214.93Z" transform="translate(-27.87 -48.73)"/><path class="a" d="M209.35,214.28l.29-.33-.23.08,0,0C209.25,214.21,209.34,214.22,209.35,214.28Z" transform="translate(-27.87 -48.73)"/><polygon class="a" points="183.44 164.15 183.48 164.27 183.55 163.98 183.44 164.15"/><polygon class="a" points="183.84 163.74 183.89 163.83 183.95 163.68 183.84 163.74"/><path class="a" d="M228.87,185.87l0-.13C228.88,185.8,228.88,185.84,228.87,185.87Z" transform="translate(-27.87 -48.73)"/><path class="a" d="M228.49,186.7l0,0C228.52,186.69,228.51,186.66,228.49,186.7Z" transform="translate(-27.87 -48.73)"/><path class="a" d="M220.82,201.94c.19-.1.43-.18.32-.23H221A.71.71,0,0,1,220.82,201.94Z" transform="translate(-27.87 -48.73)"/><path class="a" d="M225.5,193.63l-.06,0,0,.17Z" transform="translate(-27.87 -48.73)"/><path class="a" d="M225.18,193.3l.18-.18A1,1,0,0,0,225.18,193.3Z" transform="translate(-27.87 -48.73)"/><path class="a" d="M230.71,181.21l-.05-.18C230.58,181.25,230.67,181.17,230.71,181.21Z" transform="translate(-27.87 -48.73)"/><path class="a" d="M215.68,208.24A2.51,2.51,0,0,0,216,208C215.83,208.08,215.65,208.14,215.68,208.24Z" transform="translate(-27.87 -48.73)"/><path class="a" d="M229.77,186.68c0-.08,0-.12,0-.13S229.74,186.68,229.77,186.68Z" transform="translate(-27.87 -48.73)"/><path class="a" d="M216.32,207.64l-.08,0a2.1,2.1,0,0,1-.24.3A.63.63,0,0,0,216.32,207.64Z" transform="translate(-27.87 -48.73)"/><path class="a" d="M235.52,163.75v0S235.52,163.73,235.52,163.75Z" transform="translate(-27.87 -48.73)"/><path class="a" d="M237.28,158.62s0,.13,0,.22A1,1,0,0,0,237.28,158.62Z" transform="translate(-27.87 -48.73)"/><path class="a" d="M213.36,210.9c-.08.08,0,0,0,0Z" transform="translate(-27.87 -48.73)"/><path class="a" d="M212.63,211s0,0,0-.07A.09.09,0,0,1,212.63,211Z" transform="translate(-27.87 -48.73)"/><path class="a" d="M216.58,206.29h0S216.56,206.29,216.58,206.29Z" transform="translate(-27.87 -48.73)"/><path class="a" d="M213.19,211a.51.51,0,0,0,.13-.09Z" transform="translate(-27.87 -48.73)"/><path class="a" d="M213.25,211l-.09.06S213.18,211.1,213.25,211Z" transform="translate(-27.87 -48.73)"/><path class="a" d="M213.47,210.77l-.15.13s0,0,0,0Z" transform="translate(-27.87 -48.73)"/><path class="a" d="M233.73,173.33v0C233.73,173.18,233.72,173.23,233.73,173.33Z" transform="translate(-27.87 -48.73)"/><polygon class="a" points="193.85 150.02 193.84 150.04 193.86 150.03 193.85 150.02"/><path class="a" d="M221.88,198.35a.45.45,0,0,1-.16.41l.34.06Z" transform="translate(-27.87 -48.73)"/><path class="a" d="M229.75,183.85l-.21.24c0-.39.16-.61-.08-.41.29.18-.45,1.07-.16,1.25l-.14.15c0-.05,0-.07,0-.12-.3.29.11.36-.14.79-.09.15-.19.24-.18.12l-.08.38c0,.1-.09.05,0-.05l-.22.55h0a2.67,2.67,0,0,1,0,.4c-.11.12,0-.08-.06-.06l-.06.33c-.13.08-.1-.2,0-.4-.43.13,0,.28-.48.79l.09-.3c-.25.1-.3.35-.57.6.1,0,.59-.48.51-.13a.64.64,0,0,0-.17.38c-.11,0-.17.13-.27.34l-.13-.09c-.08.25,0,.26,0,.43a.41.41,0,0,1-.4.24c-.23.39.32-.18.1.31a2.53,2.53,0,0,0-.41,1c-.17.21-.07-.09-.15,0v.26c0,.05-.06,0-.07,0-.05.19.13.09,0,.38.11.16-.51.44-.53.86-.08.06-.06-.08-.13-.09a3.61,3.61,0,0,0-.2.89l-.28.26c.24-.17.19.2.14.51a1.44,1.44,0,0,0,.23-.13l-.17.46c-.05,0-.07,0-.09-.13v.09c-.14.12-.18,0-.19-.16l.17-.1c0-.15-.06-.3-.15-.32a.9.9,0,0,1,0,.16s0-.07,0-.07,0,.07,0,.16H225l0,.06-.41.48a4.79,4.79,0,0,1-.34,1.61c0-.23-.16-.15-.29-.24.24-.08.22-.51.43-.81-.11.16-.15.08-.15,0l-.2.64c-.1-.08-.15.07-.29.19.29,0-.11.5-.2.77-.08,0-.12-.13.08-.4-.36.2,0,.55-.34.76,0-.07.08-.1.06-.15,0,.2-.34.55-.34.42l0-.07c-.32.43-.89,1.34-.75,1.53a1,1,0,0,1-.2-.25l.07,1.19c-.1-.18-.64-.16-.48-.58a1.06,1.06,0,0,0-.29.46c.07-.06.33,0,.28.08-.35.15-.2.13-.58.35.1-.08.25.2.13.36,0-.05-.25-.15-.23-.23l-.07.57c0-.13-.18-.16-.31-.11.08,0-.26.35-.32.47l.18-.13c-.37.43,0,.69-.36,1.14,0-.09-.19-.35-.39-.14a2.38,2.38,0,0,1,0,1.36l-.12,0-.15.37a8.35,8.35,0,0,1,.08-1.55c-.18.13-.11,0-.3.25-.12,0,0-.21.07-.29l-.48.57c.15.08-.21.56-.08.62l.34-.75c.15.07.1.66-.24,1.07-.13.06-.17-.26-.22-.29a1.11,1.11,0,0,1-.29.47l.07-.23c-.24.19-.13.51-.48.69-.09.08-.4.14-.34.22a1,1,0,0,1,.79.5,3.87,3.87,0,0,1-.71.43c-.24.06-.09-.46-.29-.41,0,0,0,.16,0,.21s-.07-.13-.23.1c.1.14-.37.42,0,.19-.14.24-.21.2-.41.45.15,0,.1.47,0,.71,0,0-.11,0-.15,0-.36.43-.62.6-1,1-.07,0-.27.16-.26,0a.6.6,0,0,1-.13.28c-.32.14.22-.28-.07-.22.06.08-.18.4-.29.61.16.05.38-.37.49-.58.16.14.06.58-.24,1s-.23.05-.26.12c-.58.59-.2.77-.77,1.17-.28.11-.2-.17-.31-.19.2-.3.43-.35.59-.53l-.25.18a.93.93,0,0,1,.29-.39c-.24.09-.93,1-1.45,1.39,0,.11-.15.28,0,.25l.13-.15c.21-.05-.16.37.06.23a2.17,2.17,0,0,1-.58.76l-.16-.06s.24-.11.28-.22c-.06.16-.55.26-.53.53l.26-.12a2.28,2.28,0,0,1-.53.8c.21,0,0-.07.34-.11-.31,0,.61-.6.21-.53.32,0,.36-.23.72-.34,0,0-.15,0,.06-.17a.19.19,0,0,1,0-.07h0s0,0,0,0a.41.41,0,0,1-.16.05c0-.18.34-.5.4-.64s0,.09.1.06l.09-.23c.09.06.43-.2.21.14l.25-.26a1.66,1.66,0,0,0,.48-.47c.13-.11.19-.4.16-.23L215,209h0c.38-.4.62-1,1.19-1.29a3.11,3.11,0,0,1,.43-.53l.12,0c.12-.21.52-.49.51-.63.36,0,.77-.86,1.07-1.15l-.08-.1a5.84,5.84,0,0,0,.52-.76l-.11-.05c.12-.3.57-.55.86-.95,0,.05-.07.15-.14.2.55-.31.58-1.1,1-1.41a.48.48,0,0,1,.19-.26l0,0,0,0,.16-.11-.14.09a3.22,3.22,0,0,0,.21-.35l.13,0,0,0c.12-.1,0-.13-.1-.12a1.15,1.15,0,0,0,.06-.21c.23,0,.18-.35.45-.36,0-.14.38-.66.26-.84,0,0,.06,0,0,.05a.84.84,0,0,0,.28-.4l.16,0,0-.43c.2-.13.3-.17.27.08.15-.55.18-.4.28-.88l.07.07c.09-.14.12-.42.24-.46.36-.2,1-1.47,1.66-2.17-.34,0,.33-.3.16-.45.08,0,.18-.11.16,0,.18-.44.45-.55.45-.93.09,0,0,.13.1.11s0-.16.08-.18,0,.09,0,.17c.23-.42.08-.57-.08-.71a.45.45,0,0,0,.23-.49c.1,0,.23-.13.1.14.1-.14.61-.84.48-.94.06,0,.13-.19.14-.24a4.64,4.64,0,0,0,.38-.69l-.07.08c-.1-.22.11-.29.23-.57v0c.44-.55.08-.3.53-.83l-.12,0c-.2-.17.41-.46.5-.86l-.12.1c0-.23.59-.38.72-.56,0,0,0,.09,0,.15.4-.44-.11-.13,0-.53.12,0,.15.19.3-.06.13-.09.12-.86.42-1.14-.09,0-.19.1-.15-.1s.56-.64.49-1c0,0,.05,0,.07,0a4.13,4.13,0,0,0,.18-.89c.47,0,.41-1.38.75-1.22.1-.22.18-.44.26-.66l0,0a1.22,1.22,0,0,0,.14-.78c.06-.09.06,0,.08,0a2.08,2.08,0,0,0,.35-1.24h.13a9.49,9.49,0,0,0,.64-1.47s0,0,0,.09c.15-.72.89-1.54.56-1.94l0-.49c-.23.58-.16-.15-.31.06.05-.23.33-.55.26-.26l0,0c.19.18.32-.71.47-.64.19-.58.41-1.15.63-1.7s.37-1.12.53-1.68l-.21.08.12-.38c.06-.09.17-.1.09.17.14-.11,0-.48,0-.5.22-.52.15.27.2.1l.05-.23,0,.05a.83.83,0,0,1,0-.57c.09-.2.14-.08.17-.16s0,0,0-.12l.15-.49-.2.16c0-.23.14-.45-.08-.27.36-.26.52-1.8.64-2a2.76,2.76,0,0,1,.13-1c-.05.09-.22.11-.13-.21.3.19.27-.56.56-.77-.21.2.16-.93-.14-.61.08-.26.12,0,.25-.18,0-.66.32-1.41.42-2.21,0,0-.13.1-.17-.08l.29-.39c0-.16-.23-.19,0-.45,0,0-.11.09-.11,0,.5-1.54.29-3.23.85-4.79-.11.21-.1.06-.09-.1,0,.1-.1,0-.17,0l.24-.66c-.15-.13.07-.72-.08-.8v.21c-.16-.29-.45.36-.69.3.18.33-.4.8-.15,1.34-.06.11-.07-.1-.13,0a.71.71,0,0,1,0,.59l0,0a14.17,14.17,0,0,1-.37,2.07l.13-.05a1.18,1.18,0,0,1-.13.32c.14.25.09-.55.26-.32-.28.23-.23,1.39-.53,1.52,0,.31.15-.06.1.24l-.09.07.09.09c0,.19-.16.28-.22.28s0-.14,0-.2a3.52,3.52,0,0,0-.13.82l.09-.29c-.08.84-.29,1.83-.34,2.64l.07,0c0,.62-.17.47-.27,1.14v0a1.52,1.52,0,0,1,0,.51c0-.18-.2.28-.22.05,0,.68,0,.34.12.82l-.11.08a.77.77,0,0,1,0,.52c0-.29-.18.18-.22-.15-.34.65,0,1.08-.4,1.32.16.38.3-.56.31-.37.11-.13.12.31,0,.52s-.42.29-.57.84c0,0,0-.06,0-.12-.12.19,0,.43-.2.65.11.18-.1.33.08.42l.1-.52a2.06,2.06,0,0,1-.12,1.08.9.9,0,0,1,0-.31c-.1.12,0,.28-.14.4-.18-.09.13-.62.07-1-.12.13,0,.62-.19.41.21.29-.18.53-.08,1l-.11-.06a.66.66,0,0,1,0,.31l-.09-.24c0,.34-.27.55-.28.85.16-.6.17-.09.33-.32,0,.79-.41.34-.63,1.18,0-.12.21-.4.2-.21a1.53,1.53,0,0,1-.28.42c-.15.55.15-.05.14.21-.2.14,0,.28-.07.53l-.11,0c-.28.59.18.24-.09.77l-.08-.29-.06.31-.11-.11a1.45,1.45,0,0,1-.21.74c.11,0,.2.11.11.39s-.07-.14-.19.25c0-.11-.1-.24.06-.37,0,0,0-.11-.07-.14a2.07,2.07,0,0,0-.23.64.42.42,0,0,1,.08-.15l0,.62c-.08.08-.09,0-.1-.09a2.18,2.18,0,0,1-.05.39c-.08-.08-.17-.1-.13-.35l-.1.56c-.06,0-.22.23-.23.15-.17.27-.1.78-.32,1.14a.31.31,0,0,1,0,.16,3.14,3.14,0,0,0-.45,1.12l-.26.18c-.09.35.34-.25.18.34-.11.42-.2.09-.3.21a1.16,1.16,0,0,1-.26.94A3.21,3.21,0,0,1,229.75,183.85ZM228,188c0-.09,0-.28.12-.31C228.16,187.8,228.07,187.85,228,188Zm-3,6.13c0-.08.07-.15.17-.23A.72.72,0,0,1,225,194.09Zm-10.77,15.77h0C214.36,209.74,214.3,209.78,214.19,209.86Zm-.31.27s0,.05,0,.05.06-.11.13-.18S213.94,210,213.88,210.13Zm21-37.82,0,.07C234.81,172.2,234.83,172.25,234.85,172.31Z" transform="translate(-27.87 -48.73)"/><path class="a" d="M225.21,193.34h.08S225.27,193.29,225.21,193.34Z" transform="translate(-27.87 -48.73)"/><path class="a" d="M230.72,181.24h0l0,0Z" transform="translate(-27.87 -48.73)"/><path class="a" d="M217.24,204.74a.42.42,0,0,1,.15-.09S217.32,204.65,217.24,204.74Z" transform="translate(-27.87 -48.73)"/><path class="a" d="M212.51,211.81l.16-.2a.46.46,0,0,1-.19.13S212.57,211.75,212.51,211.81Z" transform="translate(-27.87 -48.73)"/><path class="a" d="M210.38,212.87s0,.06-.07.1l.05,0C210.47,212.88,210.52,212.77,210.38,212.87Z" transform="translate(-27.87 -48.73)"/><path class="a" d="M212.06,211.7c-.09-.06-.18.08-.3.22l0,0C211.85,212,212,211.87,212.06,211.7Z" transform="translate(-27.87 -48.73)"/><path class="a" d="M211.73,212l-.11.12S211.67,212,211.73,212Z" transform="translate(-27.87 -48.73)"/><path class="a" d="M213.58,210.56c-.08,0,0,.13,0,.13C213.6,210.86,213.85,210.16,213.58,210.56Z" transform="translate(-27.87 -48.73)"/><polygon class="a" points="183.85 162.84 183.98 162.88 183.98 162.74 183.85 162.84"/><path class="a" d="M212.8,210.62l-.23.18s0,0,0,.09C212.67,210.76,212.83,210.64,212.8,210.62Z" transform="translate(-27.87 -48.73)"/><path class="a" d="M212.54,210.89a.48.48,0,0,0-.15.18A1.43,1.43,0,0,0,212.54,210.89Z" transform="translate(-27.87 -48.73)"/><polygon class="a" points="184.1 162.53 184.18 162.49 184.33 162.35 184.1 162.53"/><path class="a" d="M214.94,208.35l.18-.26c0-.05-.08,0-.15.09S214.87,208.36,214.94,208.35Z" transform="translate(-27.87 -48.73)"/><path class="a" d="M214,208.83a.21.21,0,0,1,.16,0l-.1-.12Z" transform="translate(-27.87 -48.73)"/><path class="a" d="M214.63,208.12c0-.05.22-.42,0-.12C214.6,208.05,214.41,208.31,214.63,208.12Z" transform="translate(-27.87 -48.73)"/><polygon class="a" points="190.01 155.9 189.96 155.96 190.16 156.11 190.01 155.9"/><path class="a" d="M220,200.94c-.27.26.07.16-.19.39,0,.11.21-.18.2-.08C220,201,220.14,201,220,200.94Z" transform="translate(-27.87 -48.73)"/><path class="a" d="M220,201.25s0,.07,0,.11A.29.29,0,0,0,220,201.25Z" transform="translate(-27.87 -48.73)"/><polygon class="a" points="209.64 109.01 209.72 108.78 209.62 108.92 209.64 109.01"/><path class="a" d="M237.37,157.27l.17-.05-.13-.16C237.41,157.12,237.41,157.23,237.37,157.27Z" transform="translate(-27.87 -48.73)"/><path class="a" d="M227.36,188.4l0,0c.06,0,.08-.06.14-.16Z" transform="translate(-27.87 -48.73)"/><polygon class="a" points="200.99 136.79 200.96 136.84 201.14 136.81 200.99 136.79"/><path class="a" d="M229.78,183c-.05.1-.07.24-.11.34C229.73,183.06,230,183,229.78,183Z" transform="translate(-27.87 -48.73)"/><path class="a" d="M224.61,103.79s.1,0,.12,0S224.59,103.81,224.61,103.79Z" transform="translate(-27.87 -48.73)"/><polygon class="a" points="196.03 54.39 196.07 54.38 195.91 54.32 196.03 54.39"/><path class="a" d="M223.42,102.38c-.11.17.2.25.23.42l0,0h.16C223.66,102.68,223.45,102.52,223.42,102.38Z" transform="translate(-27.87 -48.73)"/><path class="a" d="M223.49,101.77c-.05.06-.11,0,0,.1v0Z" transform="translate(-27.87 -48.73)"/><path class="a" d="M223.53,101.85c.06.07,0-.09,0,0Z" transform="translate(-27.87 -48.73)"/><path class="a" d="M223.26,101.51l.12.07s0-.14,0-.12S223.27,101.41,223.26,101.51Z" transform="translate(-27.87 -48.73)"/><path class="a" d="M223.08,101.49l.06,0S223.15,101.49,223.08,101.49Z" transform="translate(-27.87 -48.73)"/><path class="a" d="M223.26,101.61l-.12-.08s-.06.06.05,0C223.14,101.59,223.2,101.58,223.26,101.61Z" transform="translate(-27.87 -48.73)"/><path class="a" d="M223.29,101.68c0,.08,0,.17-.09.1C223.35,102,223.44,101.87,223.29,101.68Z" transform="translate(-27.87 -48.73)"/><path class="a" d="M223.24,102.44v.11l.09,0C223.29,102.57,223.28,102.41,223.24,102.44Z" transform="translate(-27.87 -48.73)"/><path class="a" d="M222.9,100.83s-.06.09-.09.12l.08,0S222.86,100.86,222.9,100.83Z" transform="translate(-27.87 -48.73)"/><path class="a" d="M222.81,101l-.13-.07C222.74,101,222.78,101,222.81,101Z" transform="translate(-27.87 -48.73)"/><polygon class="a" points="195.04 52.85 195.28 52.96 195.02 52.81 195.04 52.85"/><polygon class="a" points="194.75 51.66 194.86 51.68 194.68 51.64 194.75 51.66"/><path class="a" d="M222.41,100.12c.09,0,.05-.14.12-.11a.56.56,0,0,0-.24-.13A.3.3,0,0,1,222.41,100.12Z" transform="translate(-27.87 -48.73)"/><path class="a" d="M222.15,99.83l.14,0A.46.46,0,0,0,222.15,99.83Z" transform="translate(-27.87 -48.73)"/><path class="a" d="M222.56,100.68a.21.21,0,0,0,0-.15l-.06.1Z" transform="translate(-27.87 -48.73)"/><path class="a" d="M222.53,100.63h0l-.06-.1Z" transform="translate(-27.87 -48.73)"/><path class="a" d="M222.57,100.69h0S222.55,100.69,222.57,100.69Z" transform="translate(-27.87 -48.73)"/><path class="a" d="M222.79,101.23c-.1,0-.24-.13-.23,0C222.65,101.29,222.65,101.18,222.79,101.23Z" transform="translate(-27.87 -48.73)"/><path class="a" d="M222.5,100.82l.06.13s0-.06.09,0Z" transform="translate(-27.87 -48.73)"/><polygon class="a" points="194.56 52.05 194.63 52.09 194.61 52.04 194.56 52.05"/><path class="a" d="M222.21,100.09A.46.46,0,0,1,222,100a1,1,0,0,0,.12.23S222.26,100.16,222.21,100.09Z" transform="translate(-27.87 -48.73)"/><path class="a" d="M222.36,100.36h0S222.34,100.37,222.36,100.36Z" transform="translate(-27.87 -48.73)"/><polygon class="a" points="193.74 50.6 193.73 50.62 193.75 50.62 193.74 50.6"/><path class="a" d="M222.15,100.2a.13.13,0,0,0,.11.09l-.1-.11S222.13,100.18,222.15,100.2Z" transform="translate(-27.87 -48.73)"/><path class="a" d="M222,99.68s0,.08,0,.12S222,99.68,222,99.68Z" transform="translate(-27.87 -48.73)"/><path class="a" d="M222.36,100.32h0S222.37,100.3,222.36,100.32Z" transform="translate(-27.87 -48.73)"/><path class="a" d="M222.36,100.32a.19.19,0,0,0-.1,0,.47.47,0,0,0,.09.06A0,0,0,0,1,222.36,100.32Z" transform="translate(-27.87 -48.73)"/><path class="a" d="M220.91,99.55a.2.2,0,0,1,.26.2c.14.07.35-.19.43-.39,0,0-.07,0-.2,0,0,.07.08.33-.07.28s-.06-.14-.07-.25c0,.14-.29-.09-.41.05l.15.1S220.91,99.5,220.91,99.55Z" transform="translate(-27.87 -48.73)"/><path class="a" d="M221.75,99.58l0,0a.58.58,0,0,1,0-.24c-.09,0-.14,0-.17,0l.16.24Z" transform="translate(-27.87 -48.73)"/><path class="a" d="M222,99.84c-.12,0-.24-.07-.28.07s.14,0,.24.1c-.18-.21.09,0,0-.17l.1.11s0-.1,0-.15h0s0,0,0,0h0c0-.07,0,0,0,0h0l-.21-.19A.87.87,0,0,0,222,99.84Z" transform="translate(-27.87 -48.73)"/><path class="a" d="M222.29,101.29a0,0,0,0,1,0,0S222.27,101.26,222.29,101.29Z" transform="translate(-27.87 -48.73)"/><path class="a" d="M222.28,101.16s.07,0,.09.06,0,0-.07,0,.14.07.12-.06h0c0-.11,0-.31,0-.3A.6.6,0,0,0,222.28,101.16Z" transform="translate(-27.87 -48.73)"/><path class="a" d="M222.08,100.51l-.17-.16v.15l0,0C222,100.58,222,100.52,222.08,100.51Z" transform="translate(-27.87 -48.73)"/><polygon class="a" points="193.77 50.55 193.88 50.51 193.67 50.49 193.77 50.55"/><polygon class="a" points="193.58 50.31 193.67 50.27 193.57 50.23 193.58 50.31"/><path class="a" d="M209.41,87.19l-.07,0Z" transform="translate(-27.87 -48.73)"/><path class="a" d="M209.76,87.52l.05,0S209.75,87.51,209.76,87.52Z" transform="translate(-27.87 -48.73)"/><path class="a" d="M216.87,93.24c0-.14,0-.32,0-.23l-.06.09A.22.22,0,0,1,216.87,93.24Z" transform="translate(-27.87 -48.73)"/><path class="a" d="M213,89.93v0l.12,0Z" transform="translate(-27.87 -48.73)"/><path class="a" d="M212.63,90.2l0-.15A.34.34,0,0,0,212.63,90.2Z" transform="translate(-27.87 -48.73)"/><path class="a" d="M207.37,85.48l-.13,0C207.33,85.6,207.33,85.52,207.37,85.48Z" transform="translate(-27.87 -48.73)"/><path class="a" d="M219.57,96.6a.61.61,0,0,0-.08-.21C219.5,96.51,219.48,96.63,219.57,96.6Z" transform="translate(-27.87 -48.73)"/><path class="a" d="M210.34,86.48a.07.07,0,0,0-.09,0C210.3,86.5,210.33,86.5,210.34,86.48Z" transform="translate(-27.87 -48.73)"/><path class="a" d="M219.34,96.19v0a.51.51,0,0,1,.14.15C219.48,96.3,219.45,96.21,219.34,96.19Z" transform="translate(-27.87 -48.73)"/><path class="a" d="M199.88,79.46v0S199.87,79.45,199.88,79.46Z" transform="translate(-27.87 -48.73)"/><path class="a" d="M198.16,77l.1,0A.28.28,0,0,0,198.16,77Z" transform="translate(-27.87 -48.73)"/><path class="a" d="M220.77,98s0,0,0,0Z" transform="translate(-27.87 -48.73)"/><path class="a" d="M220.61,98.54h0Z" transform="translate(-27.87 -48.73)"/><path class="a" d="M218.42,96.11Z" transform="translate(-27.87 -48.73)"/><path class="a" d="M220.79,98.14a.31.31,0,0,0,0-.08A.17.17,0,0,0,220.79,98.14Z" transform="translate(-27.87 -48.73)"/><path class="a" d="M220.82,98.1l0,.05S220.87,98.14,220.82,98.1Z" transform="translate(-27.87 -48.73)"/><path class="a" d="M220.71,98a.47.47,0,0,1,.06.09v0Z" transform="translate(-27.87 -48.73)"/><path class="a" d="M204.19,82.32v0C204.11,82.3,204.13,82.31,204.19,82.32Z" transform="translate(-27.87 -48.73)"/><polygon class="a" points="187.07 44 187.08 44 187.08 43.99 187.07 44"/><path class="a" d="M214.73,92.62c.16,0,.19,0,.21.1l.19-.26Z" transform="translate(-27.87 -48.73)"/><path class="a" d="M208.54,86.41l.05.18c-.25,0-.31-.14-.3.06.25-.24.48.39.72.16l0,.12,0,0c0,.26.27-.08.43.14s.07.16,0,.15l.21.07s0,.08-.05,0l.24.19h.26c0,.09-.06,0-.07,0l.18,0c0,.12-.17.08-.25,0-.12.36.17,0,.27.42l-.14-.08c-.06.21.08.25.13.46,0-.07-.06-.47.14-.4a.21.21,0,0,0,.18.13c-.09.09,0,.14.1.22l-.12.11c.12.06.17,0,.28,0s0,.22,0,.32c.15.19,0-.26.25-.08s.24.23.47.33c.06.14-.08,0-.08.12h.18s0,0,0,0,.12-.11.26,0c.16-.1,0,.42.34.42,0,.07-.09,0-.12.11a1.62,1.62,0,0,0,.51.14l.06.21c0-.18.22-.15.41-.12a1.28,1.28,0,0,0,0-.18l.24.13s-.06.06-.13.07h.06c0,.11-.08.14-.19.15V90a.42.42,0,0,0-.29.13l.09,0a.08.08,0,0,0-.07,0s0,0,.1,0l-.09.17.06,0,.15.31a2.06,2.06,0,0,1,1,.24c-.16,0-.17.14-.29.24,0-.19-.25-.17-.36-.33.05.08,0,.12-.05.12l.35.15c-.1.08,0,.12,0,.22.14-.22.3.08.45.13-.06.06-.14.1-.24,0,0,.26.38,0,.39.23,0,0,0-.06-.08,0,.12,0,.24.24.15.25l0,0c.16.22.57.63.76.52l-.26.16.87-.11c-.17.09-.38.5-.61.4a.31.31,0,0,0,.2.21s.12-.26.17-.22c0,.26,0,.16,0,.43,0-.07.25-.21.31-.12s-.21.19-.25.18l.38,0c-.08,0-.18.15-.21.25,0-.06.15.18.22.21l0-.13c.17.26.5,0,.69.21-.07,0-.34.17-.26.31a1.69,1.69,0,0,1,1-.08l0,.09.2.09a4.94,4.94,0,0,1-1.09,0c0,.13-.05.09.06.21s-.15,0-.18,0l.22.33c.11-.13.32.12.42,0l-.41-.22a.52.52,0,0,1,.68.12c0,.1-.26.15-.3.19s.25.14.23.18l-.14,0c0,.16.33.05.33.3,0,.06,0,.29,0,.23a1.7,1.7,0,0,1,.68-.63,2.87,2.87,0,0,1,.05.5c-.05.18-.38.1-.43.25a.39.39,0,0,1,.15,0c0,.08-.13.07,0,.17.15-.08.18.25.16,0,.13.08.07.14.18.27.05-.12.39-.12.52,0,0,0-.06.08-.07.11.18.24.21.42.38.64,0,0,0,.18-.07.18a.27.27,0,0,1,.17.07c0,.22-.13-.13-.2.07.09,0,.24.09.37.15.1-.12-.15-.24-.27-.3a.65.65,0,0,1,.72.08c.18.15-.05.16,0,.17.24.37.52.07.62.45,0,.2-.21.17-.27.25-.15-.12-.11-.28-.19-.38l0,.17c-.07,0-.18-.1-.19-.18,0,.17.43.59.54.93.07,0,.17.08.18,0l-.08-.07c0-.14.24.07.2-.07.15.07.34.13.41.33l-.11.12s0-.16-.07-.18c.1,0,0,.37.23.33v-.18c.15.07.38.12.45.29.07-.15,0,0,0-.23-.11.22-.26-.37-.34-.09.09-.23-.06-.23,0-.48,0,0-.05.11-.11,0h-.06s0,0,0,0a.15.15,0,0,1,0,.1c-.14,0-.27-.18-.37-.21s.07,0,.09-.08l-.15,0c.09-.08,0-.3.19-.17l-.11-.15a.42.42,0,0,0-.19-.31c0-.09-.23-.1-.11-.1l-.24-.19,0,0c-.16-.24-.51-.36-.55-.75a.63.63,0,0,1-.25-.26l.06-.09c-.1-.08-.16-.35-.28-.33.12-.27-.34-.51-.44-.72l-.1.08a2,2,0,0,0-.37-.33l-.08.08c-.18-.07-.21-.37-.38-.57.05,0,.08.05.09.1,0-.4-.56-.38-.6-.71a.15.15,0,0,1-.11-.13h0v0l0-.11a.31.31,0,0,0,0,.1,1,1,0,0,0-.18-.14l.07-.1h0c0-.09-.09,0-.13.08a.27.27,0,0,0-.12,0c.1-.18-.19-.12-.09-.32-.11,0-.32-.26-.5-.15,0,0,0,0,0,0s-.08-.17-.18-.19l.09-.13h-.28c0-.15,0-.22.17-.21-.33-.09-.21-.13-.5-.18l.08-.06c-.06-.06-.25-.07-.23-.17,0-.27-.62-.72-.82-1.2-.15.27-.06-.26-.24-.12,0-.06,0-.14.11-.12-.22-.14-.18-.35-.44-.35,0-.06.11,0,.12-.07s-.1,0-.09-.07.07,0,.12,0c-.19-.18-.36,0-.51.07,0-.16-.08-.2-.24-.17,0-.08,0-.18.14-.08-.06-.07-.31-.47-.43-.36,0,0-.08-.1-.11-.1a2.8,2.8,0,0,0-.28-.31l0,.06c-.19.08-.15-.09-.28-.18h0c-.16-.36-.16-.07-.31-.43l-.07.1c-.2.15-.12-.34-.34-.41v.1c-.14,0,0-.48,0-.58s.05,0,.09,0c-.11-.33-.14.08-.32,0,0-.09.18-.12.09-.24s-.5-.11-.54-.36c0,.07,0,.15-.14.12s-.14-.48-.39-.43a.07.07,0,0,1,0-.05c-.12,0-.35-.21-.48-.18.2-.38-.69-.37-.43-.64l-.28-.25,0,0a.41.41,0,0,0-.41-.15c0-.06,0-.06,0-.07a.64.64,0,0,0-.6-.35l.06-.12c-.11,0-.25-.48-.61-.6,0,0,0,0,.07,0-.38-.15-.48-.87-.88-.62l-.27-.07c.23.23-.16.11-.11.26-.11-.06-.17-.32,0-.24v0c.19-.15-.26-.33-.15-.45-.51-.4-.91-.91-1.39-1.29l-.06.18-.16-.14c0-.06,0-.15.15-.06,0-.13-.26-.08-.28-.06-.19-.24.22-.09.15-.15l-.11-.07v0c-.12,0-.18,0-.32-.07s0-.12,0-.16,0,0-.05,0L204,81v.18c-.14,0-.19-.16-.2,0,0-.32-.73-.68-.77-.81a.76.76,0,0,1-.48-.24s-.05.2-.18.08c.25-.23-.17-.31-.14-.59,0,.21-.43-.26-.4,0-.1-.11.07-.11,0-.24-.35-.1-.57-.51-1-.73,0,0,0,.13-.12.13l-.06-.31c-.08,0-.21.16-.25,0,0,0,0,.11-.06.09-.56-.67-1.51-.84-2-1.64,0,.14,0,.1-.1,0s-.06.09-.08.15l-.21-.33c-.15.1-.33-.21-.44-.1l.11,0c-.23.08,0,.47-.2.66.25-.09.19.5.59.4,0,.07-.09,0-.09.1s.19,0,.3.11h0a4.66,4.66,0,0,1,.85.73l0-.11a.28.28,0,0,1,.1.17c.2-.08-.23-.18,0-.28,0,.28.61.43.53.71.13.09,0-.14.17,0v.09l.09-.06a.19.19,0,0,1,0,.24s-.07,0-.09,0c.06.15.33.2.36.25l-.1-.13a9.89,9.89,0,0,0,1.21.72v-.06c.32.11.17.2.49.38h0a.42.42,0,0,1,.26.1c-.11,0,.06.2-.08.19.35.12.2,0,.51,0V81a.3.3,0,0,1,.3,0c-.16,0,0,.18-.19.17.18.38.57.18.53.52.29-.1-.17-.32-.06-.3s.23-.06.3,0,0,.39.2.57l-.06,0c.05.12.23.07.27.24.16-.07.14.12.28,0l-.25-.14c.16.06.42,0,.55.22a.4.4,0,0,1-.19,0c0,.09.14.06.16.15-.14.15-.29-.17-.51-.16,0,.12.33.09.13.2.27-.13.22.21.51.18l-.09.08s.13,0,.17,0l-.18.05c.21,0,.18.28.35.33-.26-.21,0-.16,0-.31.42.13,0,.39.38.64-.06,0-.14-.21,0-.19a.5.5,0,0,1,.12.27c.25.17,0-.13.18-.1s.16,0,.29.1l-.08.09c.22.28.23-.13.41.14l-.21,0,.16.08-.12.08c.2,0,.23.09.34.23a.17.17,0,0,1,.28-.06c0,.13-.12.05.06.18-.09,0-.19.06-.19-.08,0,0-.09,0-.12,0s.2.19.26.24a.13.13,0,0,1,0-.07l.34.08c0,.06,0,.06-.09.07s.12,0,.2.07c-.08.06-.15.14-.27.09l.29.11s0,.19,0,.19c.08.16.43.13.54.33l.1,0c.14.15.2.36.47.43v.22c.17.1,0-.29.29-.13s0,.17,0,.26.41,0,.46.26C208.62,86.51,208.6,86.45,208.54,86.41ZM210.32,88s-.17,0-.14-.09S210.3,87.9,210.32,88Zm2.76,2.37c-.06,0-.08,0-.09-.13A.25.25,0,0,1,213.08,90.35Zm7.19,7.18Zm.09.21a.06.06,0,0,0,0,0s-.06,0-.09-.08S220.3,97.7,220.36,97.74Zm-16.2-16.48v0C204.08,81.28,204.12,81.27,204.16,81.26Z" transform="translate(-27.87 -48.73)"/><path class="a" d="M212.67,90.17a.09.09,0,0,1,0-.06S212.66,90.12,212.67,90.17Z" transform="translate(-27.87 -48.73)"/><polygon class="a" points="179.53 36.75 179.53 36.74 179.51 36.75 179.53 36.75"/><path class="a" d="M217.51,95.75a.49.49,0,0,1,0-.11S217.47,95.69,217.51,95.75Z" transform="translate(-27.87 -48.73)"/><path class="a" d="M221.2,98.54l-.1-.09s0,.08,0,.12S221.18,98.51,221.2,98.54Z" transform="translate(-27.87 -48.73)"/><path class="a" d="M221.3,100s0,0,0,0l0,0C221.34,99.88,221.27,99.86,221.3,100Z" transform="translate(-27.87 -48.73)"/><path class="a" d="M221,98.88c-.08.07,0,.12.07.18h0C221.15,99,221.05,98.93,221,98.88Z" transform="translate(-27.87 -48.73)"/><path class="a" d="M221.05,99.08l0,.07C221.15,99.13,221.09,99.12,221.05,99.08Z" transform="translate(-27.87 -48.73)"/><path class="a" d="M220.58,97.92s.12-.06.1,0C220.82,97.87,220.38,97.75,220.58,97.92Z" transform="translate(-27.87 -48.73)"/><polygon class="a" points="192.86 50.41 192.95 50.3 192.83 50.32 192.86 50.41"/><path class="a" d="M220.36,98.47l.06.14a.07.07,0,0,1,.06,0C220.43,98.54,220.39,98.44,220.36,98.47Z" transform="translate(-27.87 -48.73)"/><path class="a" d="M220.48,98.62s.06.08.09.09A.75.75,0,0,0,220.48,98.62Z" transform="translate(-27.87 -48.73)"/><polygon class="a" points="192.71 50.26 192.71 50.21 192.65 50.11 192.71 50.26"/><path class="a" d="M219.38,97.13l-.13-.11c-.05,0,0,.07,0,.11S219.36,97.18,219.38,97.13Z" transform="translate(-27.87 -48.73)"/><path class="a" d="M219.42,97.74s0-.07,0-.11l-.13.09Z" transform="translate(-27.87 -48.73)"/><path class="a" d="M219.09,97.38c-.05,0-.25-.12-.11,0C219,97.41,219.15,97.52,219.09,97.38Z" transform="translate(-27.87 -48.73)"/><polygon class="a" points="189.81 46.55 189.84 46.58 190.03 46.41 189.81 46.55"/><path class="a" d="M215.78,94c.09.19.15-.07.21.11.08,0,0-.15,0-.14C215.89,93.89,215.88,93.82,215.78,94Z" transform="translate(-27.87 -48.73)"/><path class="a" d="M216,93.94l.06,0Z" transform="translate(-27.87 -48.73)"/><polygon class="a" points="169.97 27.86 169.9 27.75 169.92 27.86 169.97 27.86"/><path class="a" d="M197.53,76.62l.06-.16-.14.08S197.53,76.57,197.53,76.62Z" transform="translate(-27.87 -48.73)"/><path class="a" d="M210.35,88.47l0,0s0-.06,0-.11Z" transform="translate(-27.87 -48.73)"/><polygon class="a" points="181.32 38.46 181.34 38.48 181.4 38.34 181.32 38.46"/><path class="a" d="M208,86.35s.12.06.16.11S208.11,86.2,208,86.35Z" transform="translate(-27.87 -48.73)"/><path class="a" d="M105.59,74.91c.1,0,0-.12,0-.15S105.61,74.93,105.59,74.91Z" transform="translate(-27.87 -48.73)"/><polygon class="a" points="76.43 27.27 76.43 27.22 76.27 27.44 76.43 27.27"/><path class="a" d="M103,76.84c.22.07.47-.33.74-.42h.06l0-.19A5.12,5.12,0,0,1,103,76.84Z" transform="translate(-27.87 -48.73)"/><path class="a" d="M102,77c.08,0-.13.14.17-.09h0Z" transform="translate(-27.87 -48.73)"/><path class="a" d="M102.17,76.89c.14-.1-.12,0,0,0Z" transform="translate(-27.87 -48.73)"/><path class="a" d="M101.56,77.35l.14-.18c-.06,0-.22.1-.18,0C101.36,77.36,101.42,77.36,101.56,77.35Z" transform="translate(-27.87 -48.73)"/><path class="a" d="M101.46,77.57l.08-.08S101.49,77.5,101.46,77.57Z" transform="translate(-27.87 -48.73)"/><path class="a" d="M101.71,77.3l-.17.19s.08.05.08-.08C101.63,77.46,101.64,77.39,101.71,77.3Z" transform="translate(-27.87 -48.73)"/><path class="a" d="M101.83,77.25c.12,0,.27-.11.12.07C102.29,77.07,102.16,77,101.83,77.25Z" transform="translate(-27.87 -48.73)"/><path class="a" d="M103,77l.17,0,.09-.13C103.2,76.93,103,77,103,77Z" transform="translate(-27.87 -48.73)"/><path class="a" d="M100.39,78.05s.12,0,.16.08l.1-.13C100.57,78,100.43,78.09,100.39,78.05Z" transform="translate(-27.87 -48.73)"/><path class="a" d="M100.55,78.13l-.16.19C100.57,78.2,100.58,78.15,100.55,78.13Z" transform="translate(-27.87 -48.73)"/><polygon class="a" points="73.67 29.03 73.92 28.69 73.61 29.07 73.67 29.03"/><polygon class="a" points="71.76 29.85 71.82 29.7 71.7 29.95 71.76 29.85"/><path class="a" d="M99.13,79c0-.12-.18,0-.12-.12a1.3,1.3,0,0,0-.28.36A.78.78,0,0,1,99.13,79Z" transform="translate(-27.87 -48.73)"/><path class="a" d="M98.6,79.38l.13-.19A.53.53,0,0,0,98.6,79.38Z" transform="translate(-27.87 -48.73)"/><path class="a" d="M100,78.54a.25.25,0,0,0-.22,0l.14,0Z" transform="translate(-27.87 -48.73)"/><path class="a" d="M100,78.59h0l-.17.12Z" transform="translate(-27.87 -48.73)"/><path class="a" d="M100.06,78.53h0S100.06,78.54,100.06,78.53Z" transform="translate(-27.87 -48.73)"/><path class="a" d="M101,78c-.09.13-.29.36,0,.27C101,78.19,100.84,78.24,101,78Z" transform="translate(-27.87 -48.73)"/><path class="a" d="M100.23,78.57l.23-.13s-.09,0,0-.09Z" transform="translate(-27.87 -48.73)"/><polygon class="a" points="72.28 29.93 72.36 29.84 72.28 29.88 72.28 29.93"/><path class="a" d="M99,79.2a1,1,0,0,1-.27.26,2.14,2.14,0,0,0,.38-.23S99.14,79.11,99,79.2Z" transform="translate(-27.87 -48.73)"/><path class="a" d="M99.48,78.91v0S99.5,78.93,99.48,78.91Z" transform="translate(-27.87 -48.73)"/><polygon class="a" points="69.81 31.55 69.83 31.55 69.83 31.53 69.81 31.55"/><path class="a" d="M99.16,79.24a.37.37,0,0,0,.18-.17,1.92,1.92,0,0,1-.21.16S99.14,79.26,99.16,79.24Z" transform="translate(-27.87 -48.73)"/><path class="a" d="M98.32,79.64l.19-.07C98.44,79.57,98.32,79.6,98.32,79.64Z" transform="translate(-27.87 -48.73)"/><path class="a" d="M99.42,78.93h0S99.4,78.93,99.42,78.93Z" transform="translate(-27.87 -48.73)"/><path class="a" d="M99.42,78.93a.5.5,0,0,0-.08.14l.13-.14Z" transform="translate(-27.87 -48.73)"/><path class="a" d="M97.77,81.07c0-.09.12-.34.38-.4.15-.21-.17-.38-.45-.39,0,0,0,.07-.12.27.1,0,.52-.24.41,0s-.24.14-.4.2c.18,0-.23.4-.06.5l.19-.23S97.69,81.1,97.77,81.07Z" transform="translate(-27.87 -48.73)"/><path class="a" d="M98.09,80l.08-.07a1.08,1.08,0,0,1-.37.11c-.11.15-.12.2-.11.23l.42-.3Z" transform="translate(-27.87 -48.73)"/><path class="a" d="M98.54,79.63c0,.13-.17.33,0,.33.24-.2.12-.2.25-.35-.39.31.08-.13-.25,0a1.62,1.62,0,0,1,.2-.18l-.24.11h0s0,0,0,0h0a.06.06,0,0,1,0,0c-.13.07,0,0,0,0v0h0l-.35.35A3,3,0,0,0,98.54,79.63Z" transform="translate(-27.87 -48.73)"/><path class="a" d="M100.88,78.65h0S100.83,78.68,100.88,78.65Z" transform="translate(-27.87 -48.73)"/><path class="a" d="M100.68,78.71a.26.26,0,0,1,.12-.14c.1,0,0,0,0,.07s.16-.21,0-.12l0,0a.91.91,0,0,1-.45.09A.83.83,0,0,0,100.68,78.71Z" transform="translate(-27.87 -48.73)"/><path class="a" d="M99.61,79.2l-.3.28.22,0,0,0C99.7,79.28,99.62,79.25,99.61,79.2Z" transform="translate(-27.87 -48.73)"/><polygon class="a" points="69.74 31.53 69.71 31.41 69.62 31.68 69.74 31.53"/><polygon class="a" points="69.32 31.87 69.28 31.78 69.2 31.91 69.32 31.87"/><path class="a" d="M77.8,103.42l0,.11Z" transform="translate(-27.87 -48.73)"/><path class="a" d="M78.27,102.69l0,0S78.25,102.72,78.27,102.69Z" transform="translate(-27.87 -48.73)"/><path class="a" d="M87.38,89.38c-.19.06-.43.11-.34.17l.12,0A.58.58,0,0,1,87.38,89.38Z" transform="translate(-27.87 -48.73)"/><path class="a" d="M82,96.58l.06,0V96.4Z" transform="translate(-27.87 -48.73)"/><path class="a" d="M82.25,97l-.2.13A1.57,1.57,0,0,0,82.25,97Z" transform="translate(-27.87 -48.73)"/><path class="a" d="M75.45,107.52l0,.17C75.58,107.5,75.49,107.56,75.45,107.52Z" transform="translate(-27.87 -48.73)"/><path class="a" d="M93,84.11a1.59,1.59,0,0,0-.33.2C92.81,84.23,93,84.21,93,84.11Z" transform="translate(-27.87 -48.73)"/><path class="a" d="M77,102.5q0,.1,0,.12C77,102.55,77.05,102.5,77,102.5Z" transform="translate(-27.87 -48.73)"/><path class="a" d="M92.29,84.59l.08,0a1.56,1.56,0,0,1,.26-.25A.55.55,0,0,0,92.29,84.59Z" transform="translate(-27.87 -48.73)"/><path class="a" d="M68.42,123.12l0,0S68.42,123.14,68.42,123.12Z" transform="translate(-27.87 -48.73)"/><path class="a" d="M65.94,127.62l0-.2A.68.68,0,0,0,65.94,127.62Z" transform="translate(-27.87 -48.73)"/><path class="a" d="M95.45,81.89c.09-.07,0,0,0,0Z" transform="translate(-27.87 -48.73)"/><path class="a" d="M96.16,81.89a.08.08,0,0,0,0,.07A.15.15,0,0,1,96.16,81.89Z" transform="translate(-27.87 -48.73)"/><path class="a" d="M91.9,85.85h0S91.93,85.85,91.9,85.85Z" transform="translate(-27.87 -48.73)"/><path class="a" d="M95.62,81.82l-.14.07Z" transform="translate(-27.87 -48.73)"/><path class="a" d="M95.57,81.8l.08,0S95.64,81.72,95.57,81.8Z" transform="translate(-27.87 -48.73)"/><path class="a" d="M95.33,82l.15-.1s0,0,0,0Z" transform="translate(-27.87 -48.73)"/><path class="a" d="M71.49,114.44l0,0C71.47,114.58,71.48,114.53,71.49,114.44Z" transform="translate(-27.87 -48.73)"/><polygon class="a" points="58.32 43.56 58.32 43.54 58.31 43.55 58.32 43.56"/><path class="a" d="M86,92.65a.38.38,0,0,1,.2-.36l-.32-.11Z" transform="translate(-27.87 -48.73)"/><path class="a" d="M76.71,105.18,77,105c0,.37-.23.55,0,.4-.27-.21.56-.94.29-1.15l.16-.12s0,.06-.05.1c.34-.22-.06-.36.23-.73.11-.12.22-.19.19-.07l.13-.36c.06-.08.09,0,0,.06l.28-.48h0a2.44,2.44,0,0,1,.05-.39c.11-.09,0,.08,0,.07l.1-.3c.14-.06.07.2-.05.37.44-.05.06-.27.57-.66l-.13.26c.27,0,.34-.27.63-.47-.1,0-.63.37-.51,0a.6.6,0,0,0,.21-.34c.1.06.18-.1.3-.28l.12.11c.1-.22,0-.26,0-.41a.39.39,0,0,1,.42-.17c.27-.33-.33.12-.06-.3a2.45,2.45,0,0,0,.51-.89c.19-.17,0,.09.14,0l0-.25s.06,0,.07,0c.07-.18-.12-.11,0-.37-.09-.17.55-.34.62-.73.09-.05,0,.09.12.1a3.31,3.31,0,0,0,.29-.81l.3-.21c-.25.13-.17-.21-.08-.51l-.24.09.21-.41c.06,0,.07,0,.08.14l0-.08c.15-.1.17,0,.16.17l-.17.07c0,.15,0,.3.11.34a.77.77,0,0,1,.06-.15s0,.07,0,.07,0-.06,0-.14l.2,0,0-.07.45-.39a4.49,4.49,0,0,1,.51-1.48c0,.22.14.17.25.27-.24,0-.26.46-.5.71.12-.13.15-.06.14,0l.27-.59c.09.1.15,0,.3-.13-.27-.07.18-.46.28-.7.08,0,.1.15-.11.37.36-.14.06-.52.4-.67,0,.06-.08.08-.07.13.06-.18.39-.47.37-.35l0,.06c.35-.36,1-1.14.89-1.34a1.6,1.6,0,0,1,.16.27l0-1.15c.08.18.6.24.41.63a1.1,1.1,0,0,0,.33-.4c-.07,0-.33,0-.27-.12a2.48,2.48,0,0,0,.61-.24c-.11.06-.23-.23-.09-.36,0,0,.22.18.2.25l.12-.54c0,.13.16.18.29.16-.07,0,.29-.29.36-.41l-.19.11c.41-.36.09-.66.47-1,0,.09.14.36.36.19a2.37,2.37,0,0,1,.14-1.31h.12l.19-.33a8.31,8.31,0,0,1-.24,1.47c.19-.1.11,0,.31-.2.13,0,0,.2-.08.27l.52-.47c-.14-.1.25-.51.13-.59l-.4.68c-.14-.09,0-.67.34-1,.14,0,.14.28.19.31a.9.9,0,0,1,.33-.41l-.09.21c.24-.14.17-.47.52-.58.1-.07.4-.08.35-.17a1,1,0,0,1-.72-.6,4.43,4.43,0,0,1,.73-.31c.25,0,0,.46.25.44,0,0,0-.15,0-.19s.06.13.24-.06c-.09-.16.4-.36,0-.19.15-.21.22-.16.44-.38-.15,0-.06-.46.1-.67,0,0,.09,0,.13,0,.39-.36.67-.48,1-.8.06,0,.28-.11.25,0a.51.51,0,0,1,.16-.26c.32-.08-.24.24,0,.22,0-.08.21-.35.33-.54-.15-.07-.4.3-.52.49-.14-.16,0-.57.33-1s.23,0,.26-.08c.61-.48.26-.71.85-1,.28-.06.18.2.28.24-.22.26-.44.27-.61.42l.25-.13a.86.86,0,0,1-.31.32c.24,0,1-.84,1.53-1.12.06-.1.17-.25.07-.23l-.14.13c-.2,0,.19-.34,0-.23a1.73,1.73,0,0,1,.62-.65l.15.07s-.24.08-.29.17c.07-.14.56-.17.56-.43l-.26.07a2.08,2.08,0,0,1,.58-.69c-.2,0,0,.06-.33.06.29,0-.65.49-.26.48-.31,0-.37.17-.72.22,0,0,.15,0-.08.16,0,0,0,0,0,.07h0s0,0,0,0l.15,0c0,.18-.36.43-.44.57s0-.09-.08-.08l-.11.21c-.09-.08-.44.12-.2-.17l-.26.22a1.25,1.25,0,0,0-.51.38c-.13.08-.22.35-.17.2l-.36.39,0,0c-.4.33-.69.84-1.27,1.07a2,2,0,0,1-.47.45l-.11,0c-.14.18-.55.39-.56.53-.35,0-.83.71-1.14,1l.07.1a4.8,4.8,0,0,0-.57.65l.09.07c-.15.26-.6.45-.92.78,0,0,.08-.13.16-.16-.58.19-.67,1-1.15,1.18a.5.5,0,0,1-.21.22l0,0,0,0-.16.08.14-.06a3.24,3.24,0,0,0-.23.3l-.13,0,0,0c-.13.07,0,.12.08.13a.91.91,0,0,0-.08.18c-.22,0-.21.32-.47.29,0,.13-.43.56-.33.76,0,0-.06,0,0,0a.83.83,0,0,0-.31.34l-.16-.05-.07.39c-.21.1-.31.13-.26-.11-.19.5-.22.36-.36.8l-.06-.08c-.1.11-.16.39-.28.4-.37.14-1.13,1.26-1.84,1.81.33,0-.35.24-.2.41-.09,0-.19.07-.15-.08-.23.39-.5.46-.55.82-.08,0,0-.14-.08-.13s0,.15-.1.16,0-.08,0-.16c-.28.37-.14.54,0,.69a.42.42,0,0,0-.28.43c-.1,0-.24.09-.08-.15-.11.12-.68.71-.57.82-.06,0-.14.17-.15.21a5.29,5.29,0,0,0-.47.59l.08-.07c.08.23-.13.27-.28.51v0c-.49.45-.11.27-.61.7l.12,0c.17.2-.45.38-.59.74l.13-.07c0,.22-.61.26-.76.41s0-.08,0-.14c-.44.35.09.15-.12.49-.11,0-.12-.19-.29,0s-.23.78-.55,1c.1,0,.19-.07.14.12s-.63.51-.59.84c0,0-.06,0-.07,0-.07.22-.31.65-.28.82-.46,0-.56,1.24-.88,1l-.34.57,0,0a1,1,0,0,0-.23.71c-.07.07-.07,0-.08,0a1.82,1.82,0,0,0-.49,1.11h-.13c0,.15-.62.68-.8,1.29a.12.12,0,0,1,0-.09c-.23.66-1.08,1.3-.8,1.73l-.11.46c.3-.51.14.16.31,0-.08.22-.39.47-.28.21l0,0c-.16-.2-.4.61-.54.53-.52,1-1.14,2-1.58,3l.22,0-.16.34c-.08.07-.19.06-.07-.18-.15.09-.11.45-.07.47-.29.45-.11-.27-.18-.13l-.08.21,0,0c0,.2.06.24-.08.53s-.15.06-.18.13,0,0-.06.11l-.21.43.21-.12c0,.22-.19.41,0,.27-.38.19-.77,1.6-.91,1.76a2.4,2.4,0,0,1-.25.92c.06-.08.23-.07.1.22-.27-.23-.34.47-.66.62.23-.15-.28.85.06.59-.12.24-.13,0-.27.13-.12.62-.53,1.27-.74,2,0,0,.15-.08.16.1l-.34.31c0,.15.2.21,0,.43,0,0,.12-.07.1,0a11.23,11.23,0,0,0-.74,2.16,8.2,8.2,0,0,1-.79,2.17c.14-.18.11,0,.07.11.05-.09.1,0,.17,0l-.33.57c.13.15-.17.66,0,.76l0-.2c.11.31.5-.26.72-.16-.12-.34.51-.68.35-1.23.08-.09,0,.11.12.07s-.05-.29.07-.55l0,0a11.45,11.45,0,0,1,.67-1.87l-.13,0a.89.89,0,0,1,.17-.27c-.1-.26-.17.5-.3.25.31-.16.42-1.26.73-1.33.1-.28-.15,0-.06-.24l.09,0-.06-.1c.07-.17.19-.24.25-.22s0,.13,0,.18c.16-.21.19-.67.25-.74l-.13.25c.18-.77.55-1.66.7-2.42l-.07,0c.11-.58.23-.42.41-1v0a1,1,0,0,1,.1-.47c0,.17.22-.24.22,0,.12-.63,0-.33,0-.79l.13-.06a.68.68,0,0,1,0-.5c0,.28.2-.13.19.18.42-.55.18-1,.58-1.17-.11-.38-.37.48-.35.3-.13.1-.07-.31,0-.49s.45-.21.66-.7c0,0,0,.06,0,.11.15-.16.08-.4.28-.58-.08-.19.14-.29,0-.41l-.16.47c.06-.27,0-.61.25-1a1,1,0,0,1,0,.3c.11-.1.07-.25.18-.36.17.12-.2.57-.19.91.14-.1.1-.58.24-.36-.16-.31.25-.46.2-.88l.1.07a1.18,1.18,0,0,1,0-.29l.06.24c0-.32.34-.47.39-.76-.24.54-.18.06-.36.25.15-.73.46-.24.77-1,0,.11-.25.34-.22.16a1.32,1.32,0,0,1,.32-.34c.22-.5-.15,0-.11-.22.22-.1.07-.27.14-.5l.11,0c.34-.51-.15-.26.18-.71l0,.29.1-.28.09.11a1.32,1.32,0,0,1,.29-.66c-.1,0-.17-.13-.05-.38s.05.15.21-.21c0,.12.07.25-.1.34,0,0,0,.12,0,.15a1.7,1.7,0,0,0,.31-.57.49.49,0,0,1-.1.13c0-.19.07-.39.12-.58s.08,0,.07.1c.05-.1,0-.2.11-.35a.27.27,0,0,1,.09.35l.17-.51s.23-.19.23-.11c.2-.23.2-.72.46-1a.22.22,0,0,1,0-.15,2.62,2.62,0,0,0,.57-1l.28-.12c.13-.32-.36.18-.13-.35.15-.38.2-.06.31-.16a1.11,1.11,0,0,1,.38-.84A1.35,1.35,0,0,1,76.71,105.18Zm2.23-3.6c0,.08-.06.26-.15.27C78.73,101.7,78.82,101.68,78.94,101.58Zm3.6-5.35c0,.08-.08.14-.19.19A.85.85,0,0,1,82.54,96.23Zm12-13.47h0C94.38,82.85,94.44,82.82,94.55,82.76Zm.33-.21s0,0,0,0-.07.1-.15.15S94.81,82.64,94.88,82.55ZM70.26,115.21l.06,0C70.28,115.33,70.27,115.27,70.26,115.21Z" transform="translate(-27.87 -48.73)"/><path class="a" d="M82.21,96.91a.08.08,0,0,1-.07,0S82.16,97,82.21,96.91Z" transform="translate(-27.87 -48.73)"/><path class="a" d="M75.44,107.48h0a0,0,0,0,0,0,0Z" transform="translate(-27.87 -48.73)"/><path class="a" d="M91.12,87.24a.33.33,0,0,1-.15.06S91,87.32,91.12,87.24Z" transform="translate(-27.87 -48.73)"/><path class="a" d="M96.35,81.13l-.18.17a.41.41,0,0,1,.2-.1S96.29,81.17,96.35,81.13Z" transform="translate(-27.87 -48.73)"/><path class="a" d="M98.49,80.41s.06,0,.08-.08l0,0C98.41,80.39,98.35,80.49,98.49,80.41Z" transform="translate(-27.87 -48.73)"/><path class="a" d="M96.78,81.3c.07.07.18,0,.3-.17l0,0C97,81,96.89,81.15,96.78,81.3Z" transform="translate(-27.87 -48.73)"/><path class="a" d="M97.11,81.1l.12-.1C97.21,80.94,97.17,81,97.11,81.1Z" transform="translate(-27.87 -48.73)"/><path class="a" d="M95.21,82.18c.08,0,0-.13,0-.12C95.22,81.9,94.9,82.51,95.21,82.18Z" transform="translate(-27.87 -48.73)"/><polygon class="a" points="69.23 32.75 69.1 32.69 69.09 32.83 69.23 32.75"/><path class="a" d="M96,82.24l.24-.14s0,0,0-.08C96.1,82.12,95.94,82.21,96,82.24Z" transform="translate(-27.87 -48.73)"/><path class="a" d="M96.23,82a.66.66,0,0,0,.17-.15A1.07,1.07,0,0,0,96.23,82Z" transform="translate(-27.87 -48.73)"/><polygon class="a" points="68.95 33.01 68.87 33.04 68.71 33.15 68.95 33.01"/><path class="a" d="M93.69,84.11l-.21.22c0,.06.09,0,.16-.06S93.75,84.11,93.69,84.11Z" transform="translate(-27.87 -48.73)"/><path class="a" d="M94.6,83.79a.3.3,0,0,1-.16,0l.09.12Z" transform="translate(-27.87 -48.73)"/><path class="a" d="M94,84.38c0,.05-.25.37,0,.12C94,84.45,94.19,84.23,94,84.38Z" transform="translate(-27.87 -48.73)"/><polygon class="a" points="62.63 38.52 62.68 38.47 62.5 38.29 62.63 38.52"/><path class="a" d="M88.12,90.47c.29-.21-.05-.17.22-.34,0-.1-.22.14-.2.05C88,90.37,87.94,90.43,88.12,90.47Z" transform="translate(-27.87 -48.73)"/><path class="a" d="M88.14,90.18l0-.11Z" transform="translate(-27.87 -48.73)"/><polygon class="a" points="37.72 79.67 37.61 79.87 37.73 79.75 37.72 79.67"/><path class="a" d="M65.65,128.87h-.17l.11.17C65.6,129,65.61,128.9,65.65,128.87Z" transform="translate(-27.87 -48.73)"/><path class="a" d="M79.57,101.26l0,0c-.06,0-.09,0-.16.13Z" transform="translate(-27.87 -48.73)"/><polygon class="a" points="49.91 55.01 49.95 54.97 49.77 54.97 49.91 55.01"/><path class="a" d="M76.57,106c.06-.09.09-.22.15-.3C76.63,105.93,76.4,106,76.57,106Z" transform="translate(-27.87 -48.73)"/><path class="a" d="M75.31,195.09c0-.05-.1,0-.12,0S75.33,195.08,75.31,195.09Z" transform="translate(-27.87 -48.73)"/><polygon class="a" points="48.09 146.96 48.05 146.97 48.2 147.02 48.09 146.96"/><path class="a" d="M76.38,196.36c.11-.15-.18-.22-.2-.38l0,0-.15,0C76.16,196.1,76.35,196.24,76.38,196.36Z" transform="translate(-27.87 -48.73)"/><path class="a" d="M76.27,196.93c0-.06.1,0,0-.1v0Z" transform="translate(-27.87 -48.73)"/><path class="a" d="M76.23,196.86c0-.07,0,.08,0,0Z" transform="translate(-27.87 -48.73)"/><path class="a" d="M76.47,197.16l-.11-.06c0,.05,0,.13,0,.12S76.45,197.25,76.47,197.16Z" transform="translate(-27.87 -48.73)"/><path class="a" d="M76.64,197.18l0,0S76.58,197.18,76.64,197.18Z" transform="translate(-27.87 -48.73)"/><path class="a" d="M76.47,197.08l.12.07s.06-.06,0,0C76.59,197.09,76.53,197.1,76.47,197.08Z" transform="translate(-27.87 -48.73)"/><path class="a" d="M76.46,197c0-.07,0-.15.09-.09C76.42,196.75,76.32,196.84,76.46,197Z" transform="translate(-27.87 -48.73)"/><path class="a" d="M76.55,196.3v-.1l-.08,0S76.51,196.34,76.55,196.3Z" transform="translate(-27.87 -48.73)"/><path class="a" d="M76.77,197.79s.07-.09.1-.12l-.08,0S76.82,197.75,76.77,197.79Z" transform="translate(-27.87 -48.73)"/><path class="a" d="M76.87,197.67l.12.07C76.94,197.64,76.9,197.64,76.87,197.67Z" transform="translate(-27.87 -48.73)"/><polygon class="a" points="48.95 148.36 48.73 148.27 48.97 148.39 48.95 148.36"/><polygon class="a" points="49.16 149.45 49.04 149.44 49.22 149.47 49.16 149.45"/><path class="a" d="M77.2,198.43c-.09,0-.06.13-.13.11a.49.49,0,0,0,.23.11A.27.27,0,0,1,77.2,198.43Z" transform="translate(-27.87 -48.73)"/><path class="a" d="M77.43,198.7l-.13,0Z" transform="translate(-27.87 -48.73)"/><path class="a" d="M77.09,197.92a.21.21,0,0,0,0,.14l.07-.1Z" transform="translate(-27.87 -48.73)"/><path class="a" d="M77.12,198h0l0,.09Z" transform="translate(-27.87 -48.73)"/><path class="a" d="M77.08,197.91h0S77.1,197.91,77.08,197.91Z" transform="translate(-27.87 -48.73)"/><path class="a" d="M76.91,197.41c.09,0,.22.12.22,0C77,197.35,77,197.45,76.91,197.41Z" transform="translate(-27.87 -48.73)"/><path class="a" d="M77.16,197.79l0-.12s0,.06-.08,0Z" transform="translate(-27.87 -48.73)"/><polygon class="a" points="49.36 149.09 49.3 149.06 49.32 149.1 49.36 149.09"/><path class="a" d="M77.39,198.45a.32.32,0,0,1,.15.13.67.67,0,0,0-.09-.21S77.34,198.39,77.39,198.45Z" transform="translate(-27.87 -48.73)"/><path class="a" d="M77.27,198.21h0S77.28,198.2,77.27,198.21Z" transform="translate(-27.87 -48.73)"/><polygon class="a" points="50.05 150.41 50.06 150.39 50.05 150.4 50.05 150.41"/><path class="a" d="M77.46,198.35a.11.11,0,0,0-.1-.08l.09.1S77.47,198.36,77.46,198.35Z" transform="translate(-27.87 -48.73)"/><path class="a" d="M77.58,198.83s0-.08,0-.12S77.55,198.83,77.58,198.83Z" transform="translate(-27.87 -48.73)"/><path class="a" d="M77.26,198.25h0S77.25,198.26,77.26,198.25Z" transform="translate(-27.87 -48.73)"/><path class="a" d="M77.26,198.25l.1,0-.08-.05Z" transform="translate(-27.87 -48.73)"/><path class="a" d="M78.6,198.92a.16.16,0,0,1-.22-.18c-.13-.06-.36.19-.45.38,0,0,.07,0,.19,0s-.05-.3.08-.27,0,.14.06.23c.06-.12.26.08.39-.05l-.13-.09S78.61,199,78.6,198.92Z" transform="translate(-27.87 -48.73)"/><path class="a" d="M77.8,198.91l0,0a.42.42,0,0,1,0,.22c.09.05.13,0,.16,0l-.13-.22Z" transform="translate(-27.87 -48.73)"/><path class="a" d="M77.63,198.68c.11,0,.22.06.27-.07s-.13,0-.22-.09c.16.19-.09,0,0,.15l-.1-.09,0,.13h0l0,0c0,.08,0,0,0,0h0l.19.18A.64.64,0,0,0,77.63,198.68Z" transform="translate(-27.87 -48.73)"/><path class="a" d="M77.4,197.34l0,0S77.41,197.37,77.4,197.34Z" transform="translate(-27.87 -48.73)"/><path class="a" d="M77.4,197.46a.07.07,0,0,1-.09-.05c0-.06,0,0,.07,0s-.13-.06-.11.06h0a.48.48,0,0,1,0,.28A.87.87,0,0,0,77.4,197.46Z" transform="translate(-27.87 -48.73)"/><path class="a" d="M77.54,198.06l.16.15,0-.14,0,0C77.63,198,77.58,198.05,77.54,198.06Z" transform="translate(-27.87 -48.73)"/><polygon class="a" points="50.02 150.46 49.91 150.5 50.12 150.51 50.02 150.46"/><polygon class="a" points="50.19 150.67 50.1 150.72 50.19 150.75 50.19 150.67"/><path class="a" d="M88.57,210.32l.06,0A.07.07,0,0,0,88.57,210.32Z" transform="translate(-27.87 -48.73)"/><path class="a" d="M88.27,210l0,0S88.28,210,88.27,210Z" transform="translate(-27.87 -48.73)"/><path class="a" d="M82,204.72c0,.13-.07.3,0,.22l.07-.09A.15.15,0,0,1,82,204.72Z" transform="translate(-27.87 -48.73)"/><path class="a" d="M85.42,207.76v0l-.11,0Z" transform="translate(-27.87 -48.73)"/><path class="a" d="M85.79,207.51l0,.13A.39.39,0,0,0,85.79,207.51Z" transform="translate(-27.87 -48.73)"/><path class="a" d="M90.33,211.91l.13,0C90.38,211.81,90.38,211.88,90.33,211.91Z" transform="translate(-27.87 -48.73)"/><path class="a" d="M79.68,201.64a.38.38,0,0,0,.06.19C79.74,201.72,79.77,201.6,79.68,201.64Z" transform="translate(-27.87 -48.73)"/><path class="a" d="M87.62,211a.13.13,0,0,0,.09,0S87.64,211,87.62,211Z" transform="translate(-27.87 -48.73)"/><path class="a" d="M79.87,202v0a.4.4,0,0,1-.13-.13A.16.16,0,0,0,79.87,202Z" transform="translate(-27.87 -48.73)"/><path class="a" d="M96.75,217.67v0S96.76,217.68,96.75,217.67Z" transform="translate(-27.87 -48.73)"/><path class="a" d="M98.08,220.08,98,220A.17.17,0,0,0,98.08,220.08Z" transform="translate(-27.87 -48.73)"/><path class="a" d="M78.63,200.33c0-.05,0,0,0,0Z" transform="translate(-27.87 -48.73)"/><path class="a" d="M78.83,199.85h0Z" transform="translate(-27.87 -48.73)"/><path class="a" d="M80.75,202.07h0S80.76,202.05,80.75,202.07Z" transform="translate(-27.87 -48.73)"/><path class="a" d="M78.62,200.23a.31.31,0,0,0,0,.08A.45.45,0,0,0,78.62,200.23Z" transform="translate(-27.87 -48.73)"/><path class="a" d="M78.59,200.27l0-.05S78.54,200.24,78.59,200.27Z" transform="translate(-27.87 -48.73)"/><path class="a" d="M78.68,200.39a.59.59,0,0,1,0-.08v0Z" transform="translate(-27.87 -48.73)"/><path class="a" d="M93,214.92h0C93.09,214.94,93.07,214.93,93,214.92Z" transform="translate(-27.87 -48.73)"/><polygon class="a" points="55.95 156.43 55.94 156.43 55.94 156.44 55.95 156.43"/><path class="a" d="M84,205.27c-.16,0-.17,0-.19-.1l-.2.25Z" transform="translate(-27.87 -48.73)"/><path class="a" d="M89.32,211l0-.17c.24,0,.28.13.29-.06-.26.23-.41-.37-.67-.14v-.12s0,0,0,0c0-.24-.27.08-.4-.12s0-.16,0-.14l-.19-.08s0-.07.05,0l-.21-.18h0a1,1,0,0,1-.25,0c0-.08,0,0,.07,0l-.17,0c0-.11.17-.08.24,0,.14-.34-.15,0-.22-.4l.13.08c.07-.2,0-.24-.08-.44,0,.07,0,.45-.17.38,0-.05,0-.1-.16-.12.09-.08,0-.13-.07-.2l.12-.11c-.12,0-.17,0-.27,0s0-.22,0-.31c-.13-.17,0,.24-.24.08s-.21-.22-.42-.31c-.05-.13.08,0,.09-.11h-.17s0,0,0-.05-.12.1-.25,0c-.16.09,0-.4-.28-.4,0-.06.09,0,.12-.1a1.37,1.37,0,0,0-.48-.13l0-.2c0,.18-.22.15-.4.12a.75.75,0,0,0,0,.17l-.22-.11s.06-.06.14-.07h-.06c0-.1.09-.13.19-.15l0,.13a.51.51,0,0,0,.29-.12l-.08,0,.06,0s0,0-.09,0l.1-.16-.06,0-.12-.3a1.64,1.64,0,0,1-.87-.21c.15,0,.17-.13.29-.23-.07.18.23.16.32.31-.05-.08,0-.11,0-.11l-.32-.14c.1-.08,0-.11,0-.21-.15.21-.28-.07-.42-.11.06-.07.15-.1.23,0,0-.25-.37,0-.35-.21,0,0,0,.06.07,0-.12,0-.21-.22-.12-.23l0,0c-.13-.22-.49-.59-.68-.48l.27-.16-.84.12c.16-.09.4-.48.61-.39a.25.25,0,0,0-.17-.19c0,.05-.14.24-.19.21a1.39,1.39,0,0,0,0-.41c0,.07-.26.2-.31.12s.21-.18.25-.17h-.36c.07,0,.19-.15.22-.24,0,.06-.13-.16-.19-.2v.12c-.14-.23-.48,0-.63-.18.06,0,.33-.16.27-.29a1.77,1.77,0,0,1-1,.1l0-.09-.19-.08a4.6,4.6,0,0,1,1.05,0c0-.12.06-.09,0-.2s.14,0,.17,0l-.18-.3c-.12.11-.3-.11-.4,0l.37.19a.49.49,0,0,1-.64-.1c0-.09.26-.14.3-.18s-.23-.12-.21-.17l.14,0c0-.15-.32,0-.29-.27,0-.06.06-.27,0-.22a1.94,1.94,0,0,1-.71.61,1.82,1.82,0,0,1,0-.47c.06-.17.37-.1.42-.25a.24.24,0,0,1-.14,0c0-.08.13-.07,0-.16-.15.08-.15-.23-.15,0-.12-.07-.06-.13-.16-.24,0,.1-.38.11-.5,0a.24.24,0,0,0,.08-.1c-.15-.22-.17-.39-.31-.59,0,0,0-.17.08-.17a.27.27,0,0,1-.16-.06c0-.21.12.12.19-.08-.08.05-.22-.08-.34-.13-.1.12.13.22.24.28a.63.63,0,0,1-.69-.06c-.17-.13.06-.15,0-.16-.2-.34-.49,0-.56-.4,0-.19.21-.16.28-.24.14.1.08.26.15.34l0-.15a.25.25,0,0,1,.17.16c0-.15-.37-.54-.45-.85-.07,0-.16-.06-.18,0l.07.07c0,.13-.22-.06-.2.07-.13-.06-.31-.11-.36-.3l.11-.11s0,.15,0,.16,0-.34-.19-.3l0,.17c-.13-.06-.36-.1-.41-.26-.08.14,0,0,0,.21.13-.2.23.34.33.08-.1.22,0,.22,0,.44,0,0,.05-.1.11,0h.05s0,0,0,0a.19.19,0,0,1,0-.1c.13,0,.25.17.34.19s-.07,0-.09.08l.14,0c-.09.08,0,.28-.19.17l.09.14a.35.35,0,0,0,.16.28c0,.08.21.09.1.09l.21.17,0,0c.14.22.47.32.48.68a.7.7,0,0,1,.22.25l-.07.08c.1.07.13.33.24.31-.13.25.29.47.37.65l.11-.07a1.23,1.23,0,0,0,.33.3l.08-.08c.16.06.16.35.31.52,0,0-.07,0-.07-.08,0,.37.5.34.51.65.08,0,.09.06.1.12h0l0,0v0a.65.65,0,0,0,.15.12l-.07.1h0c0,.08.08,0,.13-.08l.11,0c-.11.17.17.11.06.3.11,0,.28.23.47.12,0,0,0,.05,0,0s.06.15.15.17l-.09.12h.26c0,.14,0,.21-.17.2.3.08.18.11.46.16l-.08.06c0,.06.23.06.2.15,0,.25.53.67.68,1.12.16-.26,0,.24.22.1,0,.07,0,.14-.12.13.2.12.15.32.39.31,0,.07-.11,0-.12.08s.09,0,.08.06-.07,0-.12,0c.17.17.34,0,.5-.07,0,.14.06.18.21.16,0,.07,0,.17-.14.07,0,.07.26.44.38.33,0,.05.07.1.09.1a2.26,2.26,0,0,0,.25.28l0,0c.19-.08.13.08.25.17h0c.12.33.14.06.25.4l.07-.09c.21-.16.09.31.29.38v-.1c.14,0-.06.45,0,.55s0,0-.08,0c.07.3.13-.09.3,0,0,.08-.19.11-.11.22s.46.1.48.34c0-.07,0-.15.13-.11s.1.44.34.39a.11.11,0,0,1,0,.06c.11,0,.31.19.44.16-.23.36.61.34.34.61l.25.22,0,0a.35.35,0,0,0,.37.15s0,0,0,.06c.17.28.21.29.53.33l-.07.11c.1,0,.19.46.51.57a.06.06,0,0,1-.06,0c.35.14.36.83.77.58l.24.08c-.19-.23.17-.12.13-.25.1.06.13.3,0,.22v0c-.2.14.21.31.09.42.44.39.77.87,1.17,1.23l.08-.17.13.13c0,.06,0,.15-.14.06,0,.12.23.08.26.05.15.23-.22.1-.16.15l.09.07v0c.11,0,.17,0,.29.07s0,.12,0,.15,0,0,0,0l.17.17,0-.17c.12,0,.16.16.18,0,0,.3.62.65.65.77a.67.67,0,0,1,.42.24c0-.05.07-.19.18-.08-.26.22.12.3.07.56,0-.19.37.26.37,0,.09.1-.07.1,0,.23.31.1.48.5.8.7,0,0,0-.12.13-.12l0,.3c.07,0,.21-.16.22,0,0,0,0-.11.07-.08.46.64,1.32.81,1.69,1.59,0-.14,0-.1.09-.06s.07-.08.1-.14l.15.33c.15-.1.29.2.41.09l-.1,0c.22-.07.09-.44.25-.62-.24.08-.12-.49-.5-.4,0-.07.08,0,.09-.09s-.18,0-.27-.11h0a3.73,3.73,0,0,1-.71-.72l0,.12a.36.36,0,0,1-.08-.17c-.19.08.2.18,0,.27,0-.27-.53-.42-.42-.69-.11-.09,0,.14-.17,0l0-.08-.09.05a.21.21,0,0,1,0-.23.36.36,0,0,0,.09,0c0-.15-.29-.19-.31-.24l.08.12a7.47,7.47,0,0,0-1.06-.7v.06c-.29-.1-.14-.19-.42-.36h0a.32.32,0,0,1-.23-.09c.1,0,0-.2.09-.18-.32-.12-.18,0-.47,0l0-.1a.33.33,0,0,1-.28,0c.15,0,0-.17.19-.16-.13-.37-.51-.17-.43-.5-.29.1.12.3,0,.29s-.22.06-.28,0,.07-.37-.13-.54c0,0,0,0,0,0s-.21-.06-.23-.23c-.15.07-.12-.11-.26,0l.22.13c-.14-.06-.4,0-.5-.21a.37.37,0,0,1,.18,0c0-.09-.12-.06-.13-.15.14-.14.25.17.47.15,0-.11-.31-.08-.11-.19-.27.13-.18-.2-.46-.17l.09-.08s-.12,0-.15,0l.17-.05c-.2,0-.14-.27-.29-.31.22.19,0,.15,0,.3-.38-.13,0-.38-.29-.61,0,0,.11.19,0,.17a.46.46,0,0,1-.08-.25c-.22-.17,0,.12-.19.09,0-.17-.14,0-.26-.09l.09-.09c-.18-.27-.24.13-.38-.13l.2,0-.13-.07.11-.08c-.18,0-.2-.09-.29-.22a.17.17,0,0,1-.27.06c0-.12.12-.05,0-.17.09,0,.19-.06.17.08,0,0,.09,0,.12-.05s-.17-.19-.23-.23a.1.1,0,0,1,0,.07l-.32-.08c0-.06.05-.06.1-.06s-.12,0-.18-.07.15-.13.26-.09l-.26-.1s0-.18,0-.19-.4-.11-.49-.31c0,0,0,0-.08,0s-.16-.34-.41-.4l0-.21c-.16-.1,0,.27-.29.12s.05-.16,0-.25-.38,0-.41-.24C89.26,211,89.27,211,89.32,211Zm-1.54-1.47s.16,0,.13.09S87.8,209.65,87.78,209.57Zm-2.4-2.2c.05,0,.07,0,.07.12A.18.18,0,0,1,85.38,207.37Zm-6.31-6.59h0C79.1,200.88,79.09,200.85,79.07,200.78ZM79,200.6s0,0,0,0,.06,0,.08.07S79.06,200.63,79,200.6Zm13.94,15.33v-.05C93,215.91,93,215.92,92.94,215.93Z" transform="translate(-27.87 -48.73)"/><path class="a" d="M85.75,207.54a.21.21,0,0,1,0,.06S85.76,207.58,85.75,207.54Z" transform="translate(-27.87 -48.73)"/><polygon class="a" points="62.44 163.19 62.45 163.19 62.47 163.18 62.44 163.19"/><path class="a" d="M81.6,202.39a.13.13,0,0,1,0,.09S81.63,202.44,81.6,202.39Z" transform="translate(-27.87 -48.73)"/><path class="a" d="M78.25,199.87l.1.08a.13.13,0,0,1,0-.11S78.27,199.9,78.25,199.87Z" transform="translate(-27.87 -48.73)"/><path class="a" d="M78.26,198.56s0,0-.05,0l0,0C78.22,198.62,78.28,198.64,78.26,198.56Z" transform="translate(-27.87 -48.73)"/><path class="a" d="M78.52,199.55c.07-.07,0-.11-.06-.17h0C78.33,199.45,78.43,199.5,78.52,199.55Z" transform="translate(-27.87 -48.73)"/><path class="a" d="M78.44,199.36l0-.06C78.34,199.32,78.4,199.33,78.44,199.36Z" transform="translate(-27.87 -48.73)"/><path class="a" d="M78.81,200.43c0-.05-.12.06-.1,0S79,200.58,78.81,200.43Z" transform="translate(-27.87 -48.73)"/><polygon class="a" points="50.88 150.57 50.8 150.66 50.91 150.65 50.88 150.57"/><path class="a" d="M79.06,199.91l0-.13s0,0-.05,0S79,199.94,79.06,199.91Z" transform="translate(-27.87 -48.73)"/><path class="a" d="M79,199.77s0-.07-.08-.08A.2.2,0,0,0,79,199.77Z" transform="translate(-27.87 -48.73)"/><polygon class="a" points="51.02 150.7 51.02 150.75 51.07 150.84 51.02 150.7"/><path class="a" d="M79.91,201.13l.11.1s0-.06,0-.09S79.93,201.09,79.91,201.13Z" transform="translate(-27.87 -48.73)"/><path class="a" d="M79.92,200.57s0,.06,0,.1l.13-.08Z" transform="translate(-27.87 -48.73)"/><path class="a" d="M80.2,200.9s.23.1.11-.05C80.27,200.87,80.15,200.77,80.2,200.9Z" transform="translate(-27.87 -48.73)"/><polygon class="a" points="53.53 154.1 53.51 154.07 53.31 154.23 53.53 154.1"/><path class="a" d="M83.1,204c-.06-.18-.14.06-.18-.11-.08,0,0,.14,0,.14C83,204.1,83,204.16,83.1,204Z" transform="translate(-27.87 -48.73)"/><path class="a" d="M82.88,204.05l-.06,0Z" transform="translate(-27.87 -48.73)"/><polygon class="a" points="70.47 171.71 70.53 171.83 70.52 171.71 70.47 171.71"/><path class="a" d="M98.63,220.43l-.08.14.14-.07S98.62,220.47,98.63,220.43Z" transform="translate(-27.87 -48.73)"/><path class="a" d="M87.8,209.11l0,0c0,.05,0,.07,0,.11Z" transform="translate(-27.87 -48.73)"/><polygon class="a" points="60.92 161.57 60.9 161.55 60.83 161.69 60.92 161.57"/><path class="a" d="M89.82,211.1s-.1-.07-.13-.11S89.7,211.24,89.82,211.1Z" transform="translate(-27.87 -48.73)"/></svg>