<?xml version="1.0" encoding="utf-8"?>
<!-- Generator: Adobe Illustrator 24.2.3, SVG Export Plug-In . SVG Version: 6.00 Build 0)  -->
<svg version="1.1" id="Lager_1" xmlns="http://www.w3.org/2000/svg" xmlns:xlink="http://www.w3.org/1999/xlink" x="0px" y="0px"
	 viewBox="0 0 640 482" style="enable-background:new 0 0 640 482;" xml:space="preserve">
<style type="text/css">
	.st0{fill:#FDE9E8;}
	.st1{fill:#CDCCCC;}
	.st2{fill:#F08583;}
	.st3{fill:#F5E4D4;}
	.st4{fill:#FDFDFD;}
	.st5{fill:#FAD2C6;}
	.st6{fill:#F6BE61;}
	.st7{fill:#020203;}
	.st8{fill:#473632;}
	.st9{fill:#E1E3E1;}
	.st10{fill:#E3CEBF;}
	.st11{fill:#262B2B;}
	.st12{fill:#EFD7C2;}
	.st13{fill:#E2A956;}
	.st14{fill:#F8C0B2;}
	.st15{fill:#0D1716;}
	.st16{fill:#CDCCCC;stroke:#CDCCCC;stroke-miterlimit:10;}
	.st17{fill:#A4A4A3;}
	.st18{fill:#979797;}
	.st19{fill:none;}
	.st20{fill:none;stroke:#E2A956;stroke-miterlimit:10;}
	.st21{fill:#D36C6D;}
	.st22{fill:#CCCDCD;}
	.st23{fill:#196659;}
	.st24{fill:#D19741;}
	.st25{fill:#D4ECF3;}
	.st26{fill:#2D8E76;}
	.st27{fill:#7FC9C5;}
	.st28{fill:#4EAFA1;}
	.st29{fill:#3FA08F;}
	.st30{fill:#8CCECE;}
	.st31{fill:#2BA490;}
	.st32{fill:#53B2A4;}
	.st33{fill:#2E8C88;}
	.st34{fill:#59B1A9;}
	.st35{fill:#379387;}
	.st36{fill:#3A8D7E;}
	.st37{fill:#44AAA0;}
	.st38{fill:#229182;}
	.st39{fill:#29A18F;}
	.st40{fill:#429D9E;}
	.st41{fill:#35908F;}
	.st42{fill:#21A292;}
	.st43{fill:#2B7C72;}
	.st44{fill:#23A694;}
	.st45{fill:#72C5C8;}
	.st46{fill:#4EB3B0;}
</style>
<g id="Lager_2_1_">
	<path class="st0" d="M40.5,131.5C37.3,8.7,181.8-20.3,314,17.2C506,71.8,547.4,113.3,564.5,128.1c94.7,82.1,83.9,195.5,54,241.3
		c-47.4,72.8-103.2,66.3-176.4,63c-95-4.2-138.8,4.8-228.4,16.4C97.9,463.8,6.2,400.4,0.5,317.9C-3.4,260.1,39.6,201.3,40.5,131.5z"
		/>
	<path class="st1" d="M459.6,327.3c0,0,1.1,138.1,0.5,142.9c-0.6,4.8-4.7,4.1-5.9,0c-1.2-4.1-21.9-129.1-21.9-129.1
		C444.7,337.5,453.4,332.1,459.6,327.3z"/>
	<path class="st1" d="M374.6,341.7l-0.3,0.9c0,0-14.8,125.8-15.8,130c-1,4.1-5.1,5-5.9,0.3c-0.6-3.3-3.3-68.7-4.9-109.9
		c4.8-12.2,9.8-25.1,10.7-29c0.1-0.4,0.2-0.7,0.3-1C358.7,333,363.4,338,374.6,341.7z"/>
	<path class="st0" d="M352.8,349.9c0,0-1.7,47.4,0,51s8.7,3.6,9.8-0.9c1-4.4,7.7-59.9,7.7-59.9l-11.5-10.4L352.8,349.9z"/>
	<path class="st0" d="M454.8,348.4c0,0,1.7,47.4,0,51c-1.7,3.6-8.7,3.6-9.8-0.9s-7.7-59.9-7.7-59.9l17.3-11.8L454.8,348.4z"/>
	<path class="st2" d="M491.2,247.7c1,9.3-0.6,22.3-0.6,22.3v0.9h-26.8v-0.6l-0.1-5.7l-0.2-0.5c1.1-0.5,2.2-1.1,3.2-1.6
		c8.5-4.4,18.7-17.2,18.7-17.2s2.6-2.4,4.8-7C490.3,238.4,490.3,238.4,491.2,247.7z"/>
	<path class="st2" d="M463.1,215.9c0,0,4.4-1.7,11.2-0.1c0,0,0.4,2.9-1.6,7c-2,4.1-7.2,10.9-8.9,12c-1.6,1.1-1.8,1.1-1.8,1.1
		L463.1,215.9z"/>
	<polygon class="st3" points="372.5,295 373.7,287.5 463.9,287.5 463.8,295 	"/>
	<path class="st4" d="M168.7,287.5h-12.5h-19.4H97.4c0,0-15.1-9.5,0-16.6h15.8c0,0,0,0,0,0s6.3,0.2,9,0h0h1.6h0.1c0.7,0,4.3,0.1,7,0
		h0h33.5H183c0,0,5.8,0.2,9.3,0h2.2c0,0,6.2,0.3,9.6,0h1.4h28.1h41.1h0.9h4.6h102.2h57.1h7.7h16.5h26.8h21c9.2,9.2,0,16.6,0,16.6
		h-2.2h-23.6h-21.9h-90.3H188H168.7z"/>
	<path class="st5" d="M446.7,131.6c0.1,0.2,0.2,0.4,0.4,0.6c-0.2,1-0.7,3.1-1.9,7.2c-0.7,2.2-1.5,4.3-2.5,6.3
		c-3.7,7.7-8.8,13.4-8.8,13.4c-8.8,8.5-14.9,12.5-30.9,14.9c-8,1.2-14.5,1.1-19.9,0.2c-0.1,0-0.3,0-0.4-0.1c-5.9-1-10.5-3-14.4-5.5
		c-2.4-1.5-4.6-3.2-6.6-4.9c-8.1-6.9-9.8-17.3-9.8-17.3l-0.3-3.9c1.1,0.9,2.5,1.5,4.1,1.5c3.5,0,6.3-2.8,6.3-6.3
		c0-3.5-2.8-6.3-6.3-6.3c-1.7,0-3.2,0.6-4.3,1.7c-0.1-2.4-0.3-4.8-0.6-7.1c8.5,0.4,10.4,0.6,14.6,0c2.4-0.3,4.4-1,7.6-6.2
		c2.7-4.6,6.3-13.6,6.3-13.6l7.3,0.2c0,0,2.1,9.1,3.7,12.7c1.8,3.9,6.2,6,9.6,6.7c3.5,0.7,18.1,1.7,22.6,0c4.2-1.6,8.4-4.4,9.6-10.5
		c0.9-4.6,0-15.3,0-15.3s4.6,0,9.9-0.1C452.9,109.2,439.7,120.1,446.7,131.6z M435.8,135.6c0-3.5-2.8-6.3-6.3-6.3
		c-3.5,0-6.3,2.8-6.3,6.3c0,3.5,2.8,6.3,6.3,6.3C433,141.9,435.8,139.1,435.8,135.6z M413.5,144l-17,1.2c0,0,0,0-0.1,0l-19.3,1.4
		c0,0,1.7,5,6.2,7.9c2.7,1.7,6.4,2.7,11.4,1.3C407.8,152,413.5,144,413.5,144z"/>
	<path class="st6" d="M437.5,40c5.8,3.9,9.1,8.6,11.2,13.5c0.2,0.4,0.3,0.7,0.5,1.1c1.8,4.5,2.5,9.1,3.4,12.9
		c1.6,7.3-0.3,19.1-1.9,26.8c-1.9-0.1-3.8-0.2-3.8-0.2s-7.5-0.4-17.2-0.6c-4.5-2-9.2-4.3-13.3-6.5c-0.9-0.5-1.8-1-2.7-1.6
		c-2.2-1.4-4.4-2.8-6.5-4.4c-9.5-7-17.1-14.9-17.1-14.9c4.3-15.2,17.5-31.9,31.8-32.6c2.7,0.6,5.1,1.4,7.3,2.2
		C432.2,37,435.1,38.4,437.5,40z"/>
	<path class="st2" d="M485.8,288.5c0,0,0.3,1.3-3,9.6c-3.3,8.2-9,9.9-9,9.9s0,0-0.7,2.7c-0.7,2.7-3,8.4-13.5,16.6
		c-6.2,4.9-14.9,10.2-27.3,13.8c-8.5,2.5-18.7,4.1-31.1,4.3c-11.3,0.1-20.1-1.5-26.6-3.7c-11.1-3.6-15.9-8.7-15.9-8.7
		c2.3-7,9.6-5.6,9.6-5.6s50.7,0.3,62.7,0c12-0.3,16-3,24-9.3c8-6.4,8.8-22,8.8-22v-1l0.1-7.6h21.9L485.8,288.5L485.8,288.5z"/>
	<path class="st7" d="M359.5,103.1l-1.3,0.8l0-0.2c0.4-0.3,0.8-0.6,1.2-0.8L359.5,103.1z"/>
	<path class="st5" d="M351.3,93.3c-0.7,0-1.5,0.1-2.2,0.2c1.9-1.9,4.6-4.4,8.3-7.7h0c5.2,0.2,13.9-0.4,19-0.6c0.9-6-6.2-4.1-7.7-4.3
		l-6,0.3c0.2-0.1,0.3-0.3,0.5-0.4c9.6-8.2,16.4-11.9,20.7-13.5c4-1.5,5.8-1.2,5.8-1.2S397.5,74,407,81c-4-0.1-10.2-1.6-9.4,4.2
		c5.1,0.2,10.8-0.3,15.9,0.2v0c0.9,0.6,1.8,1.1,2.7,1.6c4.1,2.2,8.7,4.5,13.3,6.5c-14.5-0.4-34.1-0.6-41.5,0.6
		c-1.1,0.2-1.1,1.9-1.2,4.4c-0.1,2.5,0,3.2,0,3.2H380c0,0,0.1-7.8-1.7-7.9C371.4,93.2,360.3,92.8,351.3,93.3z"/>
	<path class="st5" d="M350.8,126c0.3,2.3,0.6,4.7,0.6,7.1c-0.2,0.1-0.3,0.3-0.4,0.4l-0.6-7.5C350.6,126,350.7,126,350.8,126z"/>
	<path class="st6" d="M447.2,128.6c0.6,2.5,2.8,5.4,6,8.5c1.4,1.4,2.9,3.6,2.6,3.3c-1.9-1.3-7.3-6.2-8.7-8.3
		c0.3-1.6-0.3-0.8-0.4-0.6c-6.9-11.5,6.2-22.4-4.8-31.7c0.8,0,1.7,0,2.5,0c0.8,0.4,1.6,0.7,2.2,0.9c1.4,0.6,2.2,0.9,2.2,0.9
		s0-0.1,0.1-0.2c0.5,0.1,0.9,0.3,1.4,0.5c0.4,0.7,0.8,1.4,1.1,2.5C454.7,113.3,445.3,120.6,447.2,128.6z"/>
	<path class="st6" d="M346.5,88.8L346.5,88.8c1.3-9.7,8-17,15.8-22c6.1-3.8,12.7-6.6,19.6-8.1l4.4,2c-1.7,3.8-2.4,6.5-2.4,6.5v0
		c-4.3,1.6-11.1,5.2-20.7,13.5c-0.2,0.1-0.3,0.3-0.5,0.4c-2,1.7-3.8,3.2-5.3,4.6h0c-3.7,3.3-6.4,5.8-8.3,7.7
		c-1.5,0.1-2.8,0.3-4.1,0.4c0.1-0.5,0.1-1,0.2-1.5v0C345.5,91.2,346,90,346.5,88.8z"/>
	<path class="st6" d="M452.9,54c-2,0.7-3.3,0.6-3.8,0.6c-0.1-0.4-0.3-0.7-0.5-1.1l0.1-0.1c15.9-7.4,14.4-34.8-4.8-35.5
		c-12.5-1.8-13,15.2-6.5,22.1c-2.4-1.6-5.2-3.1-8.5-4.3C409.9,10.4,450.5,0.4,463,20.2c4.2,11.7,1.3,26.1-4.4,30.6
		C456.4,52.5,454.5,53.5,452.9,54z"/>
	<path class="st8" d="M351.3,93.3c-1.3,1.5-2.2,3.2-2.8,5c-1.7,0.1-3.2,0.2-4.4,0.3c0.1-1.6,0.4-3.2,0.7-4.7c0.1,0,0.2,0,0.2,0
		c-0.2,2.1-0.3,3.6-0.4,4.3c0,0,0.8-1.2,4.5-4.8C349.8,93.4,350.5,93.3,351.3,93.3z"/>
	<path class="st6" d="M348.5,98.3c-2.2,6.7,0.2,15.2,1.8,24.3c-1.3-0.1-2.6-0.3-3.6-0.4c-1.5-8-3.2-16.1-2.7-23.6
		C345.2,98.5,346.8,98.4,348.5,98.3z"/>
	<path class="st8" d="M455.5,100c-1.2-0.1-3.4-0.1-6.1-0.1c0-0.1-0.1-0.2-0.1-0.3c0.1-0.6,0.3-1.3,0.5-2.1c0.2-1,0.5-2,0.7-3.2
		c1.2,0.1,2.4,0.2,2.9,0.4C454.7,95.2,456.9,100.1,455.5,100z"/>
	<path class="st7" d="M358.2,103.8l-0.4-2.1l1.6,1.3C358.9,103.2,358.5,103.5,358.2,103.8z"/>
	<polygon class="st3" points="559.5,288 601.4,476.6 583.2,476.6 540.1,288 540.1,287.5 559.5,287.5 	"/>
	<path class="st9" d="M593.5,270.8c0,0,11.3,8.3,0,16.6h-34h-19.4h-11.3h-17.2c0,0,9.2-7.4,0-16.6H593.5z"/>
	<polygon class="st10" points="528.8,288 566.5,463.7 548.3,463.3 509.5,287.6 509.5,287.5 511.7,287.5 528.8,287.5 	"/>
	<path class="st3" d="M425.8,247.8c0-0.8-0.2-4.9-3.4-8.7c-3.6-4.1-14.5-7.3-14.5-7.3l-34.5,0.5l-1.2,0h-4.8c0,0-1.2,16.7-0.1,23.1
		l-0.8,0.1l-65.8,0.4c-1-1.8-5.7-7.1-5.7-7.1s24.3,1.2,37.2-1c12.9-2.2,25.9-12.1,28.7-18.1c2.8-6,4.3-35.4,4.3-35.4L368,169
		c0,0,8.8,9.2,25.1,11.8c16.3,2.7,34.1,4.9,58.9-19.2l0,0c32.7,4.8,40.6,22.5,40.6,22.5c10.7,21.4,3.1,43.3-2.3,54.3
		c-2.2,4.6-4.2,6.9-4.2,6.9s-10.9,12.8-19.3,17.2c-1,0.6-2.1,1.1-3.2,1.6c-7.8,3.7-16.2,6.7-16.2,6.7h-7.7c0,0-0.9-10.1-5.8-15.9
		c-2.5-3-6.9-5.5-12.6-6.9C421.4,248,423.2,247.9,425.8,247.8z M463.3,235.4c6.6-6.5,11.9-15.5,11.3-31.2
		c-0.7-16.6-11.1-16.8-11.1-16.8L463.3,235.4z"/>
	<path class="st11" d="M355.3,295.3L355.3,295.3c9.5-0.2,16.2-0.3,16.2-0.3h0.9h91.3v1c0,0-0.7,15.6-8.8,22c-8,6.4-12,9-24,9.3
		c-12,0.3-62.7,0-62.7,0s-7.3-1.4-9.6,5.6c-0.1,0.3-0.2,0.7-0.3,1c-0.9,4-5.9,16.8-10.7,29c-5.1,12.9-10.1,25.1-10.1,25.1
		l-14.2,42.1l-1.2,2.6c0,0-1.5,0.3-4.1,0.5c-3.6,0.3-9.3,0.5-15.4-0.5c-2.8-0.5-5.7-0.8-8.3-1.1c-4.2-0.6-7.7-1.3-8.9-3.4
		c-0.8-1.4,0.8-4.1,1.8-6.6c3.3-8.5,26.5-69.1,26.5-69.1s6.4-21.9,7.1-23.8c0.2-0.6,0.6-1.6,0.9-2.6c0-0.1,0.1-0.2,0.1-0.3
		c0.9-2.4,2-5,1.9-4.7c0,0,0,0.1-0.1,0.1C327.6,312.3,337.3,295.9,355.3,295.3z"/>
	<path class="st3" d="M463.8,270.3v0.6h-16.5c0,0,8.5-3,16.2-6.7l0.2,0.5L463.8,270.3z"/>
	<path class="st6" d="M458.3,12.2c1.4,1.6,2.7,3.4,3.6,5.4c0.4,0.8,0.7,1.7,1,2.6c-12.5-19.8-53.1-9.8-34.1,15.5
		c-2.2-0.8-4.6-1.6-7.3-2.2c-0.1,0-0.2,0-0.2-0.1c-1-0.2-2-0.4-3-0.6c-1.1-0.2-2.3-0.4-3.5-0.6l0.1-0.5c0,0-0.1-0.6-0.2-1.7
		c-0.4-4.3-0.7-15.7,5-22.3c1.8-2.1,4.3-3.7,7.5-4.5C437.1,0.9,450.7,3.7,458.3,12.2z"/>
	<path class="st5" d="M456.8,107c3,3.8,4.1,11.5,0.8,17.4c-2.4,4.3-10,4.3-10.5,4.3c-1.7-8,6.8-15.4,3.9-24.3
		c-0.3-1-0.4-1.7-0.7-2.5C452.6,102.9,454.9,104.5,456.8,107z M451.4,124.7c0-0.8-0.6-1.4-1.3-1.4c-0.7,0-1.3,0.6-1.3,1.4
		s0.6,1.4,1.3,1.4C450.8,126.1,451.4,125.5,451.4,124.7z"/>
	<path class="st12" d="M452,161.6L452,161.6c-24.8,24.1-42.6,21.9-58.9,19.2C376.8,178.2,368,169,368,169v-0.6
		c3.9,2.4,8.8,4.6,14.7,5.6c0.1,0,0.3,0.1,0.4,0.1c12,2.2,36.1,11.4,62.1-13.2C447.5,161,449.8,161.3,452,161.6
		C452,161.6,452,161.6,452,161.6z"/>
	<path class="st7" d="M450.3,123.3c0.8,0,1.4,0.6,1.4,1.4s-0.6,1.4-1.4,1.4s-1.4-0.6-1.4-1.4C448.9,123.9,449.5,123.3,450.3,123.3z"
		/>
	<path class="st13" d="M447.8,26.2c6.8,0.2,8.3,11.8,2.3,14.1c-7.1,3.2-7.2,0.3-6.4-6.1C443.8,31.3,444,25.8,447.8,26.2z"/>
	<path class="st8" d="M437.9,97.2c-2.6-1.1-5.5-2.4-8.5-3.7c9.8,0.3,17.2,0.6,17.2,0.6s2,0,3.8,0.2c-0.2,1.2-0.5,2.3-0.7,3.2
		c-0.4,0.9-0.6,1.5-0.5,2.1c0,0.1-0.1,0.2-0.1,0.3c-1.5,0-3.2,0-4.8,0C442.6,99.2,440.4,98.2,437.9,97.2z"/>
	<path class="st6" d="M443.9,17.9c19.2,0.7,20.7,28.1,4.8,35.5l-0.1,0.1c-2-4.8-5.4-9.6-11.2-13.5C430.9,33.1,431.4,16.1,443.9,17.9
		z M450.2,40.3c6-2.3,4.5-13.9-2.3-14.1c-3.8-0.4-4.1,5.1-4.1,8C442.9,40.6,443,43.5,450.2,40.3z"/>
	<path class="st6" d="M449.4,99.9c0.1,0.6,0.5,1.2,0.9,2c-0.5-0.2-1-0.4-1.4-0.5c0.1-0.3,0.2-0.8,0.4-1.5
		C449.3,99.9,449.4,99.9,449.4,99.9z"/>
	<path class="st8" d="M449.4,99.9c0,0-0.1,0-0.1,0c0-0.1,0-0.2,0.1-0.3C449.3,99.7,449.4,99.8,449.4,99.9z"/>
	<path class="st8" d="M449.3,99.6c-0.1-0.6,0-1.2,0.5-2.1C449.6,98.3,449.5,99,449.3,99.6z"/>
	<path class="st6" d="M444.4,99.9c1.7,0,3.3,0,4.8,0c-0.2,0.7-0.3,1.3-0.4,1.5c-0.8-0.3-1.6-0.5-2.3-0.6
		C446,100.5,445.3,100.2,444.4,99.9z"/>
	<path class="st6" d="M448.9,101.4c-0.1,0.2-0.1,0.2-0.1,0.2s-0.8-0.3-2.2-0.9C447.3,100.9,448.1,101.1,448.9,101.4z"/>
	<path class="st12" d="M447.4,158.7c1.2,1.1,2.7,2.1,4.5,2.9c-2.2-0.3-4.4-0.6-6.7-0.7C445.9,160.2,446.6,159.5,447.4,158.7
		L447.4,158.7z"/>
	<path class="st14" d="M445.2,160.9c-26,24.6-50.1,15.4-62.1,13.2c5.4,0.9,11.9,1,19.9-0.2c15.9-2.4,22.1-6.4,30.9-14.9
		c0,0,5.1-5.7,8.8-13.4c0,0-0.9,7.9,4.7,13.1l-0.1,0.1C446.6,159.5,445.9,160.2,445.2,160.9z"/>
	<path class="st6" d="M446.7,131.6c0.1-0.2,0.6-1,0.4,0.6C446.9,132,446.8,131.8,446.7,131.6z"/>
	<path class="st8" d="M444.4,99.9c-0.9,0-1.7,0-2.5,0c-1.1-0.9-2.4-1.8-4-2.7C440.4,98.2,442.6,99.2,444.4,99.9z"/>
	<path class="st5" d="M382.6,269.9c0.5-2.4,2.2-8.8,5.5-12.8c3.9-4.8,10.1-10.2,20.2-10.6c0.6,0,1.2,0,1.8,0
		c3.6,0.1,6.9,0.5,9.8,1.2c0.4,0.1,0.8,0.2,1.2,0.3c0,0,0,0,0,0c5.7,1.5,10.1,3.9,12.6,6.9c4.8,5.9,5.8,15.9,5.8,15.9h-57.1
		C382.5,270.8,382.5,270.5,382.6,269.9z"/>
	<path class="st8" d="M437.9,97.2c1.6,0.9,2.9,1.8,4,2.7c-5.2,0-9.9,0.1-9.9,0.1s0.9,10.7,0,15.3c-1.2,6-5.4,8.9-9.6,10.5
		c-4.4,1.7-19.1,0.7-22.6,0c-3.5-0.7-7.8-2.8-9.6-6.7c-1.7-3.6-3.7-12.7-3.7-12.7l-7.3-0.2c0,0-3.6,9.1-6.3,13.6
		c-3.1,5.2-5.2,5.9-7.6,6.2c-4.2,0.6-6.1,0.4-14.6,0c-0.2-1.1-0.3-2.2-0.5-3.3c6.5,0.6,15.5,0.6,17.7-2.9c0.7-1.1,2.3-4.1,3.8-7.5
		c3-6.6,5.9-14.8,2.1-14.5c0,0-5.3,0-11.6,0.1c-4.6,0.1-9.8,0.2-13.9,0.5c0.6-1.8,1.5-3.5,2.8-5c9-0.6,20.1-0.1,27,0.4
		c1.7,0.1,1.7,7.9,1.7,7.9h6.7c0,0-0.1-0.7,0-3.2c0.1-2.5,0.1-4.2,1.2-4.4c7.5-1.3,27-1,41.5-0.6C432.4,94.8,435.3,96.1,437.9,97.2z
		 M422,121.7c9.8-4.1,6.5-20.9,5.4-23.9c-0.5-1.4-35.5-2.5-36.4,1.2c-1.1,4.7,1,11.6,3,16.1c1,2.2,3.3,7.1,10.6,7.7
		C412.1,123.4,417.8,123.5,422,121.7z"/>
	<circle class="st2" cx="429.5" cy="135.6" r="6.3"/>
	<path class="st5" d="M427.5,97.8c1,3,4.4,19.8-5.4,23.9c-4.2,1.8-9.9,1.7-17.4,1.1c-7.3-0.6-9.6-5.5-10.6-7.7
		c-2.1-4.5-4.1-11.4-3-16.1C391.9,95.3,427,96.4,427.5,97.8z M413,105.4l0.9-1.8l-1.7,0.8c-0.1-0.1-0.3-0.3-0.4-0.4l0.4-1.9
		l-1.4,1.2c-0.2-0.1-0.4-0.2-0.6-0.3l-0.4-2l-1,1.7c-0.2-0.1-0.5-0.1-0.7-0.1l-0.6-1.8l-0.7,1.8c-3.3,0.4-5.9,3.2-5.9,6.6
		c0,3.7,3,6.7,6.7,6.7c3.7,0,6.7-3,6.7-6.7C414.1,107.8,413.7,106.5,413,105.4z"/>
	<path class="st6" d="M422.4,239.1c3.2,3.7,3.4,7.8,3.4,8.7c-2.7,0.2-4.4,0.2-4.7,0.2c0,0,0,0,0,0c-0.4-0.1-0.8-0.2-1.2-0.3
		c0,0,0,0-0.9-2.7s-4.3-4.4-6.2-4.8c-1.1-0.2-4.4,0.1-4.4,0.1v6.2v0c-10.2,0.3-16.3,5.8-20.2,10.6c-3.3,4.1-5,10.5-5.5,12.8
		c-0.3-0.2-2.5-1.6-7.3-4.6c-5.1-3.3-7.2-6.2-7.9-9.2c0-0.2-0.1-0.4-0.1-0.6c-1.1-6.4,0.1-23.1,0.1-23.1h4.8l1.2,0l34.5-0.5
		C408,231.8,418.9,235,422.4,239.1z"/>
	<path class="st13" d="M421.4,33.5c0.1,0,0.2,0,0.2,0.1c-14.3,0.6-27.5,17.4-31.8,32.6c0,0-1.9-0.3-5.8,1.2v0c0,0,0.7-2.7,2.4-6.5
		C390.6,50.9,401.1,33.3,421.4,33.5z"/>
	<path class="st6" d="M421.4,33.5c-20.3-0.2-30.7,17.4-35,27.3l-4.4-2c-6.9,1.5-13.6,4.3-19.6,8.1c-7.9,5-14.5,12.3-15.9,22h0
		c-0.6,1.2-1,2.3-1.4,3.5c1.5-13.2,7.2-43.1,27-52.4c16.6-7.9,31.4-9.2,42.7-7.7c1.2,0.2,2.4,0.4,3.5,0.6
		C419.4,33,420.4,33.2,421.4,33.5z"/>
	<path class="st3" d="M419,245c0.9,2.7,0.9,2.7,0.9,2.7c-3-0.7-6.3-1.1-9.8-1.2c-0.6,0-1.2,0-1.8,0v0v-6.2c0,0,3.4-0.3,4.4-0.1
		C414.7,240.7,418.1,242.4,419,245z"/>
	<path class="st7" d="M413.9,103.7l-0.9,1.8c-0.2-0.4-0.5-0.7-0.8-1L413.9,103.7z"/>
	<path class="st8" d="M413.5,85.4L413.5,85.4c-5.1-0.5-10.8,0-15.9-0.2c-0.8-5.8,5.4-4.3,9.4-4.2C409.1,82.5,411.3,84,413.5,85.4z"
		/>
	<path class="st2" d="M396.5,145.2l17-1.2c0,0-5.7,7.9-18.8,11.7c-5,1.4-8.7,0.5-11.4-1.3v0c0,0,1.6-7.8,13.1-9.3
		C396.5,145.2,396.5,145.2,396.5,145.2z"/>
	<path class="st7" d="M413,105.4c0.7,1.1,1.2,2.3,1.2,3.7c0,3.7-3,6.7-6.7,6.7c-3.7,0-6.7-3-6.7-6.7c0-3.4,2.6-6.3,5.9-6.6l-0.1,0.3
		l1.5,0.1l-0.1-0.4c0.2,0,0.5,0,0.7,0.1l-0.2,0.3l1.5,0.3l0-0.2c0.2,0.1,0.4,0.2,0.6,0.3l-0.3,0.2l1.3,0.8l0.1-0.3
		c0.2,0.1,0.3,0.2,0.4,0.4l-0.3,0.1l1,1.2L413,105.4z"/>
	<path class="st7" d="M413,105.4l-0.1,0.3l-1-1.2l0.3-0.1C412.5,104.7,412.8,105.1,413,105.4z"/>
	<path class="st7" d="M412.1,102.1l-0.4,1.9c-0.3-0.3-0.7-0.5-1.1-0.7L412.1,102.1z"/>
	<path class="st7" d="M411.7,104.1l-0.1,0.3l-1.3-0.8l0.3-0.2C411,103.5,411.4,103.8,411.7,104.1z"/>
	<path class="st7" d="M410,103l0,0.2l-1.5-0.3l0.2-0.3C409.2,102.7,409.6,102.8,410,103z"/>
	<path class="st7" d="M409.7,101l0.4,2c-0.4-0.2-0.9-0.3-1.3-0.4L409.7,101z"/>
	<path class="st7" d="M408,102.5l0.1,0.4l-1.5-0.1l0.1-0.3c0.2,0,0.5-0.1,0.7-0.1C407.6,102.5,407.8,102.5,408,102.5z"/>
	<path class="st7" d="M407.4,100.7l0.6,1.8c-0.2,0-0.4,0-0.5,0c-0.2,0-0.5,0-0.7,0.1L407.4,100.7z"/>
	<path class="st0" d="M377.1,146.6l19.3-1.4c-11.5,1.5-13.1,9.3-13.1,9.3v0C378.8,151.6,377.1,146.6,377.1,146.6z"/>
	<path class="st1" d="M382.6,269.9c-0.1,0.6-0.2,0.9-0.2,0.9H280.3c0,0,0.7-2.6,2.1-6.2c1.4-3.7,4.4-5.1,6.9-7
		c2.6-2,11.5-1.6,11.5-1.6l65.8-0.4l0.8-0.1c0,0.2,0.1,0.4,0.1,0.6c0.7,3,2.8,5.9,7.9,9.2C380.1,268.3,382.3,269.7,382.6,269.9z"/>
	<path class="st8" d="M368.8,80.9c1.5,0.2,8.6-1.8,7.7,4.3c-5.1,0.2-13.8,0.8-19,0.6c1.6-1.4,3.3-2.9,5.3-4.6L368.8,80.9z"/>
	<path class="st5" d="M374,97.8c3.7-0.3,0.9,8-2.1,14.5l-3.6-0.2c0.5-0.9,0.8-2,0.8-3.2c0-3.4-2.5-6.2-5.8-6.6l-0.8-2l-0.1-2.5
		C368.7,97.8,374,97.8,374,97.8z"/>
	<path class="st5" d="M368.3,112.1l3.6,0.2c-1.5,3.4-3.1,6.3-3.8,7.5c-2.2,3.5-11.2,3.5-17.7,2.9c-1.6-9.1-4-17.6-1.8-24.3
		c4.1-0.2,9.3-0.4,13.9-0.5l0.1,2.5l-0.6,2c-0.2,0-0.4,0-0.6,0.1l-1-1.8l-0.4,2.2c-0.1,0.1-0.3,0.1-0.4,0.2l-1.6-1.3l0.4,2.1
		c-0.1,0.1-0.2,0.2-0.3,0.3l-1.9-0.8l0.9,1.9c-0.8,1.1-1.2,2.4-1.2,3.8c0,3.7,3,6.7,6.7,6.7C364.9,115.6,367.1,114.2,368.3,112.1z"
		/>
	<path class="st7" d="M369.1,108.9c0,1.1-0.3,2.2-0.8,3.2c-1.1,2.1-3.3,3.5-5.9,3.5c-3.7,0-6.7-3-6.7-6.7c0-1.4,0.4-2.7,1.2-3.8
		l0.1,0.2l1-1.2l-0.2-0.1c0.1-0.1,0.2-0.2,0.3-0.3l0,0.2l1.3-0.8l-0.1-0.1c0.1-0.1,0.3-0.1,0.4-0.2v0l1.5-0.3l-0.1-0.1
		c0.2,0,0.4-0.1,0.6-0.1l-0.1,0.2l1.5-0.1l0-0.1C366.5,102.7,369.1,105.5,369.1,108.9z"/>
	<path class="st7" d="M363.2,102.3l0,0.1l-1.5,0.1l0.1-0.2c0.2,0,0.4,0,0.6,0C362.7,102.3,363,102.3,363.2,102.3z"/>
	<path class="st7" d="M362.4,100.3l0.8,2c-0.3,0-0.6-0.1-0.8-0.1c-0.2,0-0.4,0-0.6,0L362.4,100.3z"/>
	<path class="st7" d="M361.2,102.4l0.1,0.1l-1.5,0.3v0C360.3,102.6,360.7,102.5,361.2,102.4z"/>
	<path class="st7" d="M360.2,100.6l1,1.8c-0.5,0.1-1,0.2-1.4,0.4L360.2,100.6z"/>
	<path class="st2" d="M355.7,131.4c3.5,0,6.3,2.8,6.3,6.3c0,3.5-2.8,6.3-6.3,6.3c-1.6,0-3-0.6-4.1-1.5l-0.4-4.9
		c0.1-1.5,0.2-2.9,0.1-4.4C352.5,132,354.1,131.4,355.7,131.4z"/>
	<path class="st7" d="M358.1,104.1l-1,1.2l-0.1-0.2c0.3-0.4,0.6-0.8,0.9-1.1L358.1,104.1z"/>
	<path class="st7" d="M356,103.2l1.9,0.8c-0.4,0.3-0.7,0.7-0.9,1.1L356,103.2z"/>
	<path class="st15" d="M355.3,295.3L355.3,295.3c-18,0.6-27.7,17-31.7,26c-1,1.9-7.4,5.8-12.7,16.3c-5.8,11.2-32.2,89.7-32.2,89.7
		s-1,2.4-7.6,3.6c-0.7,0.1-1.4,0.2-2.2,0.3c-7.4,0.7-20.2-0.1-25.4-1.8c0,0,0,0,0,0c-1.2-0.4-2-0.8-2.2-1.3
		c-1.3-2.7,36.1-104.1,36.1-104.1s8-27.6,30.7-27.9C321.6,295.9,341.4,295.5,355.3,295.3z"/>
	<path class="st2" d="M351.3,137.5l0.4,4.9c-0.4-0.3-0.7-0.6-1-1C351,140.1,351.2,138.8,351.3,137.5z"/>
	<path class="st2" d="M351.4,133.1c0,1.5,0,2.9-0.1,4.4l-0.3-4C351.2,133.3,351.3,133.2,351.4,133.1z"/>
	<path class="st2" d="M351,133.5l0.3,4c-0.1,1.3-0.3,2.6-0.6,3.9c-0.8-1-1.2-2.3-1.2-3.8C349.5,136,350.1,134.6,351,133.5z"/>
	<path class="st6" d="M350.5,126l0.6,7.5c-1,1.1-1.5,2.5-1.5,4.1c0,1.4,0.5,2.7,1.2,3.8c-0.7,3.5-2.1,6.9-4.4,10.2
		c3.6-7.5,2.7-16.5,1-25.7C348.5,125.9,349.5,125.9,350.5,126z"/>
	<path class="st8" d="M350.5,126c-0.9,0-2-0.1-3.1-0.1c-0.2-1.2-0.4-2.4-0.7-3.6c1,0.1,2.3,0.3,3.6,0.4c0.2,1.1,0.4,2.2,0.5,3.3
		C350.7,126,350.6,126,350.5,126z"/>
	<path class="st8" d="M349.1,93.5c-3.7,3.6-4.5,4.8-4.5,4.8c0-0.7,0.1-2.2,0.4-4.3C346.3,93.7,347.7,93.6,349.1,93.5z"/>
	<path class="st8" d="M346.7,122.2c0.2,1.2,0.4,2.4,0.7,3.6c-0.6,0-1.3-0.1-2-0.1c-12.6-0.6-10.7-22.4-8.8-28.1
		c0.6-1.8,3.8-3,8.3-3.7c-0.4,1.5-0.6,3.1-0.7,4.7c-1.2,0.1-2,0.3-2.5,0.5c-1.9,0.8-2.8,7.6-2.4,11.6c0.4,4,1.2,10.3,4.8,11.1
		C344.5,121.9,345.5,122.1,346.7,122.2z"/>
	<path class="st6" d="M345.2,92.4c-0.1,0.5-0.1,1-0.2,1.5c-0.1,0-0.1,0-0.2,0C344.9,93.4,345,92.9,345.2,92.4z"/>
	<path class="st1" d="M311.2,88.6c2.4,12.7,28.9,124.9,26.1,131.7c-2.3,5.6-2,8.5-11.7,9.5c0.8-0.3,2.1-1.9,1.9-8.4
		c-0.3-9.2-24-128.4-25.5-134.9s-2.1-12.1-8.6-12.1c1.5,0,2.6,0,3.1,0C307.3,74.3,308.8,75.9,311.2,88.6z"/>
	<path class="st4" d="M216.2,211.7c0.5-1.5,0.9-3,1.1-4.4c0.3-1.7,0.5-3.4,0.6-5c0.1-2.3-0.1-4.2-0.6-5.5
		c-1.6-4.7-0.6-27.3-0.6-27.3s-2.9,2.5-6.4,6c-3.5,3.5-10.4,5.1-18.3,4.6c-7.9-0.5-16.8-10.4-16.8-10.4l-1.7,19.7
		c-18.2-5.2-34.7-5-45-4c-7.9-39.4-19.1-95.4-19.6-97.7c-0.7-3.4-2.1-13.4,7.3-13.4c0,0,151.5,0,177.1,0c6.5,0,7.1,5.5,8.6,12.1
		c1.5,6.5,25.2,125.7,25.5,134.9c0.2,6.5-1.1,8.1-1.9,8.4c0,0,0,0,0,0c-2,0.2-4.5,0.3-7.6,0.3c-17.5,0.1-76.5,1.2-76.5,1.2h-0.3
		c2.3-18.5,5.6-45.8,5.6-45.8s-3.1-3.1-6-0.2c0,0-3.9,24.9-7.2,46h-32.1c0.1-2.1,0.1-3.5,0.1-4c-0.1-2.7,0.6-2.1,8.3-6.8
		C212.9,218.7,215,215.4,216.2,211.7z M230.2,160.1c2.1-4.8,0.2-9.9,0.2-9.9s-4-0.5-7.3-4.5c-3.4-4.1,0-10.2,0-10.2
		c-6.4-5.4-11.3-3-13-1.6c-2.9,2.5-3,7.6-2.8,9.4c0.2,1.8,0,3.2-0.9,6.3c-0.9,3.1-1.2,5.5-0.9,8.3c0.3,2.8,3.4,8.8,11,9.7
		C224.1,168.4,228.3,164.4,230.2,160.1z M214.6,130.2c10.2-1.6,8.3-8.4,8.3-8.4C212.7,123.3,214.6,130.2,214.6,130.2z"/>
	<path class="st0" d="M323.7,321.2c0.1-0.3-1,2.3-1.9,4.7C322.2,324.9,322.8,323.3,323.7,321.2C323.7,321.3,323.7,321.2,323.7,321.2
		z"/>
	<path class="st2" d="M318,433.3l0,0.3c0,0-2.4,6.8-5.8,17.5c-3.4,10.8-2.5,12.9-4.6,16.9c-2.1,4.1-7,1.2-18.4,0.5
		c-11.4-0.7-13.9,0.8-18.3-1.2c-4.4-2.1-6.2-5.1-6.2-7.5c0-0.4,0.1-0.7,0.2-1.1c0.7-2.7,3.8-6.2,7.2-7.6c4-1.7,15.3-0.3,16.1-0.2
		c0.8,0.1,1.1-4.1,2.5-8.2c1.4-4.1,3.6-11,3.6-11c2.6,0.4,5.6,0.6,8.3,1.1C308.7,433.8,314.4,433.6,318,433.3z"/>
	<path class="st5" d="M300.7,256c0,0-8.9-0.4-11.5,1.6c-2.6,2-5.5,3.4-6.9,7c-1.4,3.6-2.1,6.2-2.1,6.2h-4.6h-0.9
		c0,0-0.4-8.7-5.7-10.1c-3.1-0.8-10.1-0.6-16-0.5l0-1.8c0,0,5.9-11.6,16-12c10.1-0.4,25.9,2.4,25.9,2.4S299.8,254.2,300.7,256z"/>
	<path class="st1" d="M274.8,270.8h-41.1c-6.1,0-5.1-6.7-4.5-11.1c0.2-1.8,2.2-14.2,4.4-28.5h7.7c-0.5,4.4-1,8.2-1.4,11.1
		c-2,15.2,2.2,15.6,4.3,17.2c0.9,0.7,4.6,0.7,8.9,0.7c5.9-0.1,12.9-0.3,16,0.5C274.5,262.1,274.8,270.8,274.8,270.8z"/>
	<path class="st2" d="M268.9,431.1L268.9,431.1c0,0-2.4,6.9-5.7,17.6c-1.4,4.4-2.1,7.3-2.6,9.5c-0.7,3.3-1,5-2.3,7.4
		c-2.1,4-7,0.8-18.4,0.1c-11.4-0.7-17.6-0.1-22-2.2c-4.4-2.1-4.7-4.6-4-6.9c1-3,3.1-5.8,7-7.5c4-1.7,14.1-0.7,14.9-0.6
		c0.8,0.1,3.1-4.1,4.4-8.1c1.4-3.9,3-10.8,3.1-11.2C248.7,431,261.5,431.9,268.9,431.1z"/>
	<path class="st1" d="M246.8,185.4c0,0-3.3,27.3-5.6,45.8h-7.7c3.3-21.1,7.2-46,7.2-46C243.7,182.4,246.8,185.4,246.8,185.4z"/>
	<path class="st1" d="M230.4,150.1c0,0,1.9,5.1-0.2,9.9c-1.9,4.4-6.1,8.3-13.8,7.4c-7.7-0.9-10.7-6.9-11-9.7c-0.3-2.8,0-5.2,0.9-8.3
		c0.9-3.1,1.1-4.5,0.9-6.3c-0.2-1.8-0.1-6.9,2.8-9.4c1.7-1.4,6.6-3.8,13,1.6c0,0-3.4,6.1,0,10.2
		C226.4,149.7,230.4,150.1,230.4,150.1z"/>
	<path class="st16" d="M221.2,120.4c0,0,3.1,5.7-5.9,9.3C215.3,129.7,212.2,123.9,221.2,120.4z"/>
	<path class="st17" d="M217.4,207.2c-0.2,1.5-0.6,3-1.1,4.4c-1.3,3.7-3.3,7.1-6.4,8.9c-7.7,4.6-8.4,4-8.3,6.8c0,0.5,0,1.9-0.1,4
		h-29.9h-26c0,0-7.4,0.7-9.3-8c-0.6-2.9-3.8-18.3-7.7-37.8c10.3-1,26.8-1.2,45,4l1.7-19.7c0,0,8.9,9.9,16.8,10.4
		c7.9,0.5,14.9-1.1,18.3-4.6c3.5-3.5,6.4-6,6.4-6s-0.9,22.5,0.6,27.3c0.4,1.3,0.6,3.2,0.6,5.5C217.9,203.8,217.7,205.5,217.4,207.2z
		 M207.4,213.6c1.8-1.6,3-7.2-1.7-7.8c-3-0.4-4.4,1.3-9.6-0.4c-5.3-1.8-8.2-0.2-9.3,3.3c-0.9,2.7,3.2,4.4,6.2,4.9
		C196.9,214.3,204.7,216,207.4,213.6z"/>
	<path class="st2" d="M205.6,205.9c4.7,0.6,3.5,6.2,1.7,7.8c-2.7,2.4-10.5,0.7-14.5,0c-3-0.5-7.1-2.2-6.2-4.9c1.2-3.5,4-5.1,9.3-3.3
		C201.3,207.2,202.7,205.5,205.6,205.9z"/>
	<path class="st17" d="M205.1,267.6c1.3,0.9,1.3,2.1,0.4,2.8C205.5,269.8,205.4,268.8,205.1,267.6z"/>
	<path class="st9" d="M205.6,270.8h-1.4c0.6-0.1,1-0.2,1.4-0.5C205.6,270.7,205.6,270.8,205.6,270.8z"/>
	<path class="st17" d="M205.1,267.6c0.3,1.2,0.4,2.2,0.4,2.8c-0.3,0.2-0.8,0.4-1.4,0.5h-9.6c0,0,0.1-4.8,0.1-10.6
		c2.2,0.1,4,0.2,5.2,0.5c0.6,0.2,1.2,0.4,1.7,0.8c0.2,2.9,0.6,4.9,1.2,5C203.8,266.8,204.5,267.2,205.1,267.6
		C205.1,267.6,205.1,267.6,205.1,267.6z"/>
	<path class="st1" d="M201.6,261.6c2,1.4,3,4,3.5,6c-0.6-0.4-1.3-0.8-2.3-1C202.2,266.4,201.8,264.5,201.6,261.6z"/>
	<path class="st17" d="M194.5,270.8h9.6C200.7,271.1,194.5,270.8,194.5,270.8z"/>
	<path class="st17" d="M190.4,235.1c-1.8,0.1-4.4,0.1-7.6,0.3c-3.1,0.1-6.9,0.3-11.3,0.5l0.1-1.1v-3.5h29.9
		c-0.2,7.3-0.6,22.4,0,30.3c-0.5-0.4-1.1-0.6-1.7-0.8c-1.2-0.3-3.1-0.5-5.2-0.5c0-7.2-0.2-15.8-0.4-18.7c-0.2-5.1-0.6-6.5-0.6-6.5
		S192.6,235.1,190.4,235.1z"/>
	<path class="st1" d="M194.6,260.2c0,5.8-0.1,10.6-0.1,10.6h-2.2c2.7-0.2,3.2-3-1.1-4.2c-0.7-0.2-1.1-2.8-1.3-6.5
		C191.6,260.2,193.2,260.2,194.6,260.2z"/>
	<path class="st18" d="M191.2,266.7c4.3,1.2,3.8,4,1.1,4.2H183c0,0,0-4.8,0-10.6c2.2,0,4.6-0.1,6.9-0.1
		C190.1,263.9,190.5,266.5,191.2,266.7z"/>
	<path class="st17" d="M183,270.8h9.3C188.8,271.1,183,270.8,183,270.8z"/>
	<path class="st18" d="M190.4,235.1c-0.1,4.1-0.7,17.1-0.4,25.1c-2.3,0-4.7,0.1-6.9,0.1c0-7.2,0-16,0-19.1c0-3.3-0.2-5-0.3-5.9
		C186,235.2,188.5,235.2,190.4,235.1z"/>
	<polygon class="st10" points="188,287.5 149.1,462.4 130.9,462.9 168.7,287.5 	"/>
	<path class="st1" d="M183,260.3c0,5.8,0,10.6,0,10.6h-18.6c-6.1,0-5.1-6.7-4.5-11.1l3.4-23.4c2.9-0.2,5.6-0.3,8.1-0.5l-0.9,6.5
		c-2,15.2,2.2,15.6,4.3,17.2C175.8,260.2,179.1,260.3,183,260.3z"/>
	<path class="st17" d="M127,236.7c-3.7-0.3-6.4-0.6-7.9-0.8c-1-0.1-1.5-0.2-1.5-0.2s-0.7,6.2-0.6,14.9c0.1,8.8,1.4,15.6,4.1,16.2
		c0.8,0.2,1.5,0.6,2,1.1c0.2,1,0.4,1.9,0.5,2.3c-0.2,0.2-0.5,0.4-0.9,0.5c-0.2,0-0.4,0.1-0.6,0.1h0h-9c-0.2-0.8-3.1-13.5-3.5-24.7
		c-0.4-11.5,1-10.4-0.4-13.5c-1.7-3.8-5.7-5.1-4.8-16c0.7-9.5,5.3-12.2,5.5-20.5c0.3-10.8-1.4-23.5-13.7-29.9
		c-12.3-6.4-21-19.4-20.2-28c0.9-8.6,6.2-12.3,9-9.8c2.3,2.1-2.1,19.1,8.5,25.1s17,12.2,20.2,19.5c3.2,7.3,0.7,14.1,10.1,12.8
		c1.4-0.2,2.9-0.4,4.6-0.5c3.9,19.5,7,34.9,7.7,37.8c1.9,8.7,9.3,8,9.3,8h26v3.5l-8.1,0.4l-0.2,1.2c-2,0.1-4.2,0.3-6.4,0.4
		C144.3,237.6,134,237.2,127,236.7z"/>
	<path class="st17" d="M171.6,234.8l-0.1,1.1c-2.5,0.1-5.2,0.3-8.1,0.5l0.2-1.2L171.6,234.8z"/>
	<polygon class="st3" points="156.2,287.5 113.1,476.1 94.9,476.1 136.9,287.5 	"/>
	<path class="st18" d="M132.8,266.5c2.7,0.6,3.8,3.8,1.7,4.2c-0.5,0.1-1.4,0.2-2.4,0.2h0h-7h-0.1c0,0-0.1-0.2-0.1-0.5
		c-0.2-1-0.2-0.8-0.5-2.3c-1-4.6-3-14.2-3.5-23c-0.3-5.2-0.5-7.8-0.5-9.1c1.5,0.2,4.2,0.5,7.9,0.8c-0.1,2.2-0.2,6.6,0.1,12.8
		C128.5,258.8,130.1,265.9,132.8,266.5z"/>
	<path class="st4" d="M123.9,270.8h7C128.2,271,124.6,270.9,123.9,270.8z"/>
	<path class="st17" d="M123.1,268c0.7,0.8,1,1.8,0.5,2.3C123.6,269.8,123.4,269,123.1,268z"/>
	<path class="st4" d="M113.2,270.8h9C119.5,271.1,113.2,270.9,113.2,270.8C113.2,270.9,113.2,270.9,113.2,270.8z"/>
	<g>
		<path class="st14" d="M382,130.1c-1.9,0.6-3.8,0.9-5.8,1c-2,0.2-3.9,0.2-6-0.1c-0.3-0.1-0.6-0.2-0.9-0.3c-0.3-0.2-0.6-0.4-0.9-0.7
			c-0.5-0.6-0.6-1.4-0.5-2c0.2-1.2,0.6-2.1,1.1-3c0.5-0.9,1.1-1.7,1.8-2.4c0.6-0.7,1.3-1.5,2-2.2c-0.4,0.9-0.8,1.8-1.3,2.7
			c-0.5,0.8-0.9,1.7-1.3,2.5c-0.3,0.9-0.7,1.7-0.7,2.5c0.1,0.7,0.2,0.9,0.9,1.1c1.8,0.3,3.7,0.4,5.6,0.5
			C378.1,129.8,380,129.9,382,130.1z"/>
	</g>
	<line class="st19" x1="300.7" y1="256" x2="366.6" y2="255.6"/>
	<g>
		<path class="st13" d="M438.6,41.2c-2.3-1.5-3.8-3.8-4.8-6.4c-1-2.5-1.4-5.3-1.2-8.1c0.2-2.7,1.4-5.6,3.5-7.4
			c0.5-0.5,1.2-0.8,1.8-1.1c0.7-0.2,1.3-0.5,2-0.6c0.7-0.1,1.4-0.2,2-0.2l2,0.1h0c4.1,0.1,8.3,1.5,11.4,4.4
			c3.1,2.9,4.8,7.1,5.2,11.3c0.4,4.2-0.5,8.5-2.5,12.2c-2,3.7-5.3,6.6-9.1,8l-0.1-0.2c3.5-2,6.2-5.1,7.9-8.6c1.6-3.5,2.3-7.5,2-11.3
			c-0.3-3.8-1.7-7.7-4.3-10.5c-2.5-3-6.4-4.6-10.4-4.8h0h0c-2.5-0.4-5.3,0.2-7,2.1c-1.7,1.8-2.4,4.3-2.7,6.7c-0.3,2.5,0,5.1,0.7,7.5
			c0.7,2.4,1.9,4.8,3.8,6.6L438.6,41.2z"/>
	</g>
	<path class="st20" d="M450.2,40.3c6-2.3,4.5-13.9-2.3-14.1c-3.8-0.4-4.1,5.1-4.1,8C442.9,40.6,443,43.5,450.2,40.3z"/>
	<g>
		<path class="st13" d="M399.1,57.8l9.9,8.5c3.3,2.8,6.6,5.6,10.1,8c3.5,2.5,7.1,4.8,10.9,6.8c3.8,2,7.9,3.5,12.1,4.6
			c-1.1-0.1-2.2-0.3-3.2-0.5l-3.2-0.7l-3.1-1l-3.1-1.2c-4.1-1.7-7.8-4-11.4-6.6c-3.5-2.6-6.9-5.4-10-8.5
			C404.9,64.3,401.9,61.1,399.1,57.8z"/>
	</g>
	<g>
		<path class="st13" d="M410.5,49.6c4.6,4.8,9.5,9.2,14.7,13.4c5.1,4.2,10.5,8.1,15.7,12.2c-6-3-11.6-6.7-16.8-10.9
			C418.9,60.1,414,55.3,410.5,49.6z"/>
	</g>
	<g>
		<path class="st13" d="M419.5,43.9c5.9,1.6,11.5,4.6,16.1,8.8c2.3,2.1,4.4,4.5,6,7.1c1.6,2.6,2.8,5.6,3.4,8.6
			c-2.5-5.6-6.1-10.4-10.5-14.4C430,50,424.9,46.8,419.5,43.9z"/>
	</g>
	<g>
		<path class="st13" d="M394.6,38.4c-6.9,1-13.7,2.6-20,5.4c-6.3,2.7-12,6.6-17.2,11.4c4.1-5.8,9.9-10.2,16.4-13.1
			C380.4,39.3,387.5,38,394.6,38.4z"/>
	</g>
	<g>
		<path class="st13" d="M384.1,47.4c-6.9,2.5-13.9,4.8-19.9,8.7c-6.1,3.8-11,9.3-14,16.1c0.9-3.6,2.5-7,4.8-10
			c2.3-3,5.1-5.5,8.3-7.6C369.6,50.6,376.9,48.5,384.1,47.4z"/>
	</g>
	<g>
		<path class="st13" d="M382,58.7c-2,0.6-3.9,1.3-5.8,2c-1.9,0.7-3.8,1.5-5.6,2.4c-3.6,1.8-7.2,3.8-10.4,6.2
			c-3.3,2.4-6.2,5.2-8.6,8.4c-2.4,3.2-4.1,7-5,11c0.1-2.1,0.5-4.1,1.2-6.1c0.7-2,1.6-3.9,2.7-5.7c2.3-3.6,5.3-6.6,8.7-9.1
			c3.4-2.5,7.1-4.5,10.9-6C373.9,60.4,377.9,59.3,382,58.7z"/>
	</g>
	<g>
		<path class="st6" d="M450,53.4c1.6-0.4,3.2,0,4.7,0.4c1.5,0.4,3,1,4.4,1.5c1.4,0.5,2.8,0.9,4.2,0.9c1.4,0,2.8-0.4,4.1-1.3
			c-0.8,1.4-2.3,2.4-4,2.7c-1.7,0.3-3.4-0.2-4.9-0.6c-1.5-0.6-2.9-1.2-4.3-1.9C452.9,54.5,451.5,53.8,450,53.4z"/>
	</g>
	<g>
		<path class="st6" d="M418,12.4c0.4-1.3,0.9-2.5,1-3.6c0.1-1.2-0.2-2-1.1-2.7c-0.8-0.8-2-1.5-3-2.4c-1-0.9-1.9-2.1-2.2-3.4
			c0.9,1,1.9,1.7,3,2.3c1.1,0.6,2.2,1.2,3.3,2.2c0.5,0.5,1,1.2,1.3,2c0.2,0.8,0.2,1.6-0.1,2.3C419.9,10.4,419,11.5,418,12.4z"/>
	</g>
	<g>
		<path class="st6" d="M455.9,14.4c0-0.7,0.5-1.3,1.1-1.7c0.6-0.4,1.2-0.7,1.8-1c1.3-0.5,2.5-0.7,3.7-1c1.2-0.3,2.4-0.6,3.1-1.2
			c0.8-0.5,0.8-1.8,0.6-3.1c0.4,0.5,0.8,1.1,1,1.8c0.1,0.4,0.1,0.8,0,1.2c-0.1,0.4-0.3,0.8-0.5,1.1c-1,1.3-2.5,1.7-3.8,2
			c-1.3,0.3-2.6,0.5-3.8,0.7c-0.6,0.1-1.2,0.2-1.8,0.4C456.8,13.6,456.3,13.9,455.9,14.4z"/>
	</g>
	<g>
		<path class="st6" d="M415.9,31.3c-1.1-1-2.3-1.5-3.6-1.8c-1.3-0.3-2.7-0.5-4.1-0.9c-0.7-0.2-1.5-0.6-2.1-1.1
			c-0.6-0.6-1.2-1.2-1.4-2c-0.5-1.5-0.4-3,0-4.4c0.3,1.4,0.6,2.8,1.2,3.8c0.6,1,1.5,1.6,2.8,2c1.2,0.4,2.7,0.7,4,1.3
			C414.2,28.8,415.4,29.9,415.9,31.3z"/>
	</g>
	<g>
		<path class="st11" d="M186.7,195.4c0.5,1,1,1.9,1.6,2.3c0.6,0.4,1.4,0.5,2.3,0.4c0.9,0,1.7-0.2,2.4-0.6c0.7-0.4,1.4-1.1,1.4-2.2
			c0.7,0.9,0.3,2.4-0.6,3.2c-0.9,0.9-2.1,1.3-3.2,1.4c-0.6,0-1.2,0-1.8-0.2c-0.6-0.2-1.2-0.5-1.6-1
			C186.5,197.6,186.5,196.4,186.7,195.4z"/>
	</g>
	<g>
		<path class="st11" d="M200.3,195.4c0.5,0.9,1,1.9,1.6,2.3c0.6,0.4,1.4,0.5,2.3,0.4c0.9,0,1.7-0.2,2.4-0.7c0.7-0.4,1.3-1.1,1.4-2.2
			c0.7,0.9,0.3,2.4-0.6,3.2c-0.9,0.9-2.1,1.3-3.2,1.4c-0.6,0-1.2,0-1.8-0.2c-0.6-0.2-1.2-0.5-1.6-1
			C200.1,197.6,200.1,196.4,200.3,195.4z"/>
	</g>
	<g>
		<path class="st11" d="M212.9,203.2c1.7-0.6,3.5-1.1,5.3-1.6c0.9-0.2,1.7-0.6,2.7-0.7c0.9-0.1,1.8-0.1,2.8,0l0,0.1
			c-0.8,0.5-1.7,0.9-2.6,1.1c-0.9,0.3-1.8,0.3-2.7,0.4c-1.8,0.2-3.6,0.5-5.5,0.6L212.9,203.2z"/>
	</g>
	<path class="st17" d="M123.2,186c0,0,18.9-2.9,39,0.8c20.1,3.7,15.1,6.5,15.1,6.5l-5.7,39.5l-0.1,3c0,0-16.7,1.3-25,1.3
		s-23.7-0.6-26.6-1.2c-2.9-0.6-8.9-0.9-11.5-5c-2.6-4.1-4.2-6.9-4-12.6c0.2-5.7,1.9-9.3,3.4-13.2c1.5-4,5.5-18.8,5.5-18.8L123.2,186
		z"/>
	<g>
		<path class="st11" d="M213.7,207.1c1.8-0.2,3.6-0.4,5.5-0.5c0.9-0.1,1.8-0.2,2.7-0.1c0.9,0.1,1.8,0.2,2.7,0.6v0.1
			c-0.9,0.4-1.8,0.5-2.7,0.6c-0.9,0.1-1.8-0.1-2.7-0.1c-1.8-0.1-3.6-0.2-5.5-0.4L213.7,207.1z"/>
	</g>
	<g>
		<path class="st11" d="M213,210.9c1.8,0.2,3.6,0.4,5.4,0.7c0.9,0.1,1.8,0.2,2.7,0.4c0.9,0.3,1.7,0.6,2.5,1.2l0,0.1
			c-1,0.2-1.9,0.1-2.8,0c-0.9-0.1-1.8-0.4-2.7-0.7C216.4,212.1,214.7,211.5,213,210.9L213,210.9z"/>
	</g>
	<g>
		<path class="st11" d="M181.1,203.3c-1.8-0.2-3.6-0.4-5.5-0.6c-0.9-0.1-1.8-0.2-2.7-0.4c-0.9-0.3-1.7-0.6-2.6-1.1l0-0.1
			c1-0.2,1.9-0.1,2.8,0c0.9,0.1,1.8,0.4,2.7,0.7c1.8,0.5,3.5,1,5.3,1.6L181.1,203.3z"/>
	</g>
	<g>
		<path class="st11" d="M180.3,207.3c-1.8,0.2-3.6,0.3-5.5,0.4c-0.9,0.1-1.8,0.2-2.7,0.1c-0.9-0.1-1.8-0.2-2.7-0.6v-0.1
			c0.9-0.4,1.8-0.5,2.7-0.6c0.9-0.1,1.8,0.1,2.7,0.1c1.8,0.1,3.6,0.3,5.5,0.5V207.3z"/>
	</g>
	<g>
		<path class="st11" d="M181.1,211c-1.7,0.6-3.5,1.1-5.3,1.6c-0.9,0.3-1.7,0.6-2.7,0.7c-0.9,0.1-1.8,0.2-2.8,0l0-0.1
			c0.8-0.6,1.7-0.9,2.5-1.2c0.9-0.3,1.8-0.3,2.7-0.4c1.8-0.3,3.6-0.5,5.5-0.7L181.1,211z"/>
	</g>
	<g>
		<polygon class="st12" points="372.6,232.4 373.5,189.3 374.4,232.4 		"/>
	</g>
	<path class="st3" d="M94.9,476.1c0,0,8.1,11.8,18.2,0"/>
	<path class="st10" d="M130.9,462.9c0,0,8.3,11.7,18.2-0.4"/>
	<path class="st10" d="M566.5,463.7c0,0-8.3,11.6-18.2-0.4"/>
	<path class="st3" d="M601.4,476.6c0,0-8.1,11.8-18.2,0"/>
	<g>
		<path class="st12" d="M421.4,248c3.6-0.4,7.2-1.1,10.8-1.9c3.5-0.8,7.1-1.7,10.5-2.8c3.5-1,6.9-2.2,10.3-3.6
			c3.4-1.3,6.7-2.8,10.1-4.3c-3,2.1-6.2,4.1-9.5,5.6c-3.3,1.6-6.8,2.9-10.3,4c-3.5,1.1-7.2,1.9-10.8,2.4
			C428.8,248,425.1,248.2,421.4,248z"/>
	</g>
	<g>
		<path class="st13" d="M428.8,35.8c-1.9-1.9-3.4-4.2-4.5-6.7c-1.1-2.5-1.6-5.5-0.9-8.2c0.7-2.8,2.5-5.1,4.6-6.8
			c2.1-1.7,4.6-3,7.1-3.8c2.6-0.9,5.3-1.3,8.1-1.2c2.7,0,5.5,0.5,8.1,1.4c5.2,1.9,9.9,5.6,11.9,10.7l-0.2,0.1
			c-2.9-4.4-7.5-7.4-12.3-9c-4.9-1.7-10.2-2-15.3-1c-2.5,0.5-5.1,1.6-7,3.3c-2,1.7-3.2,4.1-3.6,6.6c-0.8,5,1.5,10,4.1,14.6
			L428.8,35.8z"/>
	</g>
	<polygon class="st0" points="298.4,435.6 298.5,436.7 299.5,437.2 298.5,437.7 298.2,438.8 297.5,437.9 296.4,438 297,437.1 
		296.5,436.1 297.6,436.3 	"/>
	<polygon class="st0" points="302,440.9 303,442.1 304.5,441.9 303.7,443.2 304.3,444.6 302.8,444.3 301.7,445.3 301.6,443.8 
		300.2,443 301.7,442.4 	"/>
	<polygon class="st0" points="294.9,446 294.8,446.9 295.4,447.6 294.5,447.7 294.1,448.5 293.7,447.7 292.7,447.6 293.4,446.9 
		293.2,446 294.1,446.4 	"/>
	<polygon class="st0" points="311.2,444.2 311,445.1 311.7,445.8 310.8,445.9 310.4,446.8 309.9,445.9 309,445.8 309.7,445.1 
		309.5,444.2 310.4,444.7 	"/>
	<polygon class="st0" points="304,448.8 303.8,450.5 304.9,451.6 303.3,451.8 302.6,453.3 301.9,451.8 300.2,451.6 301.4,450.5 
		301.1,448.8 302.6,449.6 	"/>
	<polygon class="st0" points="312,436.2 311.7,438.1 313.1,439.4 311.2,439.7 310.4,441.4 309.5,439.7 307.7,439.4 309,438.1 
		308.7,436.2 310.4,437.1 	"/>
	<polygon class="st0" points="383.1,239 380.9,243.2 383,247.4 378.3,246.5 375,249.8 374.4,245.1 370.2,243 374.5,241 375.2,236.3 
		378.5,239.7 	"/>
	<polygon class="st0" points="248.2,433 248.3,434.1 249.2,434.7 248.2,435.1 248,436.2 247.2,435.4 246.1,435.5 246.7,434.5 
		246.2,433.5 247.3,433.8 	"/>
	<polygon class="st0" points="251.7,438.4 252.7,439.5 254.2,439.4 253.4,440.7 254,442.1 252.6,441.7 251.4,442.7 251.3,441.2 
		250,440.4 251.4,439.9 	"/>
	<polygon class="st0" points="244.7,443.4 244.5,444.3 245.2,445 244.2,445.1 243.8,446 243.4,445.1 242.5,445 243.2,444.3 
		243,443.4 243.8,443.8 	"/>
	<polygon class="st0" points="260.9,441.6 260.8,442.6 261.5,443.2 260.5,443.4 260.1,444.2 259.7,443.4 258.8,443.2 259.4,442.6 
		259.3,441.7 260.1,442.1 	"/>
	<polygon class="st0" points="253.8,446.3 253.5,447.9 254.7,449 253.1,449.3 252.3,450.7 251.6,449.3 250,449 251.2,447.9 
		250.9,446.3 252.3,447 	"/>
	<polygon class="st0" points="261.8,433.6 261.5,435.5 262.8,436.8 260.9,437.1 260.1,438.8 259.3,437.1 257.4,436.8 258.7,435.5 
		258.4,433.6 260.1,434.5 	"/>
	<polyline class="st18" points="124,185.9 127.9,197.2 131,185.2 	"/>
	<polyline class="st18" points="136.6,184.9 138.5,195.3 143.4,184.9 	"/>
	<polyline class="st18" points="147.6,185.1 149.4,195 154.3,185.7 	"/>
	<polyline class="st18" points="160.1,186.4 161.2,195 166.2,187.6 	"/>
	<polygon class="st18" points="179,186 179,178 184,183.9 	"/>
	<polygon class="st18" points="208.3,181.2 214.1,175.5 213.3,183.3 	"/>
	<path class="st18" d="M76.3,141.9c0,0,0.1,1.2,1,3.7c0.1,0.4,0.8,1.9,0.8,1.9s2.1-6.7,2.2-7.5c1,2.3,2,3.9,2.5,4.8l0.8-5.5l3.2,3.7
		l-0.5-4.2c0,0-0.1-8-0.6-9.4c-0.9-2.9-5.7-2.5-8.2,3.5C75.3,138.2,76.3,141.9,76.3,141.9z"/>
	<path class="st21" d="M186.8,210.6c0,0,5.4-1.6,7.6-0.8c2.1,0.8,3.2,0.7,5.6,1.2c2.4,0.5,5.9-0.6,6.7-0.7c0.9-0.1,2.1,0.1,2.1,0.1
		s-0.1,1.8-1.4,3.1c-0.4,0.4-0.7,0.6-1.4,0.9c-2.7,1.2-6.5,0.4-8.3,0.1c-1.4-0.2-3.8-0.4-6.5-1.2c-0.8-0.2-1.5-0.5-2.3-0.9
		C187.2,211.6,186.8,210.6,186.8,210.6z"/>
	<g>
		<path class="st6" d="M195.6,210.9c-0.4,1.5-1.1,2.8-1.9,4.2l-0.2-1c1.5,1,2.9,2.1,4.1,3.4l0.5,0.5l-0.3,0.4
			c-0.7,1.2-1.4,2.3-2.4,3.4c0.2-1.4,0.6-2.8,1-4.1l0.2,0.9c-1.5-1-2.9-2.1-4.2-3.3l-0.6-0.5l0.4-0.5
			C193.4,213,194.3,211.9,195.6,210.9z"/>
	</g>
	<g>
		<path class="st6" d="M204.6,213.2c0.3,1.5,0.4,3.1,0.4,4.6l-0.7-0.8c1.8,0.1,3.7,0.3,5.5,0.7l0.7,0.1v0.6c0,1.4-0.1,2.8-0.4,4.2
			c-0.6-1.3-0.9-2.7-1.1-4.1l0.7,0.7c-1.9,0-3.7-0.3-5.5-0.6l-0.8-0.2l0.1-0.7C203.7,216.2,204,214.7,204.6,213.2z"/>
	</g>
	<path class="st22" d="M517.5,264.1l0,6.7c0,0,2.5,0,10.2,0c5.1,0,10.4,0,10.4,0s0-1.6,0-1.9c0-1.2,0-4.6,0-4.6"/>
	<ellipse class="st9" cx="527.8" cy="263.7" rx="10.3" ry="3.5"/>
	<g id="XMLID_1_">
		<g>
			<path class="st23" d="M520.9,229.5l-2.8-0.2l0,0c-0.1-0.1-0.2-0.3-0.3-0.5h0.1l3.1-0.4c0,0.3,0,0.5,0,0.7l0,0c0,0.2,0,0.3,0,0.3
				L520.9,229.5z"/>
			<path class="st24" d="M517.4,228.4c0.1,0.1,0.1,0.1,0.2,0.2c0,0.1,0.1,0.1,0.1,0.2l0,0c0,0,0,0,0,0c0,0,0,0,0,0.1
				c0,0,0,0.1,0,0.1c0.1,0.2,0.3,0.4,0.3,0.4l0,0c0.1,0.1,0.2,0.2,0.2,0.3c0.1,0.1,0.6,0.7,0.6,1.1c0.1,0.4-0.1,1.1-0.1,1.1
				s0,0.1-0.1,0.2c0,0,0,0,0,0s-0.1,0.1-0.1,0.1c-0.1,0-0.2-0.1-0.2-0.1h0c0,0,0,0,0,0h0c0,0,0,0,0,0c-0.4-0.1-0.8-0.1-1,0.1
				c-0.2,0.2-0.2,0.2-0.2,0.2s-0.1,0.1-0.3,0.1c-0.2,0-0.2,0-0.2-0.1c0-0.1-0.1-0.1-0.1-0.2c0-0.1-0.1-0.2-0.1-0.2s-0.2-1.1,0.1-1.8
				c0.3-0.7,0.6-1.4,0.6-1.6c0-0.2-0.1-0.3,0.1-0.3C517.3,228.3,517.3,228.3,517.4,228.4z"/>
			<path class="st24" d="M517.8,228.9c0.1,0.2,0.2,0.3,0.3,0.5C518.1,229.3,517.9,229.1,517.8,228.9
				C517.8,228.9,517.8,228.9,517.8,228.9z"/>
			<path class="st25" d="M517.6,227.8c0.1-0.2,3.1-0.7,3.4-0.8c-0.1,0.5-0.1,1.1-0.1,1.5l-3.1,0.4h0c0,0-0.1-0.1-0.1-0.1
				c0-0.1,0-0.1-0.1-0.1c-0.1-0.1-0.1-0.2-0.2-0.2C517.4,228.4,517.4,228,517.6,227.8z"/>
			<path class="st26" d="M517.6,232.2c0.2-0.1,0.7,0.1,1,0.1c0.1,0,0.1-0.1,0.2-0.1c0.1,0,0.6,0,0.8,0.1c0.2,0.1,0.2,0.3,0.3,0.5
				c0,0.1,0,0.2,0,0.3c0,0.2,0,0.7-0.1,1c-0.1,0.3-0.7,0.4-0.7,0.4l0,0c-0.1,0-0.2,0.1-0.4,0.1c-1.2,0.2-2.8,0.1-2.8,0.1
				c-0.1,0-0.2,0-0.3-0.1c-0.2-0.1-0.2-0.6-0.3-1.1c0-0.5,0.1-0.7,0.3-0.9c0.2-0.2,0.8-0.2,0.8-0.2h0c0,0.1,0.1,0.2,0.1,0.3
				c0.1,0.2,0.3,0,0.6-0.1C517.4,232.3,517.4,232.3,517.6,232.2z"/>
			<path class="st27" d="M522.8,236.5c0.2,0.7,0.2,1.4,0.2,1.5h0c0-0.1,0-0.1-0.3-0.1s-0.5-0.2-0.7-0.4c-0.2-0.2-0.2-1.3-0.2-1.8
				c0-0.5-0.1-1.9-0.1-1.9s0,0-0.4,0c-0.3,0-0.3-0.1-0.3-0.1s0,0-0.3-0.3c-0.2-0.2-0.3-0.6-0.3-0.9c0-0.3-0.1-0.5-0.1-0.6
				c-0.1-0.2,0.1-1,0.2-1.1c0.1-0.1,0.3-0.1,0.3-0.1s0-0.4,0-0.7c0-0.3,0.1-0.5,0.1-0.5l0.1-0.1c0,0,0-0.1,0-0.3l0,0
				c0.1-0.1,0.6-0.8,1.2-1.3c0.6-0.6,1.6-1,2.7-1.3c1.1-0.3,3-0.7,4.6-0.5c1.7,0.2,3,1.1,4.2,1.8c1.2,0.7,2,3,2,3h0.1
				c0,0.4,0.1,0.3,0.1,0.5c0.1,0.2,0.2,1.2,0.1,1.3c-0.1,0.1-0.2,0.2-0.2,0.5c0,0.2,0.1,0.9,0.2,1.5c0.1,0.6,0.2,1.1,0.2,1.5
				c0,0.4,0.1,1-0.1,1.2c-0.2,0.2-1.1,0.3-1.1,0.3s0,0.1,0,0.2c0-0.3,0-1.7,0-2.5l0,0c0-0.2,0-0.5,0.1-0.6c0.2-0.6,0-1.2-0.1-1.4
				c-0.1-0.2-0.7-0.3-1-0.5c-0.3-0.2-0.7-1.8-1-2.2c-0.3-0.4-0.2-0.5-3-1c-2.8-0.5-3-1.7-3-1.7s0,1.1-1,1.5c-1,0.3-2.5,1-2.9,1.1
				c-0.4,0.2-0.7,0.9-0.7,1.3s0.2,0.6,0,1.2c-0.2,0.7-0.3,0.8-0.2,1.4C522.3,235.1,522.6,235.8,522.8,236.5z"/>
			<path class="st24" d="M518.6,232.2c-0.3,0-0.8-0.1-1-0.1c-0.2,0.1-0.2,0.1-0.4,0.3c-0.2,0.1-0.4,0.3-0.6,0.1
				c-0.1-0.1-0.1-0.2-0.1-0.3c0.1,0,0.1,0.1,0.1,0.2c0,0.1-0.1,0.1,0.2,0.1c0.2,0,0.3-0.1,0.3-0.1s0,0.1,0.2-0.2
				c0.2-0.2,0.6-0.2,1-0.1c0,0,0,0,0,0h0h0l0,0C518.3,232.1,518.4,232.1,518.6,232.2c0.1,0,0.1-0.1,0.1-0.1s0,0,0,0
				C518.7,232.2,518.6,232.2,518.6,232.2z"/>
			<path class="st28" d="M529.5,226.1c-1.7-0.3-3.5,0.2-4.6,0.5c-1.1,0.3-2.1,0.7-2.7,1.3c-0.6,0.5-1.1,1.2-1.2,1.3
				c0-0.2,0-0.4,0-0.7c0-0.4,0-1,0.1-1.5v0c0.1-0.4,0.1-0.9,0.3-1.3c0.1-0.2,0.1-0.3,0.2-0.5c0.2-0.3,0.5-0.6,0.9-0.9
				c0.5-0.4,1-0.8,1.6-1c0.6-0.3,1.2-0.5,1.8-0.6c1.5-0.2,1.5-0.2,1.5-0.2s0.6-0.1,1.4,0c0.2,0,0.4,0,0.6,0h0c0.1,0,0.2,0,0.2,0
				s0,0,0.1,0c0.6,0.1,1.1,0.2,1.7,0.3c0.6,0.2,1.1,0.5,1.5,0.8c0,0,0,0,0,0c0.5,0.5,0.9,0.9,1.3,1.4c0.3,0.4,0.6,0.8,0.8,1.2
				c0.3,0.5,0.5,0.9,0.6,1.2c0,0.1,0,0.1,0.1,0.1c0.2,0.6,0.3,0.9,0.3,1v0c0,0.1,0,0.4,0,0.6c0,0.4-0.1,1,0,1.5c0,0.1,0,0.1,0,0.2
				h-0.1c0,0-0.8-2.3-2-3C532.5,227.2,531.1,226.3,529.5,226.1z"/>
			<path class="st23" d="M525.8,222.6c0.3,0,0.3-0.4,0.3-0.4l0-3.8c0,0,0-0.4,0-0.8c0.2,0,0.6-0.2,0.7,0c0.1,0.2,1.6,4.1,1.9,4.8
				c-0.8,0-1.4,0-1.4,0S527.3,222.4,525.8,222.6L525.8,222.6z"/>
			<path class="st29" d="M532.3,239.8c-0.1,0-0.1,0-0.2,0.1c-0.1,0.2-1.5,1.1-1.8,1.2c-0.1,0-0.1,0.1-0.1,0.1l-0.1,0
				c-0.1,0.1-1.3,0.7-2.6,0.5c-1.4-0.2-1.5-0.2-1.5-0.2h0c0.1-0.1-0.1-0.1-0.4-0.3c-0.4-0.2-0.8-0.6-0.9-0.7
				c-0.1-0.2-0.1-0.1-0.3-0.2c-0.1-0.1-0.4-0.1-0.7-0.2s-0.5-0.5-0.6-0.7c-0.2-0.2-0.2-1.2-0.2-1.4h0c0-0.1,0.1-0.8-0.2-1.5
				c-0.3-0.7-0.5-1.4-0.6-2c-0.1-0.6,0-0.6,0.2-1.4c0.2-0.7,0-0.9,0-1.2s0.3-1.1,0.7-1.3c0.4-0.2,1.9-0.8,2.9-1.1c1-0.3,1-1.5,1-1.5
				s0.2,1.2,3,1.7c2.8,0.5,2.7,0.6,3,1c0.3,0.4,0.8,2,1,2.2c0.3,0.2,0.9,0.4,1,0.5c0.1,0.2,0.2,0.8,0.1,1.4c0,0.1-0.1,0.3-0.1,0.6
				l0,0c0,0.1-0.1,0.4-0.4,0.7c-0.4,0.4-0.7,0.3-0.8,0.5c-0.2,0.2-0.1,0.5-0.4,1.4C533,238.9,532.3,239.8,532.3,239.8z"/>
			<path class="st30" d="M537,246.1c0-0.1-1.7-1.4-1.9-1.5l0-0.2c0.1,0,0.1,0,0.2,0c0.4-0.1,0.6,0.1,0.6,0.1s1.8,1.5,2,1.6
				c0.2,0.1-0.1,0.5-0.1,0.8c-0.1,0.3,0.2,0.3,0.3,0.6c0.1,0.3-0.2,0.5-0.4,0.9c-0.2,0.4-0.1,0.5-0.1,0.7c0,0.2,0.1,0.4,0.1,0.4
				c0,0,0,0.4-0.1,0.6c0,0.1-0.1,0.2-0.1,0.4c-0.1,0.1-0.1,0.2-0.2,0.4c-0.1,0.2-0.2,0.2-0.2,0.4c-0.1,0.3-0.2,0.4-0.4,0.6
				c-0.2,0.1-0.4-0.1-0.5-0.1c-0.1,0-0.4,0.6-0.5,0.9c-0.1,0.4-0.5,0.8-1,0.9c-0.2,0-0.3,0-0.5,0c0.1-0.1,0.9-2.3,1-2.4
				c0.1-0.1,0.2-0.7,0.3-0.8c0-0.1,0.1-0.3,0.1-0.4c0-0.1,0.3-0.4,0.5-0.6c0.2-0.2,0.8-1.2,0.9-1.4c0.1-0.2,0-0.4-0.1-0.4
				c-0.1,0-0.2-0.2-0.2-0.4C536.7,246.6,537.1,246.2,537,246.1z"/>
			<path class="st25" d="M535.3,222.9c1-0.2,3.7-0.7,4-0.6c0.2,0.1,0.1,0.7,0.1,1.1l-5.2,1.6c-0.4-0.4-0.8-0.9-1.3-1.4c0,0,0,0,0,0
				l0.1-0.1C532.9,223.5,534.2,223.1,535.3,222.9z"/>
			<path class="st25" d="M516.1,225L516.1,225c0-0.2,0.1-0.4,0.1-0.8c0.1-0.7,0.9-0.6,0.9-0.6l5.2,0.5l0.1,0.1
				c-0.3,0.3-0.6,0.6-0.9,0.9c-0.1,0.1-0.2,0.3-0.2,0.5l0,0L516.1,225z"/>
			<path class="st24" d="M518.3,232.1L518.3,232.1L518.3,232.1z"/>
			<path class="st31" d="M525.9,251.4c-1.1,1.7-2.5,3.5-2.5,3.5l-0.3,0c-0.1-0.2-0.1-0.4-0.2-0.5c-0.1-0.2-0.2-0.5,0.1-0.8
				c0.2-0.3,0.4-0.5,0.3-0.8c0-0.1-0.1-0.2-0.2-0.3c0.2-0.3,0.9-1,1.7-1.9c1.1-1.1,1.9-1.8,2.1-2c0.1-0.1,0.2-0.2,0.3-0.4
				C527,248.9,526.8,250.1,525.9,251.4z"/>
			<path class="st23" d="M519.2,220.4c0,0,0.3-0.4,0.4-0.4c0.1,0,4.3,3.1,4.3,3.1l0.1,0.1c-0.6,0.3-1.2,0.6-1.7,1l-0.1-0.1
				c0,0-2.8-3.3-3-3.6C519.2,220.5,519.2,220.4,519.2,220.4L519.2,220.4z"/>
			<path class="st32" d="M533,243.6c0.1,0.1,0.1,0.8,0.1,0.8c0,0.2,0.2,0.4,0.4,0.7c-0.2-0.1-1.5-1.1-1.7-1.1
				c-0.1,0-0.2-0.1-0.4-0.1l0,0h0c-0.1-0.1-0.2-0.1-0.3-0.2c-0.3-0.2-0.6-0.4-0.6-0.4l-0.1-0.1l0.2-0.3l0,0c0.1-0.2,0.1-0.3,0.1-0.3
				c0.2,0.1,0.5,0.1,0.7,0.2c0.2,0.1,0.4,0.2,0.7,0.4C532.4,243.2,532.9,243.5,533,243.6z"/>
			<path class="st25" d="M534.4,218.6c0.6-0.5,0.9-0.3,1.1-0.2c0.2,0.1,0.3,0.7,0.2,1.1c0,0.2-0.1,0.3-0.1,0.5c0,0-0.1,0-0.2-0.2
				c-0.2-0.3-0.3-0.2-0.5-0.2s-3.5,3.1-3.5,3.1l0,0.1c-0.6-0.2-1.2-0.3-1.7-0.3C529.9,222.2,533.8,219.1,534.4,218.6z"/>
			<path class="st33" d="M528.2,258.3c0,0.1,0,0.2,0.2,0.3c0.4,0.1,1.2-0.1,1.1,0c-0.1,0.1-0.9,0.6-1.7,1.1
				c-0.4,0.3-0.9,0.5-1.1,0.6c-0.6,0.3-0.9,0.3-1.3,0.4c-0.1,0-0.2,0.1-0.4,0.1c-0.5,0.2-0.6,0.4-1,0.4c-0.4,0-0.6,0-0.8-0.1
				c-0.2-0.1-0.5-0.4-0.5-0.4l0,0c0.1-0.2,0.3-0.5,0.4-0.7c0.2-0.6,0.2-1.2,0.2-1.2s0-0.2,0-0.5c0-0.3-0.2-0.7-0.2-0.9
				c0-0.1,0-0.1-0.1-0.2l0.1,0c0,0,0.2,0.8,1.2,0.4c1-0.4,3.7-2.5,4-2.7c0.2-0.1,0.5-0.4,0.6-0.4c0.1,0,0.1,0.1,0.1,0.2
				c-0.1,0.5-0.2,2.3-0.3,2.8c-0.1,0.3-0.2,0.5-0.3,0.7l0,0C528.2,258.2,528.2,258.2,528.2,258.3z"/>
			<path class="st25" d="M535.5,227.2c-0.1-0.3-0.2-0.6-0.5-1.1l0.2,0l1-0.6l0.1-0.1c0,0,2.3,0.2,2.6,0.2c0.4,0,0.7,0.3,0.7,0.7
				c0.1,0.2,0,0.5-0.1,0.8h0l-3.9,0L535.5,227.2L535.5,227.2z"/>
			<path class="st23" d="M517.1,237.4c0,0-0.4,0-0.6-0.2c-0.2-0.2-0.2-0.8-0.3-1c0-0.2-0.1-1.4-0.1-1.6c0-0.1-0.1-0.1-0.1-0.1
				c0,0,1.7,0.1,2.8-0.1l0,0.1c0,0,0,0.2,0,0.4c0.1,0.2,0.1,1.4,0.1,1.7c0,0.2,0.1,1.3,0,1.7c-0.1,0.4-0.8,0.5-0.9,0.5h0
				c0,0,0,0,0,0c-0.3,0-0.5-0.1-0.5-0.2c0-0.1-0.2-0.4-0.3-0.5c-0.1-0.1-0.1-0.2-0.1-0.4C517.1,237.6,517.1,237.4,517.1,237.4z"/>
			<path class="st34" d="M527.5,243.2c1,0.4,2,0.3,2.5,0.1c0.3-0.1,0.4-0.3,0.6-0.4l-0.2,0.3l-0.3,0.4c0,0-0.3,0.6-0.5,0.7
				c-0.1,0.1-0.1,0.2-0.3,0.3c-0.3,0.3-0.8,0.7-1.4,1c-0.8,0.4-1.1,0.7-2.2,1.5c-1.1,0.8-2.5,2.6-2.5,2.6l-0.1,0
				c0-0.1-0.2-0.2-0.3-0.4c-0.1-0.3-0.1-0.4,0-0.9c0.1-0.5,0.1-0.5,0-0.6c0,0-0.1-0.1-0.1-0.1c0.2,0,1.2-1.5,1.4-2.5
				c0.2-1.1,0.6-2.5,0.9-2.8c0.3-0.3,1.1-0.7,1.1-0.7l0.1,0C526.2,241.9,526.6,242.8,527.5,243.2z"/>
			<path class="st35" d="M532.6,251.8c0,0.1,0,0.2,0,0.2c0,0-0.1-0.1-0.1-0.1s0,0,0,0.2c0,0.2,0.1,0.8,0.1,1.3s0.1,0.7,0.1,1.3
				c0.1,0.6,0.1,0.9,0,1.3c-0.1,0.5,0,0.8,0,1.4c0,0.4,0,0.8-0.1,1.1h0c-0.3,0-0.6,0-0.6-0.5c-0.1-0.5-0.1-1.4-0.2-1.4
				c-0.1-0.1-0.2,0-0.7,0.4c-0.3,0.2-0.8,0.5-1.2,0.7c-0.3,0.2-0.6,0.3-0.8,0.4c-0.4,0.1-0.8,0.2-0.9,0.2c0.1-0.2,0.2-0.5,0.3-0.7
				c0.2-0.5,0.2-2.3,0.3-2.8c0-0.2,0-0.2-0.1-0.2l0,0c0,0,0.2-0.8,0.2-1c0-0.2,0.1-0.3-0.2-0.4c-0.2,0-0.8-0.1-0.7-0.2
				c0.1-0.1,0.8-0.3,1.3-0.5c0.5-0.2,1.4-0.9,1.6-1.1c0.1-0.2,0-0.2,0-0.4c0-0.3-0.3-0.6-0.2-0.6c0.1,0,0.6-0.1,0.7,0
				c0.1,0.1,0.2,0.2,0.3,0.3s0.3,0.7,0.3,0.7c0,0.1,0.4,0.5,0.4,0.5L532.6,251.8z"/>
			<path class="st23" d="M534.1,225l5.2-1.6v0c0,0.4,0,0.6-0.3,0.7c-0.3,0.2-2.7,1.4-2.7,1.4l-0.1,0.1l-1,0.6l-0.2,0.1
				C534.8,225.9,534.5,225.4,534.1,225z"/>
			<path class="st36" d="M534.3,239.8c-0.5,0.3-1.4,0.3-1.6,0.2c-0.1-0.1-0.3-0.2-0.4-0.2c0,0,0.7-0.9,1.1-1.8
				c0.4-0.9,0.3-1.3,0.4-1.4c0.2-0.2,0.4-0.1,0.8-0.5c0.3-0.3,0.4-0.6,0.4-0.7c0,0.9,0,2.2,0,2.5c0,0.1,0,0.2,0,0.4
				C535.1,238.6,534.8,239.5,534.3,239.8z"/>
			<path class="st23" d="M532.9,223.5l-0.1,0.1c-0.4-0.4-1-0.7-1.6-0.8l0.1-0.1c0,0,3.3-3.1,3.5-3.1c0.2-0.1,0.3-0.1,0.6,0.2
				c0.1,0.1,0.1,0.2,0.2,0.2c-0.1,0.2-0.2,0.3-0.3,0.5C534.9,220.9,532.9,223.5,532.9,223.5z"/>
			<path class="st23" d="M539.2,227.7c-0.5,0.2-3.4,0.8-3.4,0.8l0,0c0-0.1-0.1-0.5-0.3-1.1c0,0-0.1-0.2-0.1-0.2h0.2l3.9,0h0
				C539.6,227.5,539.5,227.6,539.2,227.7z"/>
			<path class="st37" d="M522.7,247.7c-0.1,0-0.3,0-0.5-0.1c-0.3-0.1-0.5-0.4-0.6-0.7c-0.2-0.3-0.3-0.8-0.2-1
				c0.1-0.3,0.4-0.8,0.4-1.4c0-0.1,0-0.2,0-0.2h0c0,0,0.3-0.4,0.5-1.1s0.5-0.8,0.6-1.4c0.1-0.6,0.2-0.6,0.2-0.6l0.1-0.1
				c0.3,0.1,0.6,0.2,1.1,0.5c0.6,0.3,0.8,0.2,1.2,0.2c0.2,0,0.4-0.1,0.5-0.1h0.2c0,0,0,0,0,0.1l-0.1,0c0,0-0.8,0.4-1.1,0.7
				c-0.3,0.3-0.7,1.7-0.9,2.8C523.9,246.3,522.9,247.7,522.7,247.7z"/>
			<path class="st38" d="M527.9,245.6c0.5-0.3,1-0.7,1.4-1l0.2-0.2c-0.1,0.1-1.5,2.5-1.9,3.2c-0.1,0.1-0.2,0.3-0.2,0.5
				c-0.1,0.2-0.2,0.4-0.3,0.4c-0.2,0.2-1,1-2.1,2c-0.9,0.9-1.5,1.6-1.7,1.9c-0.2-0.2-0.4-0.4-0.7-0.7c-0.4-0.5-0.1-1,0.1-1.2
				c0.2-0.3,0.3-0.4,0.4-0.6c0-0.1,0-0.1,0-0.1l0.1,0c0,0,1.4-1.8,2.5-2.6C526.7,246.3,527.1,246,527.9,245.6z"/>
			<path class="st38" d="M530.5,242.8c-0.1,0.2-0.3,0.3-0.6,0.4c-0.6,0.2-1.5,0.3-2.5-0.1c-0.9-0.3-1.2-1.3-1.4-1.5
				c0-0.1,0-0.1,0-0.1h-0.2c0.1,0,0.1-0.1,0.1-0.1h0c0,0,0.1,0.1,1.5,0.2c1.3,0.2,2.4-0.5,2.6-0.5l0.1,0c-0.1,0.2,0,0.6,0,0.9
				c0,0.3,0.2,0.4,0.5,0.5c0,0,0,0,0,0C530.7,242.5,530.7,242.6,530.5,242.8L530.5,242.8z"/>
			<path class="st39" d="M531.8,243.9c0.2,0,1.5,1,1.7,1.1l0,0c0.1,0.2,0.2,0.3,0.2,0.3l0,0.3c0,0-0.4,0.6-0.7,0.9
				c-0.3,0.2-0.4,0.5-0.5,0.5c0,0,0,0,0,0c0-0.2-0.1-1.1-0.4-1.9c-0.3-0.8-0.7-1.4-0.7-1.4C531.6,243.9,531.7,243.9,531.8,243.9z"/>
			<path class="st40" d="M527.7,265.4c-0.3-0.1-0.6,0-1.4,0.2c-0.2,0.1-0.4,0.1-0.6,0.1c0-0.1,0.1-0.9,0.4-1.4
				c0.3-0.6,0.4-0.8,0.8-1.9s0.8-2.8,0.8-2.8l0,0c0.8-0.5,1.6-1,1.7-1.1c0.1-0.1-0.7,0.1-1.1,0c-0.2,0-0.2-0.1-0.2-0.3
				c0,0,0-0.1,0-0.1l0,0c0.1,0,0.5-0.1,0.9-0.2c0.2-0.1,0.5-0.2,0.8-0.4l0.1,0.1c0,0-0.2,1.4-0.3,2.5c-0.1,1.1-0.1,1.7-0.2,2.2
				c-0.1,0.5-0.1,1,0,1.2c0.1,0.2,0.5,0.8,0.6,1.1c0.1,0.2,0.1,0.5,0.1,0.5c-0.1,0-0.2,0.1-0.3,0.1c-0.2,0.1-0.4,0.4-1.1,0.5
				C528.2,265.8,528,265.5,527.7,265.4z"/>
			<path class="st41" d="M532.6,258.8c-0.1,0.4-0.2,0.5-0.1,0.7c0.1,0.2-0.1,0.9-0.1,1c0,0.1-0.1,0.3,0,0.5c0.1,0.2,0.3,0.2,0.2,0.5
				c0,0.2,0.1,0.3,0.2,0.5c0.1,0.2,0.1,0.6,0,0.9c-0.1,0.3,0.1,0.7,0.1,1c0,0.3,0,0.6-0.1,0.9c-0.1,0.2-0.4,0.3-0.7,0.3
				c-0.3,0-1-0.1-1.3-0.1c-0.2,0-0.4,0-0.5,0.1c0,0,0-0.3-0.1-0.5c-0.1-0.3-0.6-0.9-0.6-1.1c-0.1-0.2,0-0.7,0-1.2
				c0.1-0.4,0.1-1,0.2-2.2s0.3-2.5,0.3-2.5l-0.1-0.1c0.4-0.2,0.9-0.5,1.2-0.7c0.6-0.3,0.6-0.4,0.7-0.4c0.1,0,0.2,0.9,0.2,1.4
				c0,0.5,0.3,0.5,0.6,0.5h0C532.7,258.6,532.7,258.7,532.6,258.8z"/>
			<path class="st25" d="M522.1,220.2c1.1,0.9,3.6,2.3,3.6,2.3c0,0,0.2,0.1,0.2,0.1l-0.1,0c-0.6,0.1-1.2,0.3-1.8,0.6l-0.1-0.1
				c0,0-4.3-3.1-4.3-3.1c-0.1,0-0.4,0.4-0.4,0.4l0,0c-0.1-0.4,0-1.1,0.1-1.4c0.1-0.4,0.2-0.4,0.7-0.3S521.1,219.4,522.1,220.2z"/>
			<path class="st42" d="M528.8,254.4c-0.2,0-0.5,0.2-0.6,0.4c-0.2,0.2-3,2.3-4,2.7c-1,0.4-1.2-0.4-1.2-0.4l-0.1,0
				c0-0.2,0-0.4,0-0.6c0-0.3,0.2-0.7,0.3-1c0.1-0.2,0.1-0.2,0-0.5c0-0.1-0.1-0.1-0.1-0.2l0.3,0c0,0,1.4-1.8,2.5-3.5
				c0.9-1.3,1.1-2.5,1.4-3.3c0.1-0.2,0.2-0.4,0.2-0.5c0.5-0.7,1.7-2.8,1.8-2.9l0-0.1c0.1-0.2,0.1-0.2,0.2-0.3
				c0.2-0.2,0.5-0.7,0.5-0.7l0.3-0.4l0.1,0.1c0,0,0.3,0.2,0.6,0.4c0.1,0.1,0.2,0.1,0.3,0.2h0l0,0c0,0.1,0.4,0.6,0.7,1.4
				c0.3,0.7,0.4,1.7,0.4,1.9c0,0.1,0.2,1.1,0.1,2c-0.1,1-0.1,1.6-0.1,1.8c0,0.1,0.1,0.6,0.1,0.8h-0.1c0,0-0.3-0.5-0.4-0.5
				c0,0-0.2-0.6-0.3-0.7s-0.1-0.3-0.3-0.3c-0.1-0.1-0.6,0-0.7,0c-0.1,0.1,0.1,0.4,0.2,0.6c0,0.3,0.1,0.2,0,0.4
				c-0.1,0.2-1.1,0.9-1.6,1.1c-0.5,0.2-1.2,0.4-1.3,0.5c-0.1,0.1,0.5,0.2,0.7,0.2c0.2,0,0.2,0.2,0.2,0.4
				C529,253.6,528.8,254.4,528.8,254.4L528.8,254.4z"/>
			<path class="st25" d="M518.3,232.1L518.3,232.1L518.3,232.1z"/>
			<path class="st43" d="M522.3,243.1c-0.2,0.7-0.5,1.1-0.5,1.1h0c0-0.4-0.2-0.5-0.4-0.9c-0.3-0.4-1.2-1.3-1.6-1.7
				c-0.4-0.4-0.9-1.5-0.9-1.6c-0.1-0.2-0.4-1.2-0.7-1.2c0.1,0,0.8-0.1,0.9-0.5c0.1-0.5,0-1.5,0-1.7c0-0.3,0-1.4-0.1-1.7
				c0-0.2,0-0.4,0-0.4l0-0.1c0.1,0,0.2,0,0.4-0.1c0,0,0,0.1,0.2,0.3c0.2,0.3,0.1,0.7,0.2,1.5c0.1,0.8,0.5,1,1.3,2
				c0.8,1,1.4,2.1,1.5,2.3c0.1,0.2,0.3,0.4,0.6,0.6c0,0,0.1,0,0.1,0.1l-0.1,0.1c0,0-0.1,0.1-0.2,0.6
				C522.8,242.3,522.4,242.4,522.3,243.1z"/>
			<path class="st44" d="M533.7,245.4c0,0,0-0.4,0-0.6c0-0.3,0.5,0,0.8,0c0.3,0,0.2,0,0.3-0.2c0.1-0.2,0.1-0.2,0.3-0.2l0,0.2
				c0.2,0.2,1.8,1.5,1.9,1.5c0,0.1-0.3,0.5-0.3,0.7c0,0.2,0.1,0.4,0.2,0.4c0.1,0,0.2,0.2,0.1,0.4c-0.1,0.2-0.7,1.2-0.9,1.4
				c-0.2,0.2-0.5,0.5-0.5,0.6c0,0.1-0.1,0.3-0.1,0.4c0,0.1-0.2,0.8-0.3,0.8c0,0.1-0.9,2.3-1,2.4c-0.4-0.1-0.7-0.4-1-0.7
				c-0.3-0.3-0.5-0.6-0.6-0.7c0,0,0-0.1,0-0.2c0-0.2-0.1-0.7-0.1-0.8c0-0.2,0-0.9,0.1-1.8c0.1-0.9-0.1-1.9-0.1-2v0
				c0.1-0.1,0.2-0.3,0.5-0.5c0.3-0.2,0.7-0.9,0.7-0.9L533.7,245.4z"/>
			<path class="st45" d="M522.9,262.9c0-0.1-0.6-0.2-0.7-0.3c-0.1-0.1-0.2-0.3-0.3-0.7c-0.1-0.4,0.1-0.5,0.2-0.6
				c0.1-0.1,0.3-0.4,0.5-0.7l0,0c0,0,0.3,0.3,0.5,0.4c0.2,0.1,0.4,0.1,0.8,0.1c0.4,0,0.4-0.2,1-0.4c0.1,0,0.2-0.1,0.4-0.1l0,0.1
				c0,0-0.2,1.2-1.2,2c-0.9,0.8-1.4,1.1-1.4,1.1h0c0-0.1-0.1-0.3-0.1-0.4C522.7,263.3,522.9,263.1,522.9,262.9z"/>
			<path class="st23" d="M521,226.9c-0.4-0.1-4.1-1.2-4.6-1.5c-0.3-0.1-0.3-0.2-0.3-0.4h0l5.2,0.6l0,0
				C521.1,226,521,226.5,521,226.9z"/>
			<path class="st25" d="M528.7,222.4c-0.2-0.6-1.7-4.6-1.9-4.8c-0.1-0.2-0.5,0-0.7,0c0-0.6,0.1-1.3,0.2-1.4c0.2-0.2,0.6,0,0.7,0.4
				c0.1,0.3,1,2.8,1.3,3.7c0.3,0.9,0.6,2,0.7,2c0.1,0,0.2,0,0.2,0C529.1,222.4,528.9,222.4,528.7,222.4z"/>
			<path class="st46" d="M527.8,259.6c0,0-0.4,1.8-0.8,2.8c-0.4,1-0.5,1.3-0.8,1.9c-0.3,0.5-0.4,1.3-0.4,1.4c-0.3,0-0.4-0.1-0.6-0.1
				c-0.3-0.1-0.5-0.1-1.1-0.3c-0.6-0.2-1-0.2-1.3-0.2s-0.2-0.1-0.2-0.3c0-0.1-0.1-0.2-0.1-0.3c0-0.2,0.2-0.2,0.3-0.4
				c0,0,0-0.1,0-0.1h0c0,0,0.4-0.2,1.4-1.1c0.9-0.8,1.2-2,1.2-2l0-0.1c0.4-0.1,0.8-0.1,1.3-0.4C526.9,260.1,527.4,259.9,527.8,259.6
				L527.8,259.6z"/>
		</g>
	</g>
	<polygon class="st2" points="551.6,115.4 551.5,130.5 541.9,118.8 526.7,118.8 538.4,109.2 538.5,94 548.1,105.7 563.3,105.7 	"/>
	<polygon class="st6" points="588.8,128.4 582.8,133.7 584,125.8 578.7,119.8 586.6,121 592.6,115.7 591.4,123.6 596.7,129.6 	"/>
	<polygon class="st2" points="84.7,362.9 76.5,370.2 78.2,359.4 70.9,351.2 81.7,352.9 89.9,345.6 88.2,356.4 95.5,364.6 	"/>
	<polygon class="st6" points="546.5,161.2 539,168.2 540.3,158 533.3,150.5 543.5,151.8 551,144.8 549.7,155 556.7,162.5 	"/>
	<polygon class="st6" points="52.8,328.2 54.1,336.1 48.1,330.9 40.1,332.2 45.4,326.1 44.1,318.1 50.2,323.4 58.1,322.1 	"/>
	<polygon class="st18" points="183,260 190,259.9 190.1,261.7 183,262 	"/>
	<polygon class="st1" points="234.2,227.5 241.7,227.5 240.2,238.4 232.5,238.4 	"/>
	<path class="st8" d="M346.4,122.2c0,0,1.8,0.2,2.8,0.3s1.7,0.2,1.7,0.2l0.4,3.3c0,0-0.7-0.1-2.1-0.1c-1.4-0.1-1.8-0.1-2.4-0.1
		c-0.6,0-0.5-3.5-0.5-3.5L346.4,122.2z"/>
	<path class="st8" d="M343.8,98.7c0,0,1.6-0.2,5-0.4c3.4-0.2,3.1-5,3.1-5s-2.6,0.2-3.7,0.3c-1.1,0.1-3.4,0.4-3.4,0.4l-1.2,0.2
		l-0.1,4.4L343.8,98.7z"/>
	<path class="st8" d="M429,93.4c0,0,11.4,0.4,16.4,0.6c5,0.2,5.7,0.3,5.7,0.3l-1.3,5.5L432,99.9L429,93.4z"/>
	<path class="st17" d="M194.6,259.5h6.9c0,0,0,2.8,0.4,4.9c0.5,2,0.2,1.5,0.2,1.5l-7.6,0.5L194.6,259.5z"/>
	<path class="st17" d="M201.6,229.9l-36.2,0.5l1.1,5.9c0,0,8.9-0.6,18.5-1s16.4-0.2,16.4-0.2L201.6,229.9z"/>
	<polygon class="st6" points="441.2,42.3 448.9,54.2 448.9,56.1 437.4,44.2 427.2,37.8 422.1,34.3 423,32.2 429.4,37.1 436,39.8 
		440,42.9 	"/>
</g>
</svg>
