<?xml version="1.0" encoding="utf-8"?>
<!-- Generator: Adobe Illustrator 24.2.3, SVG Export Plug-In . SVG Version: 6.00 Build 0)  -->
<svg version="1.1" id="Lager_1" xmlns="http://www.w3.org/2000/svg" xmlns:xlink="http://www.w3.org/1999/xlink" x="0px" y="0px"
	 viewBox="0 0 800 500" style="enable-background:new 0 0 800 500;" xml:space="preserve">
<style type="text/css">
	.st0{fill:#FFFFFF;}
</style>
<path class="st0" d="M470.05,177.42c-2.42,1.61-6.45,0.94-9.28,2.82c-2.83,1.88-4.24,5.85-4.24,11.9v110.38
	c0,3.43,1.33,6.38,3.98,8.83c2.65,2.45,6.92,1.25,9.54,3.68c1.22,1.13,1.45,5.51,0,6.38c-4.29,2.56-10.12,1.38-14.85,0.61
	c-5.29-0.86-12.57-4.3-18.47-0.36c-2.96,1.98-10.9,4.47-13.28,5.12c-2.39,0.66-3.93,1.11-6.32,1.68c-2.39,0.57-5.09,0.94-7.82,1.35
	c-2.75,0.41-5.81,0.43-9.52,0.43c-7.6,0-13.48-1.76-17.63-5.29c-4.16-3.52-7.21-7.58-9.15-12.16c-1.95-4.59-3.38-8.58-4.25-13.45
	c-0.8-4.44-1.17-7.27-1.73-19.05c-0.37-7.84-0.76-22.89-0.03-30.71c0.7-7.5,2.27-14.36,4.22-20.1c0.95-2.45,1.96-4.56,3.38-6.94
	c1.41-2.38,3.54-4.79,5.84-6.59c2.29-1.8,5.04-3.28,8.22-4.43c3.18-1.15,6.89-1.72,11.14-1.72c4.77,0,8.88,0.66,12.33,1.96
	c3.45,1.31,6.32,2.94,8.62,4.91c2.29,1.96,4.04,4.09,5.43,6.26c1.4,2.18,1.6,2.41,2.78,4.1c0,0,0-47.04,0-65.06
	c0-3.04,7.83-0.92,10.04,0.21c2.53,1.3,4.72,3.14,7.73,4.45c2.47,1.15,5.65,2.17,9.54,3.07c3.89,0.9,10.3-0.85,13.79,1.35
	C471.47,171.94,471.45,176.48,470.05,177.42z M428.95,250.81c-0.17-1.31-0.57-3.27-1.18-5.89c-0.62-2.61-1.53-5.27-2.76-7.97
	c-1.23-2.7-2.85-5.03-4.86-6.99c-2.02-1.96-4.43-2.94-7.23-2.94c-4.21,0-7.41,1.43-9.6,4.29c-2.19,2.86-3.72,6.01-4.6,9.44
	c-1.06,4.09-1.68,8.58-1.86,13.49v33.55c0.17,6.22,0.8,8.15,1.86,13.05c0.87,4.25,2.41,8.06,4.6,11.41c2.19,3.35,5.39,5.03,9.6,5.03
	c3.15,0,5.74-0.53,7.75-1.59c2.01-1.06,3.59-2.41,4.73-4.05c1.14-1.63,1.97-3.31,2.5-5.03s0.88-3.23,1.05-4.54V250.81z"/>
<path class="st0" d="M588.22,337.49c4.42,0,7.99,1.55,10.74,4.66c2.74,3.1,3.76,6.62,3.05,10.55c-0.89,4.09-3.01,7.6-6.36,10.55
	c-3.36,2.94-7.56,5.35-12.6,7.24c-5.04,1.88-10.65,3.23-16.84,4.05c-6.19,0.82-12.46,1.02-18.82,0.98
	c-7.2-0.05-14.36-0.45-22.4-2.33c-8.05-1.88-16.49-4.13-25.32-6.75c-3.54,3.76-7.34,6.99-11.4,9.69c-4.07,2.7-8.13,4.91-12.2,6.62
	c-4.07,1.72-8.04,3.02-11.93,3.92c-3.89,0.9-7.25,1.59-10.08,2.09V389c-0.35,0-2.34,0.25-5.97,0.74c-3.62,0.49-7.99,0.74-13.13,0.74
	c-5.48,0-10.34-0.61-14.58-1.84c-4.24-1.23-7.78-2.91-10.61-5.03c-2.82-2.13-4.94-4.46-6.36-6.99c-1.41-2.54-2.12-5.19-2.12-7.97
	c0-2.62,0.71-5.24,2.12-7.85c1.42-2.62,3.58-4.95,6.5-6.99c2.92-2.05,6.63-3.68,11.14-4.91c4.51-1.23,9.86-1.84,16.04-1.84
	c6.89,0,14.19,0.86,21.88,2.58c7.69,1.72,15.51,3.72,23.47,6.01c1.41-3.6,2.56-7.6,3.45-12.02c0.88-4.42,1.33-9.49,1.33-15.21
	l0.26-18.64v-65.98c0-6.05-1.42-10.02-4.24-11.9c-2.83-1.88-6.91-0.63-9.28-2.82c-1.22-1.13-2.1-4.57,0-6.38
	c2.54-2.19,9.68-0.45,13.65-1.35c3.98-0.9,7.2-1.92,9.68-3.07c3-1.31,5.24-3.21,7.69-4.66c3.36-1.98,10.07-2.33,10.07,0
	c0,17.8,0,96.15,0,96.15v1.96l-0.26,12.75c0,8.18-1.02,15.29-3.05,21.34c-2.04,6.05-4.82,11.44-8.35,16.19
	c6.54,1.8,12.86,3.47,18.96,5.03c6.1,1.55,11.8,2.58,17.1,3.07l0.14,0.02c5.3,0.49,9.93-0.3,14.17-1.86
	c4.24-1.56,7.82-3.52,10.74-5.89c2.92-2.37,5.26-4.87,7.03-7.48c1.77-2.62,2.83-4.91,3.18-6.87c0.53-3.11,2.07-5.64,4.64-7.6
	C581.9,338.47,584.86,337.49,588.22,337.49z M444.77,384.58c0.71,0,2.43-0.29,5.17-0.86c2.74-0.57,5.88-1.72,9.41-3.43
	s7.16-4.13,10.87-7.24c3.71-3.11,6.98-7.28,9.81-12.51c-7.6-2.29-15.07-4.21-22.4-5.76c-7.33-1.56-14.19-2.33-20.55-2.33
	c-10.43,0-18.03,1.72-22.8,5.15c-4.77,3.43-7.16,7.11-7.16,11.04c0,4.09,2.34,7.85,7.03,11.28c4.69,3.43,11.62,5.15,20.81,5.15
	c1.95,0,3.71-0.04,5.3-0.12C441.85,384.87,443.36,384.75,444.77,384.58z"/>
<path class="st0" d="M647.31,197.87l-0.02-2.31l0.17-13.92c0-8.93,1.16-19.77,3.19-26.38c2.04-6.61,3.72-9.74,7.26-14.92
	c-6.54-1.96-11.91-3.51-18.01-5.21c-6.1-1.7-11.8-2.81-17.1-3.35l-0.87-0.05c-5.3-0.54-9.2,0.37-13.44,2.06
	c-4.24,1.7-7.82,3.85-10.74,6.43c-2.92,2.59-5.26,5.32-7.03,8.18c-1.77,2.86-2.83,5.36-3.18,7.51c-0.53,3.4-2.07,6.17-4.64,8.31
	c-2.56,2.15-5.52,3.22-8.88,3.22c-4.42,0-7.99-1.7-10.74-5.09c-2.74-3.39-3.76-7.24-3.05-11.53c0.89-4.46,3.01-8.31,6.36-11.53
	c3.36-3.22,7.56-5.85,12.6-7.91c5.04-2.05,10.65-3.53,16.84-4.42c6.19-0.89,12.61-1.48,18.97-1.36c7.33,0.14,14.21,0.78,22.25,2.83
	c8.05,2.06,16.49,4.52,25.32,7.37c3.54-4.11,7.34-7.64,11.4-10.59c4.07-2.95,8.13-5.36,12.2-7.24c4.07-1.88,8.04-3.3,11.93-4.29
	c3.89-0.98,7.25-1.74,10.08-2.28l0.62-0.13c0.58-0.09,1.72-0.4,5.34-0.94c3.62-0.54,7.99-0.8,13.13-0.8
	c5.48,0,10.34,0.67,14.58,2.01c4.24,1.34,7.78,3.18,10.61,5.5c2.82,2.32,4.94,4.87,6.36,7.64c1.41,2.77,2.12,5.68,2.12,8.71
	c0,2.86-0.71,5.72-2.12,8.58c-1.42,2.86-3.58,5.41-6.5,7.64c-2.92,2.24-6.63,4.02-11.14,5.36c-4.51,1.34-9.86,2.01-16.04,2.01
	c-6.89,0-14.19-0.94-21.88-2.81c-7.69-1.88-15.51-4.06-23.47-6.57c-1.41,3.93-2.56,8.31-3.45,13.13
	c-0.88,4.83-1.33,10.37-1.33,16.62l-0.26,20.37 M717.46,115.96c-0.71,0-2.43,0.31-5.17,0.94c-2.74,0.63-5.88,1.88-9.41,3.75
	c-3.53,1.88-7.16,4.52-10.87,7.91c-3.71,3.4-6.98,7.95-9.81,13.67c7.6,2.51,15.07,4.6,22.4,6.3c7.33,1.7,14.19,2.55,20.55,2.55
	c10.43,0,18.03-1.88,22.8-5.63c4.77-3.75,7.16-7.77,7.16-12.06c0-4.46-2.34-8.58-7.03-12.33c-4.69-3.75-11.62-5.63-20.81-5.63
	c-1.95,0-3.71,0.05-5.3,0.13C720.38,115.65,718.87,115.79,717.46,115.96z"/>
<path class="st0" d="M630.56,265.99c0,11.12-1.24,20.48-3.71,28.09c-2.48,7.6-5.88,13.78-10.21,18.52
	c-4.34,4.74-9.41,8.18-15.25,10.3c-5.83,2.12-12.11,3.19-18.82,3.19c-6.72,0-12.99-1.07-18.83-3.19
	c-5.83-2.12-10.92-5.6-15.25-10.43c-4.33-4.82-7.73-11.04-10.21-18.64c-2.48-7.6-3.71-16.88-3.71-27.84
	c0-11.44,1.23-21.05,3.71-28.82c2.47-7.76,5.87-13.98,10.21-18.64c4.33-4.66,9.41-7.97,15.25-9.93c5.83-1.96,12.11-2.94,18.83-2.94
	c6.72,0,12.99,0.98,18.82,2.94c5.83,1.96,10.91,5.27,15.25,9.93c4.33,4.66,7.73,10.88,10.21,18.64
	C629.33,244.94,630.56,254.55,630.56,265.99z M582.57,316.89c2.47,0,4.86-0.78,7.16-2.35c2.29-1.57,4.37-4.26,6.23-8.1
	c1.85-3.84,3.31-9.04,4.37-15.62c1.06-6.58,1.59-14.95,1.59-25.13c0-10.8-0.53-16.65-1.59-23.38c-1.06-6.73-2.52-11.94-4.37-15.62
	c-1.86-3.68-3.94-6.15-6.23-7.4c-2.3-1.25-4.69-1.88-7.16-1.88c-2.48,0-4.86,0.63-7.16,1.88s-4.37,3.72-6.23,7.4
	c-1.85,3.68-3.31,8.84-4.37,15.5c-1.06,6.66-1.59,12.54-1.59,23.5c0,10.18,0.53,18.55,1.59,25.13c1.06,6.58,2.52,11.78,4.37,15.62
	c1.86,3.84,3.93,6.53,6.23,8.1C577.71,316.11,580.09,316.89,582.57,316.89z"/>
<path class="st0" d="M674.89,166.83v54.38c0.53-1.8,1.46-2.73,2.78-4.94c1.33-2.21,3.14-4.29,5.43-6.26
	c2.29-1.96,5.17-3.6,8.62-4.91c3.45-1.31,7.56-1.96,12.33-1.96c6.72,0,12.11,1.31,16.17,3.93c4.07,2.62,7.16,5.78,9.28,9.47
	c2.12,3.69,3.49,7.5,4.11,11.43c0.62,3.93,0.93,7.21,0.93,9.83l0.26,0.24v64.65c0,3.44,1.28,6.39,3.85,8.85
	c2.56,2.46,6.93,1.14,9.68,3.69c1.22,1.13,1.59,6.38,0,6.38c-15.2,0-39.19,0-54.62,0c-1.59,0-1.22-5.25,0-6.38
	c2.62-2.43,6.89-1.23,9.54-3.68c2.65-2.45,3.98-5.4,3.98-8.83v-61.81c0-1.47-0.18-3.64-0.53-6.5c-0.36-2.86-1.11-5.68-2.25-8.46
	c-1.15-2.78-2.78-5.23-4.91-7.36c-2.12-2.12-4.95-3.19-8.48-3.19c-3.01,0-5.48,0.98-7.43,2.94c-1.95,1.96-3.54,4.29-4.77,6.99
	c-1.24,2.7-2.17,5.36-2.78,7.97c-0.62,2.62-0.87,9.08-0.84,10.4l-0.35,59.02c0,3.43,1.33,6.38,3.98,8.83
	c2.65,2.45,6.92,1.25,9.54,3.68c1.22,1.13,1.59,6.38,0,6.38c-15.29,0-40.61,0-54.62,0c-1.59,0-1.22-5.25,0-6.38
	c2.62-2.43,6.89-1.23,9.54-3.68c2.65-2.45,3.98-5.4,3.98-8.83V197"/>
<g>
	<path class="st0" d="M363.11,319.36c-1.34-0.87-3.32-0.21-5.05-0.63c-1.73-0.42-3.23-1.18-4.5-2.27c-1.28-1.09-2.32-2.65-3.14-4.67
		c-0.82-2.02-1.23-4.63-1.23-7.83v-67.18c0-3.54,1.37-6.57,4.1-9.09c2.73-2.53,7.12-1.29,9.83-3.79c1.25-1.16,1.32-4.85,0.12-6.06
		c-2.85-2.87-10.49-0.71-15.4-1.14c-4.91-0.42-9.39-0.69-13.68-1.08c0,0-6.83-0.46-9.19-0.97c-3.1-0.5-5.87-1.09-8.33-1.77
		c-2.46-0.67-4.91-1.3-7.37-1.89c-2.46-0.59-5.1-1.05-7.92-1.39c-2.82-0.33-6.14-0.5-9.96-0.5c-7.83,0-11.17,1.65-16.61,4.95
		c-4.79,2.91-7.81,7.14-9.69,10.47c-2.64,4.67-7.42,17.54-9.18,30.79c-1.34,10.08-0.63,24.06,0.44,32.28
		c1.29,9.94,3.64,19.73,5.18,22.84c0.32,0.64,0.76,0.96,2.35,0.28c3.62-1.53,7.34-2.17,12.53-2.17c6.11,0,11.29,1.25,15.56,3.73
		c4.26,2.49,7.46,5.62,10.06,9.22c1.71,2.37,2.66,5.63,4.88,6.64c1.57,0.72,3.78-1.8,5.46-3.23c2.36-2.02,4.23-4.17,5.6-6.44
		c1.37-2.27,2.32-4.33,2.87-6.19c0,0-3.01,14.17,0.56,17.17c2.31,1.95,7.18-0.34,11.73-1.01c3.82-0.67,7.65-0.83,12.74-1.34
		c5.09-0.5,14.31,0.55,17.29-1.19C364.61,325.05,364.98,320.58,363.11,319.36z M320.79,244.66l-0.39,47.03
		c-0.18,1.35-0.19,3.18-0.83,5.87c-0.63,2.7-1.58,5.39-2.84,8.08c-1.26,2.7-2.94,5.05-5.01,7.07c-2.07,2.02-4.56,3.03-7.44,3.03
		c-4.33,0-7.63-1.43-9.88-4.29c-2.26-2.86-3.84-6.06-4.73-9.6c-1.09-4.21-1.73-8.92-1.91-14.14v-29.47
		c0.38-4.13,0.82-10.31,1.91-15.36c0.9-4.38,2.48-8.33,4.73-11.87c2.25-3.54,5.54-5.3,9.88-5.3c3.25,0,5.91,0.55,7.98,1.64
		c2.07,1.1,3.7,2.44,4.87,4.04c1.17,1.6,2.03,3.28,2.57,5.05c0.54,1.77,0.79,3.89,0.97,5.23L320.79,244.66z"/>
</g>
<path class="st0" d="M206.59,332.64v-87.71c-0.18-2.02-0.55-4.38-1.09-7.07c-0.55-2.69-1.41-5.26-2.59-7.7
	c-1.19-2.44-2.78-4.5-4.78-6.19c-2-1.68-4.64-2.53-7.92-2.53c-2.91,0-5.37,0.93-7.37,2.78c-2.01,1.85-3.64,4.04-4.91,6.57
	c-1.28,2.53-2.28,5.14-3,7.83c-0.73,2.7-1.19,4.8-1.37,6.31c-0.09,0.52-0.14,0.88-0.18,1.5c-0.04,0.6-0.09,1.2-0.09,1.53v60.18
	c0,3.54,1.37,6.57,4.1,9.09c2.73,2.53,6.57,1.44,9.27,3.94c1.25,1.16,2.16,6.41,0.55,6.41c-21.04,0-35.87,0-56.24,0
	c-1.64,0-1.18-5.34,0-6.57c2.4-2.48,7.1-1.26,9.83-3.79c2.73-2.53,4.09-5.56,4.09-9.09v-60.43c0-1.52-0.18-3.75-0.55-6.69
	c-0.37-2.94-1.14-5.89-2.32-8.84c-1.19-2.94-2.82-5.47-4.91-7.58c-2.1-2.1-4.96-3.16-8.6-3.16c-3.1,0-5.64,1.01-7.64,3.03
	c-2,2.02-3.68,4.38-5.05,7.07c-1.36,2.69-2.37,5.39-3,8.08c-0.64,2.69-1.15,6.39-1.08,7.77l-0.15,60.74c0,3.54,1.36,6.57,4.09,9.09
	c2.73,2.53,7.13,1.29,9.83,3.79c1.25,1.16,1.64,6.57,0,6.57c-15.47,0-40.17,0-56.24,0c-1.64,0-1.25-5.4,0-6.57
	c2.83-2.62,7.32-1.26,9.96-3.79c2.64-2.53,3.96-5.56,3.96-9.09v-69.95c0-6.23-1.46-10.31-4.37-12.25c-2.91-1.93-7.11-0.64-9.55-2.9
	c-1.25-1.16-1.11-4.24,0.15-5.4c3.86-3.57,9.62-2.14,13.62-3.07c4-0.92,7.46-2.08,10.19-3.27c3.09-1.34,5.49-3.18,8.25-4.17
	c2.35-0.85,7.94-0.79,9.73,0.86c3.47,3.21,0.92,15.47,0.92,15.47c0.55-1.85,0.96-2.06,2.32-4.34c1.36-2.27,3.23-4.42,5.6-6.44
	c2.36-2.02,5.32-3.7,8.87-5.05c3.55-1.35,7.78-2.02,12.69-2.02c5.46,0,10.01,0.67,13.65,2.02c3.64,1.35,6.69,3.12,9.14,5.3
	c2.46,2.19,4.32,4.63,5.6,7.32c1.27,2.69,1.98,4.46,2.52,7.15c0.18-1.52,0.98-2.61,1.98-5.13c1-2.53,2.68-5.05,5.05-7.58
	c2.36-2.53,5.46-4.67,9.28-6.44c3.82-1.77,8.64-2.65,14.47-2.65c7.82,0,13.88,1.64,18.15,4.92c4.27,3.28,7.41,7.11,9.42,11.49
	c2,4.38,3.18,8.67,3.55,12.88c0.36,4.21,0.55,7.32,0.55,9.34v90.66c0.18,7.07,0.63,13.47,1.36,19.19c0.73,5.72,2.09,10.77,4.1,15.15
	c0.91,2.19,1.86,3.95,2.87,5.3c1,1.35,1.81,2.54,2.73,3.38c1.33,1.2,1.33,1.2,2.13,1.9l0.73,0.53c3.45,2.36,7.55,3.54,12.28,3.54
	c4.55,0,9.14-0.8,13.79-2.4c4.64-1.6,8.91-3.91,12.83-6.94c3.91-3.03,7.23-6.74,9.96-11.11c2.73-4.38,4.37-9.34,4.91-14.9
	c0-2.02-0.18-4.42-0.55-7.2c-0.37-2.78-1.05-5.43-2.05-7.96c-1-2.53-2.46-4.67-4.37-6.44c-1.91-1.77-4.5-2.65-7.78-2.65
	c-2.55,0-4.69,0.55-6.41,1.64c-1.73,1.1-3.19,2.44-4.37,4.04c-1.18,1.6-2.14,3.41-2.87,5.43c-0.73,2.02-1.28,4.04-1.64,6.06
	c-0.73,3.2-2.41,5.77-5.05,7.7c-2.64,1.93-5.69,2.9-9.14,2.9c-4.37,0-8.01-1.56-10.92-4.67c-2.91-3.12-3.92-6.78-3-10.99
	c0.55-2.86,1.5-5.77,2.87-8.71c1.37-2.94,3.23-5.6,5.6-7.96c2.36-2.36,5.32-4.29,8.87-5.81c3.55-1.52,7.87-2.27,12.97-2.27
	c6.01,0,11.1,1.22,15.29,3.66c4.18,2.44,7.55,5.43,10.1,8.97c2.55,3.54,4.41,7.2,5.6,10.99c1.18,3.79,1.77,7.03,1.77,9.72
	c0,6.73-1.41,12.79-4.23,18.18c-2.82,5.39-6.51,9.93-11.06,13.64c-4.55,3.7-9.56,6.52-15.02,8.46c-5.46,1.93-10.83,2.9-16.11,2.9
	c-2,0-4.78-0.21-8.33-0.63c-3.55-0.42-7.37-1.26-11.47-2.53c-4.09-1.26-8.28-3.16-12.56-5.68c-4.28-2.53-8.05-5.9-11.33-10.1
	c-3.1-3.71-5.69-8.29-7.78-13.76c-2.1-5.47-3.14-12.25-3.14-20.33c0-0.34-0.01-0.8,0-1.23"/>
<polygon class="st0" points="61.34,199.4 61.32,207.92 55.9,201.35 47.38,201.32 53.95,195.9 53.98,187.39 59.4,193.96 
	67.91,193.98 "/>
<polygon class="st0" points="628.79,156.83 628.76,164.48 623.9,158.58 616.25,158.56 622.15,153.69 622.17,146.04 627.04,151.94 
	634.69,151.97 "/>
<polygon class="st0" points="500.36,193.57 495.64,208.29 489.87,193.94 475.14,189.22 489.49,183.45 494.22,168.72 499.99,183.07 
	514.71,187.8 "/>
<polygon class="st0" points="585.85,262.32 595.45,265.37 586.12,269.15 583.07,278.74 579.29,269.42 569.7,266.37 579.03,262.59 
	582.07,253 "/>
<polygon class="st0" points="83.35,202.62 79.99,205.61 80.67,201.17 77.68,197.81 82.12,198.49 85.48,195.5 84.8,199.94 
	87.79,203.3 "/>
<polygon class="st0" points="51.93,227.32 48.98,232.29 48.08,226.58 43.11,223.63 48.82,222.72 51.77,217.75 52.67,223.46 
	57.65,226.42 "/>
</svg>
