<?xml version="1.0" encoding="utf-8"?>
<!-- Generator: Adobe Illustrator 24.2.3, SVG Export Plug-In . SVG Version: 6.00 Build 0)  -->
<svg version="1.1" id="Lager_1" xmlns="http://www.w3.org/2000/svg" xmlns:xlink="http://www.w3.org/1999/xlink" x="0px" y="0px"
	 viewBox="0 0 143 56" style="enable-background:new 0 0 143 56;" xml:space="preserve">
<style type="text/css">
	.st0{fill:#F6BD60;}
</style>
<path class="st0" d="M82.73,15.59c-0.43,0.28-1.14,0.17-1.63,0.5c-0.5,0.33-0.75,1.03-0.75,2.09v19.43c0,0.6,0.23,1.12,0.7,1.55
	c0.47,0.43,1.22,0.22,1.68,0.65c0.21,0.2,0.26,0.97,0,1.12c-0.76,0.45-1.78,0.24-2.61,0.11c-0.93-0.15-2.21-0.76-3.25-0.06
	c-0.52,0.35-1.92,0.79-2.34,0.9c-0.42,0.12-0.69,0.2-1.11,0.3c-0.42,0.1-0.9,0.16-1.38,0.24c-0.48,0.07-1.02,0.08-1.68,0.08
	c-1.34,0-2.37-0.31-3.1-0.93c-0.73-0.62-1.27-1.33-1.61-2.14c-0.34-0.81-0.59-1.51-0.75-2.37c-0.14-0.78-0.21-1.28-0.3-3.35
	c-0.07-1.38-0.13-4.03-0.01-5.41c0.12-1.32,0.4-2.53,0.74-3.54c0.17-0.43,0.35-0.8,0.6-1.22c0.25-0.42,0.62-0.84,1.03-1.16
	c0.4-0.32,0.89-0.58,1.45-0.78c0.56-0.2,1.21-0.3,1.96-0.3c0.84,0,1.56,0.12,2.17,0.35c0.61,0.23,1.11,0.52,1.52,0.86
	c0.4,0.35,0.71,0.72,0.96,1.1c0.25,0.38,0.28,0.42,0.49,0.72c0,0,0-8.28,0-11.45c0-0.53,1.38-0.16,1.77,0.04
	c0.45,0.23,0.83,0.55,1.36,0.78c0.44,0.2,1,0.38,1.68,0.54c0.68,0.16,1.81-0.15,2.43,0.24C82.98,14.62,82.97,15.42,82.73,15.59z
	 M75.49,28.51c-0.03-0.23-0.1-0.58-0.21-1.04c-0.11-0.46-0.27-0.93-0.49-1.4c-0.22-0.48-0.5-0.89-0.86-1.23
	c-0.35-0.35-0.78-0.52-1.27-0.52c-0.74,0-1.3,0.25-1.69,0.76c-0.39,0.5-0.66,1.06-0.81,1.66c-0.19,0.72-0.3,1.51-0.33,2.38v5.91
	c0.03,1.09,0.14,1.43,0.33,2.3c0.15,0.75,0.42,1.42,0.81,2.01c0.39,0.59,0.95,0.89,1.69,0.89c0.55,0,1.01-0.09,1.36-0.28
	c0.35-0.19,0.63-0.42,0.83-0.71c0.2-0.29,0.35-0.58,0.44-0.89c0.09-0.3,0.15-0.57,0.19-0.8V28.51z"/>
<path class="st0" d="M103.53,43.77c0.78,0,1.41,0.27,1.89,0.82c0.48,0.55,0.66,1.17,0.54,1.86c-0.16,0.72-0.53,1.34-1.12,1.86
	c-0.59,0.52-1.33,0.94-2.22,1.27c-0.89,0.33-1.88,0.57-2.96,0.71c-1.09,0.14-2.19,0.18-3.31,0.17c-1.27-0.01-2.53-0.08-3.94-0.41
	c-1.42-0.33-2.9-0.73-4.46-1.19c-0.62,0.66-1.29,1.23-2.01,1.71c-0.72,0.48-1.43,0.86-2.15,1.17c-0.72,0.3-1.42,0.53-2.1,0.69
	c-0.68,0.16-1.28,0.28-1.77,0.37v0.04c-0.06,0-0.41,0.04-1.05,0.13c-0.64,0.09-1.41,0.13-2.31,0.13c-0.96,0-1.82-0.11-2.57-0.32
	c-0.75-0.22-1.37-0.51-1.87-0.89c-0.5-0.37-0.87-0.78-1.12-1.23c-0.25-0.45-0.37-0.91-0.37-1.4c0-0.46,0.12-0.92,0.37-1.38
	c0.25-0.46,0.63-0.87,1.14-1.23c0.51-0.36,1.17-0.65,1.96-0.86c0.79-0.22,1.74-0.32,2.82-0.32c1.21,0,2.5,0.15,3.85,0.45
	c1.35,0.3,2.73,0.65,4.13,1.06c0.25-0.63,0.45-1.34,0.61-2.12c0.16-0.78,0.23-1.67,0.23-2.68l0.05-3.28V27.27
	c0-1.06-0.25-1.76-0.75-2.09c-0.5-0.33-1.22-0.11-1.63-0.5c-0.21-0.2-0.37-0.81,0-1.12c0.45-0.38,1.7-0.08,2.4-0.24
	c0.7-0.16,1.27-0.34,1.7-0.54c0.53-0.23,0.92-0.56,1.35-0.82c0.59-0.35,1.77-0.41,1.77,0c0,3.13,0,16.93,0,16.93v0.35l-0.05,2.25
	c0,1.44-0.18,2.69-0.54,3.76c-0.36,1.06-0.85,2.01-1.47,2.85c1.15,0.32,2.26,0.61,3.34,0.89c1.07,0.27,2.08,0.45,3.01,0.54l0.03,0
	c0.93,0.09,1.75-0.05,2.5-0.33c0.75-0.27,1.38-0.62,1.89-1.04c0.51-0.42,0.93-0.86,1.24-1.32c0.31-0.46,0.5-0.86,0.56-1.21
	c0.09-0.55,0.37-0.99,0.82-1.34C102.42,43.94,102.94,43.77,103.53,43.77z M78.28,52.06c0.12,0,0.43-0.05,0.91-0.15
	c0.48-0.1,1.04-0.3,1.66-0.6c0.62-0.3,1.26-0.73,1.91-1.27c0.65-0.55,1.23-1.28,1.73-2.2c-1.34-0.4-2.65-0.74-3.94-1.01
	c-1.29-0.27-2.5-0.41-3.62-0.41c-1.84,0-3.17,0.3-4.02,0.91c-0.84,0.6-1.26,1.25-1.26,1.94c0,0.72,0.41,1.38,1.24,1.99
	c0.83,0.6,2.05,0.91,3.66,0.91c0.34,0,0.65-0.01,0.93-0.02C77.76,52.11,78.03,52.09,78.28,52.06z"/>
<path class="st0" d="M113.94,19.19l0-0.41l0.03-2.45c0-1.57,0.2-3.48,0.56-4.64c0.36-1.16,0.66-1.71,1.28-2.63
	c-1.15-0.35-2.1-0.62-3.17-0.92c-1.07-0.3-2.08-0.5-3.01-0.59l-0.15-0.01c-0.93-0.09-1.62,0.06-2.37,0.36
	c-0.75,0.3-1.38,0.68-1.89,1.13c-0.51,0.46-0.93,0.94-1.24,1.44c-0.31,0.5-0.5,0.94-0.56,1.32c-0.09,0.6-0.37,1.09-0.82,1.46
	c-0.45,0.38-0.97,0.57-1.56,0.57c-0.78,0-1.41-0.3-1.89-0.9c-0.48-0.6-0.66-1.27-0.54-2.03c0.16-0.79,0.53-1.46,1.12-2.03
	c0.59-0.57,1.33-1.03,2.22-1.39c0.89-0.36,1.88-0.62,2.96-0.78c1.09-0.16,2.22-0.26,3.34-0.24c1.29,0.03,2.5,0.14,3.92,0.5
	c1.42,0.36,2.9,0.8,4.46,1.3c0.62-0.72,1.29-1.35,2.01-1.86c0.72-0.52,1.43-0.94,2.15-1.27c0.72-0.33,1.42-0.58,2.1-0.76
	c0.68-0.17,1.28-0.31,1.77-0.4l0.11-0.02c0.1-0.02,0.3-0.07,0.94-0.17c0.64-0.09,1.41-0.14,2.31-0.14c0.96,0,1.82,0.12,2.57,0.35
	c0.75,0.24,1.37,0.56,1.87,0.97c0.5,0.41,0.87,0.86,1.12,1.35c0.25,0.49,0.37,1,0.37,1.53c0,0.5-0.12,1.01-0.37,1.51
	c-0.25,0.5-0.63,0.95-1.14,1.35c-0.51,0.39-1.17,0.71-1.96,0.94c-0.79,0.24-1.74,0.35-2.82,0.35c-1.21,0-2.5-0.17-3.85-0.5
	c-1.35-0.33-2.73-0.72-4.13-1.16c-0.25,0.69-0.45,1.46-0.61,2.31c-0.16,0.85-0.23,1.83-0.23,2.93l-0.05,3.59 M126.29,4.76
	c-0.12,0-0.43,0.06-0.91,0.17c-0.48,0.11-1.04,0.33-1.66,0.66c-0.62,0.33-1.26,0.8-1.91,1.39c-0.65,0.6-1.23,1.4-1.73,2.41
	c1.34,0.44,2.65,0.81,3.94,1.11c1.29,0.3,2.5,0.45,3.62,0.45c1.84,0,3.17-0.33,4.01-0.99c0.84-0.66,1.26-1.37,1.26-2.12
	c0-0.79-0.41-1.51-1.24-2.17c-0.83-0.66-2.05-0.99-3.66-0.99c-0.34,0-0.65,0.01-0.93,0.02C126.8,4.71,126.54,4.73,126.29,4.76z"/>
<path class="st0" d="M110.99,31.18c0,1.96-0.22,3.61-0.65,4.95c-0.44,1.34-1.03,2.43-1.8,3.26c-0.76,0.84-1.66,1.44-2.68,1.81
	c-1.03,0.37-2.13,0.56-3.31,0.56c-1.18,0-2.29-0.19-3.31-0.56c-1.03-0.37-1.92-0.99-2.68-1.84c-0.76-0.85-1.36-1.94-1.8-3.28
	c-0.44-1.34-0.65-2.97-0.65-4.9c0-2.01,0.22-3.71,0.65-5.07c0.44-1.37,1.03-2.46,1.8-3.28c0.76-0.82,1.66-1.4,2.68-1.75
	c1.03-0.35,2.13-0.52,3.31-0.52c1.18,0,2.29,0.17,3.31,0.52c1.03,0.35,1.92,0.93,2.68,1.75c0.76,0.82,1.36,1.92,1.8,3.28
	C110.77,27.47,110.99,29.17,110.99,31.18z M102.54,40.14c0.44,0,0.86-0.14,1.26-0.41c0.4-0.28,0.77-0.75,1.1-1.43
	c0.33-0.68,0.58-1.59,0.77-2.75c0.19-1.16,0.28-2.63,0.28-4.42c0-1.9-0.09-2.93-0.28-4.12c-0.19-1.19-0.44-2.1-0.77-2.75
	c-0.33-0.65-0.69-1.08-1.1-1.3c-0.4-0.22-0.83-0.33-1.26-0.33c-0.44,0-0.86,0.11-1.26,0.33c-0.4,0.22-0.77,0.65-1.1,1.3
	c-0.33,0.65-0.58,1.56-0.77,2.73c-0.19,1.17-0.28,2.21-0.28,4.14c0,1.79,0.09,3.27,0.28,4.42c0.19,1.16,0.44,2.07,0.77,2.75
	c0.33,0.68,0.69,1.15,1.1,1.43C101.68,40,102.1,40.14,102.54,40.14z"/>
<path class="st0" d="M118.79,13.72v9.57c0.09-0.32,0.26-0.48,0.49-0.87c0.23-0.39,0.55-0.76,0.96-1.1c0.4-0.35,0.91-0.63,1.52-0.86
	c0.61-0.23,1.33-0.35,2.17-0.35c1.18,0,2.13,0.23,2.85,0.69c0.72,0.46,1.26,1.02,1.63,1.67c0.37,0.65,0.61,1.32,0.72,2.01
	c0.11,0.69,0.16,1.27,0.16,1.73l0.05,0.04v11.38c0,0.61,0.23,1.13,0.68,1.56c0.45,0.43,1.22,0.2,1.7,0.65c0.21,0.2,0.28,1.12,0,1.12
	c-2.68,0-6.9,0-9.62,0c-0.28,0-0.21-0.92,0-1.12c0.46-0.43,1.21-0.22,1.68-0.65c0.47-0.43,0.7-0.95,0.7-1.55V26.77
	c0-0.26-0.03-0.64-0.09-1.14c-0.06-0.5-0.19-1-0.4-1.49c-0.2-0.49-0.49-0.92-0.86-1.3c-0.37-0.37-0.87-0.56-1.49-0.56
	c-0.53,0-0.97,0.17-1.31,0.52c-0.34,0.35-0.62,0.76-0.84,1.23c-0.22,0.48-0.38,0.94-0.49,1.4c-0.11,0.46-0.15,1.6-0.15,1.83
	l-0.06,10.39c0,0.6,0.23,1.12,0.7,1.55c0.47,0.43,1.22,0.22,1.68,0.65c0.21,0.2,0.28,1.12,0,1.12c-2.69,0-7.15,0-9.62,0
	c-0.28,0-0.21-0.92,0-1.12c0.46-0.43,1.21-0.22,1.68-0.65c0.47-0.43,0.7-0.95,0.7-1.55V19.03"/>
<g>
	<path class="st0" d="M63.9,40.58c-0.24-0.15-0.59-0.04-0.89-0.11c-0.3-0.07-0.57-0.21-0.79-0.4c-0.22-0.19-0.41-0.47-0.55-0.82
		c-0.14-0.36-0.22-0.81-0.22-1.38V26.04c0-0.62,0.24-1.16,0.72-1.6c0.48-0.44,1.25-0.23,1.73-0.67c0.22-0.2,0.23-0.85,0.02-1.07
		c-0.5-0.51-1.85-0.13-2.71-0.2c-0.87-0.07-1.65-0.12-2.41-0.19c0,0-1.2-0.08-1.62-0.17c-0.55-0.09-1.03-0.19-1.47-0.31
		c-0.43-0.12-0.87-0.23-1.3-0.33c-0.43-0.1-0.9-0.18-1.39-0.24c-0.5-0.06-1.08-0.09-1.75-0.09c-1.38,0-1.97,0.29-2.93,0.87
		c-0.84,0.51-1.37,1.26-1.71,1.84c-0.46,0.82-1.31,3.09-1.62,5.42c-0.24,1.77-0.11,4.24,0.08,5.68c0.23,1.75,0.64,3.47,0.91,4.02
		c0.06,0.11,0.13,0.17,0.41,0.05c0.64-0.27,1.29-0.38,2.21-0.38c1.08,0,1.99,0.22,2.74,0.66c0.75,0.44,1.31,0.99,1.77,1.62
		c0.3,0.42,0.47,0.99,0.86,1.17c0.28,0.13,0.67-0.32,0.96-0.57c0.42-0.36,0.75-0.73,0.99-1.13c0.24-0.4,0.41-0.76,0.5-1.09
		c0,0-0.53,2.49,0.1,3.02c0.41,0.34,1.26-0.06,2.07-0.18c0.67-0.12,1.35-0.15,2.24-0.24c0.9-0.09,2.52,0.1,3.04-0.21
		C64.16,41.58,64.23,40.79,63.9,40.58z M56.45,27.42l-0.07,8.28c-0.03,0.24-0.03,0.56-0.15,1.03c-0.11,0.47-0.28,0.95-0.5,1.42
		c-0.22,0.47-0.52,0.89-0.88,1.25c-0.36,0.36-0.8,0.53-1.31,0.53c-0.76,0-1.34-0.25-1.74-0.76c-0.4-0.5-0.68-1.07-0.83-1.69
		c-0.19-0.74-0.3-1.57-0.34-2.49v-5.19c0.07-0.73,0.14-1.81,0.34-2.7c0.16-0.77,0.44-1.47,0.83-2.09c0.4-0.62,0.98-0.93,1.74-0.93
		c0.57,0,1.04,0.1,1.41,0.29c0.36,0.19,0.65,0.43,0.86,0.71c0.21,0.28,0.36,0.58,0.45,0.89c0.1,0.31,0.14,0.68,0.17,0.92
		L56.45,27.42z"/>
</g>
<path class="st0" d="M36.34,42.92V27.47c-0.03-0.36-0.1-0.77-0.19-1.25c-0.1-0.47-0.25-0.93-0.46-1.36
	c-0.21-0.43-0.49-0.79-0.84-1.09c-0.35-0.3-0.82-0.44-1.39-0.44c-0.51,0-0.95,0.16-1.3,0.49c-0.35,0.33-0.64,0.71-0.87,1.16
	c-0.22,0.44-0.4,0.9-0.53,1.38c-0.13,0.47-0.21,0.84-0.24,1.11c-0.02,0.09-0.02,0.16-0.03,0.26c-0.01,0.11-0.02,0.21-0.02,0.27v10.6
	c0,0.62,0.24,1.16,0.72,1.6s1.16,0.25,1.63,0.69c0.22,0.2,0.38,1.13,0.1,1.13c-3.71,0-6.32,0-9.9,0c-0.29,0-0.21-0.94,0-1.16
	c0.42-0.44,1.25-0.22,1.73-0.67s0.72-0.98,0.72-1.6V27.96c0-0.27-0.03-0.66-0.1-1.18c-0.06-0.52-0.2-1.04-0.41-1.56
	c-0.21-0.52-0.5-0.96-0.87-1.33c-0.37-0.37-0.87-0.56-1.51-0.56c-0.55,0-0.99,0.18-1.35,0.53c-0.35,0.36-0.65,0.77-0.89,1.25
	c-0.24,0.47-0.42,0.95-0.53,1.42c-0.11,0.47-0.2,1.12-0.19,1.37L19.61,38.6c0,0.62,0.24,1.16,0.72,1.6s1.25,0.23,1.73,0.67
	c0.22,0.2,0.29,1.16,0,1.16c-2.72,0-7.07,0-9.9,0c-0.29,0-0.22-0.95,0-1.16c0.5-0.46,1.29-0.22,1.75-0.67
	c0.46-0.44,0.7-0.98,0.7-1.6V26.29c0-1.1-0.26-1.82-0.77-2.16c-0.51-0.34-1.25-0.11-1.68-0.51c-0.22-0.2-0.2-0.75,0.03-0.95
	c0.68-0.63,1.69-0.38,2.4-0.54c0.7-0.16,1.31-0.37,1.79-0.57c0.54-0.24,0.97-0.56,1.45-0.73c0.41-0.15,1.4-0.14,1.71,0.15
	c0.61,0.57,0.16,2.72,0.16,2.72c0.1-0.33,0.17-0.36,0.41-0.76c0.24-0.4,0.57-0.78,0.99-1.13c0.42-0.36,0.94-0.65,1.56-0.89
	c0.62-0.24,1.37-0.36,2.23-0.36c0.96,0,1.76,0.12,2.4,0.36c0.64,0.24,1.18,0.55,1.61,0.93c0.43,0.39,0.76,0.82,0.99,1.29
	c0.22,0.47,0.35,0.79,0.44,1.26c0.03-0.27,0.17-0.46,0.35-0.9c0.18-0.44,0.47-0.89,0.89-1.33c0.42-0.44,0.96-0.82,1.63-1.13
	c0.67-0.31,1.52-0.47,2.55-0.47c1.38,0,2.44,0.29,3.2,0.87c0.75,0.58,1.31,1.25,1.66,2.02c0.35,0.77,0.56,1.53,0.63,2.27
	c0.06,0.74,0.1,1.29,0.1,1.65v15.96c0.03,1.24,0.11,2.37,0.24,3.38c0.13,1.01,0.37,1.9,0.72,2.67c0.16,0.38,0.33,0.7,0.5,0.93
	c0.18,0.24,0.32,0.45,0.48,0.59c0.23,0.21,0.23,0.21,0.38,0.34l0.13,0.09c0.61,0.41,1.33,0.62,2.16,0.62c0.8,0,1.61-0.14,2.43-0.42
	c0.82-0.28,1.57-0.69,2.26-1.22c0.69-0.53,1.27-1.19,1.75-1.96c0.48-0.77,0.77-1.65,0.87-2.62c0-0.36-0.03-0.78-0.1-1.27
	c-0.06-0.49-0.18-0.96-0.36-1.4c-0.18-0.44-0.43-0.82-0.77-1.13c-0.34-0.31-0.79-0.47-1.37-0.47c-0.45,0-0.83,0.1-1.13,0.29
	c-0.3,0.19-0.56,0.43-0.77,0.71c-0.21,0.28-0.38,0.6-0.5,0.96c-0.13,0.36-0.22,0.71-0.29,1.07c-0.13,0.56-0.43,1.02-0.89,1.36
	c-0.46,0.34-1,0.51-1.61,0.51c-0.77,0-1.41-0.27-1.92-0.82c-0.51-0.55-0.69-1.19-0.53-1.93c0.1-0.5,0.26-1.02,0.5-1.53
	c0.24-0.52,0.57-0.99,0.99-1.4c0.42-0.41,0.94-0.76,1.56-1.02c0.62-0.27,1.39-0.4,2.28-0.4c1.06,0,1.95,0.22,2.69,0.64
	c0.74,0.43,1.33,0.96,1.78,1.58c0.45,0.62,0.78,1.27,0.99,1.93c0.21,0.67,0.31,1.24,0.31,1.71c0,1.19-0.25,2.25-0.74,3.2
	c-0.5,0.95-1.15,1.75-1.95,2.4c-0.8,0.65-1.68,1.15-2.64,1.49c-0.96,0.34-1.91,0.51-2.84,0.51c-0.35,0-0.84-0.04-1.47-0.11
	c-0.62-0.07-1.3-0.22-2.02-0.44c-0.72-0.22-1.46-0.56-2.21-1c-0.75-0.44-1.42-1.04-1.99-1.78c-0.55-0.65-1-1.46-1.37-2.42
	c-0.37-0.96-0.55-2.16-0.55-3.58c0-0.06,0-0.14,0-0.22"/>
<polygon class="st0" points="10.76,19.46 10.76,20.96 9.81,19.8 8.31,19.79 9.46,18.84 9.47,17.34 10.42,18.5 11.92,18.5 "/>
<polygon class="st0" points="110.68,11.96 110.67,13.31 109.81,12.27 108.47,12.26 109.51,11.41 109.51,10.06 110.37,11.1 
	111.72,11.1 "/>
<polygon class="st0" points="88.06,18.43 87.23,21.02 86.22,18.49 83.62,17.66 86.15,16.65 86.98,14.05 88,16.58 90.59,17.41 "/>
<polygon class="st0" points="103.12,30.53 104.81,31.07 103.16,31.74 102.63,33.43 101.96,31.78 100.27,31.25 101.91,30.58 
	102.45,28.89 "/>
<polygon class="st0" points="14.64,20.02 14.05,20.55 14.17,19.77 13.64,19.18 14.42,19.3 15.01,18.77 14.89,19.55 15.42,20.14 "/>
<polygon class="st0" points="9.11,24.37 8.59,25.25 8.43,24.24 7.55,23.72 8.56,23.56 9.08,22.69 9.24,23.69 10.11,24.21 "/>
</svg>
