<?xml version="1.0" encoding="utf-8"?>
<!-- Generator: Adobe Illustrator 24.2.3, SVG Export Plug-In . SVG Version: 6.00 Build 0)  -->
<svg version="1.1" id="Lager_1" xmlns="http://www.w3.org/2000/svg" xmlns:xlink="http://www.w3.org/1999/xlink" x="0px" y="0px"
	 viewBox="0 0 512 512" style="enable-background:new 0 0 512 512;" xml:space="preserve">
<style type="text/css">
	.st0{fill:#F6BE61;}
	.st1{fill:#F7EDE2;}
</style>
<g id="bakgrund">
	<circle class="st0" cx="256.2" cy="256.4" r="255.6"/>
</g>
<g id="bokstav">
	<g>
		<path class="st1" d="M299.3,343.7v-121c-0.3-2.8-0.8-6-1.5-9.8c-0.8-3.7-1.9-7.3-3.6-10.6c-1.6-3.4-3.8-6.2-6.6-8.5
			c-2.8-2.3-6.4-3.5-10.9-3.5c-4,0-7.4,1.3-10.2,3.8c-2.8,2.6-5,5.6-6.8,9.1c-1.8,3.5-3.1,7.1-4.1,10.8c-1,3.7-1.6,6.6-1.9,8.7
			c-0.1,0.7-0.2,1.2-0.2,2.1c-0.1,0.8-0.1,1.7-0.1,2.1v83c0,4.9,1.9,9.1,5.7,12.5c3.8,3.5,9.1,2,12.8,5.4c1.7,1.6,3,8.8,0.8,8.8
			c-29,0-49.5,0-77.6,0c-2.3,0-1.6-7.4,0-9.1c3.3-3.4,9.8-1.7,13.6-5.2c3.8-3.5,5.6-7.7,5.6-12.5v-83.4c0-2.1-0.2-5.2-0.8-9.2
			c-0.5-4.1-1.6-8.1-3.2-12.2c-1.6-4.1-3.9-7.5-6.8-10.5c-2.9-2.9-6.8-4.4-11.9-4.4c-4.3,0-7.8,1.4-10.5,4.2c-2.8,2.8-5.1,6-7,9.8
			c-1.9,3.7-3.3,7.4-4.1,11.2c-0.9,3.7-1.6,8.8-1.5,10.7l-0.2,83.8c0,4.9,1.9,9.1,5.6,12.5c3.8,3.5,9.8,1.8,13.6,5.2
			c1.7,1.6,2.3,9.1,0,9.1c-21.3,0-55.4,0-77.6,0c-2.3,0-1.7-7.5,0-9.1c3.9-3.6,10.1-1.7,13.7-5.2c3.6-3.5,5.5-7.7,5.5-12.5v-96.5
			c0-8.6-2-14.2-6-16.9c-4-2.7-9.8-0.9-13.2-4c-1.7-1.6-1.5-5.8,0.2-7.5c5.3-4.9,13.3-3,18.8-4.2c5.5-1.3,10.3-2.9,14.1-4.5
			c4.3-1.9,7.6-4.4,11.4-5.8c3.2-1.2,11-1.1,13.4,1.2c4.8,4.4,1.3,21.4,1.3,21.4c0.8-2.6,1.3-2.8,3.2-6c1.9-3.1,4.5-6.1,7.7-8.9
			c3.3-2.8,7.3-5.1,12.2-7c4.9-1.9,10.7-2.8,17.5-2.8c7.5,0,13.8,0.9,18.8,2.8c5,1.9,9.2,4.3,12.6,7.3c3.4,3,6,6.4,7.7,10.1
			c1.8,3.7,2.7,6.2,3.5,9.9c0.2-2.1,1.4-3.6,2.7-7.1c1.4-3.5,3.7-7,7-10.5c3.3-3.5,7.5-6.4,12.8-8.9c5.3-2.4,11.9-3.7,20-3.7
			c10.8,0,19.1,2.3,25,6.8c5.9,4.5,10.2,9.8,13,15.9c2.8,6,4.4,12,4.9,17.8c0.5,5.8,0.8,10.1,0.8,12.9v125.1
			c0.2,9.8,0.9,18.6,1.9,26.5c1,7.9,2.9,14.9,5.7,20.9c1.3,3,2.6,5.5,4,7.3c1.4,1.9,2.5,3.5,3.8,4.7c1.8,1.7,1.8,1.7,2.9,2.6l1,0.7
			c4.8,3.2,10.4,4.9,16.9,4.9c6.3,0,12.6-1.1,19-3.3c6.4-2.2,12.3-5.4,17.7-9.6c5.4-4.2,10-9.3,13.8-15.3c3.8-6,6-12.9,6.8-20.6
			c0-2.8-0.2-6.1-0.8-9.9c-0.5-3.8-1.5-7.5-2.8-11c-1.4-3.5-3.4-6.4-6-8.9c-2.6-2.4-6.2-3.7-10.7-3.7c-3.5,0-6.5,0.8-8.9,2.3
			c-2.4,1.5-4.4,3.4-6,5.6c-1.6,2.2-3,4.7-4,7.5c-1,2.8-1.8,5.6-2.3,8.4c-1,4.4-3.3,8-7,10.6c-3.6,2.7-7.9,4-12.6,4
			c-6,0-11.1-2.2-15.1-6.4c-4-4.3-5.4-9.4-4.1-15.2c0.8-4,2.1-8,4-12c1.9-4.1,4.5-7.7,7.7-11c3.3-3.2,7.3-5.9,12.2-8
			c4.9-2.1,10.9-3.1,17.9-3.1c8.3,0,15.3,1.7,21.1,5.1c5.8,3.4,10.4,7.5,13.9,12.4c3.5,4.9,6.1,9.9,7.7,15.2
			c1.6,5.2,2.5,9.7,2.5,13.4c0,9.3-1.9,17.6-5.8,25.1c-3.9,7.4-9,13.7-15.3,18.8c-6.3,5.1-13.2,9-20.7,11.7s-14.9,4-22.2,4
			c-2.8,0-6.6-0.3-11.5-0.9c-4.9-0.6-10.2-1.7-15.8-3.5c-5.6-1.7-11.4-4.4-17.3-7.8c-5.9-3.5-11.1-8.1-15.6-13.9
			c-4.3-5.1-7.8-11.4-10.7-19c-2.9-7.5-4.3-16.9-4.3-28.1c0-0.5,0-1.1,0-1.7"/>
		<polygon class="st1" points="98.9,159.9 98.9,171.6 91.4,162.6 79.7,162.5 88.7,155.1 88.8,143.3 96.2,152.4 108,152.4 		"/>
		<polygon class="st1" points="129.3,164.3 124.6,168.5 125.6,162.3 121.5,157.7 127.6,158.6 132.2,154.5 131.3,160.6 135.4,165.3 
					"/>
		<polygon class="st1" points="85.9,198.4 81.9,205.3 80.6,197.4 73.8,193.3 81.6,192.1 85.7,185.2 87,193.1 93.8,197.2 		"/>
	</g>
</g>
</svg>
